GeoramaCondensed-Italic.ufo
<glyph name="exclam" format="2">
  <advance width="157.69799999999998"/>
  <unicode hex="0021"/>
  <outline>
    <contour>
      <point x="46.394" y="262.45" type="line"/>
      <point x="105.562" y="262.45" type="line"/>
      <point x="186.793" y="740.0" type="line"/>
      <point x="118.94500000000001" y="740.0" type="line"/>
    </contour>
    <contour>
      <point x="1.6280000000000008" y="28.041999999999998" type="curve" smooth="yes"/>
      <point x="0.9380000000000013" y="6.3950000000000005"/>
      <point x="9.430000000000001" y="-3.1"/>
      <point x="33.876999999999995" y="-3.1" type="curve" smooth="yes"/>
      <point x="71.901" y="-3.1"/>
      <point x="81.084" y="25.211"/>
      <point x="83.15400000000001" y="61.882" type="curve" smooth="yes"/>
      <point x="83.84400000000001" y="84.15"/>
      <point x="74.11" y="93.024"/>
      <point x="50.315" y="93.024" type="curve" smooth="yes"/>
      <point x="13.936" y="93.024"/>
      <point x="3.6980000000000013" y="65.116"/>
    </contour>
  </outline>
</glyph>
<glyph name="numbersign" format="2">
  <advance width="376.326"/>
  <unicode hex="0023"/>
  <outline>
    <contour>
      <point x="83.208" y="455.51800000000003" type="line"/>
      <point x="140.552" y="455.51800000000003" type="line"/>
      <point x="82.182" y="241.551" type="line"/>
      <point x="28.231" y="241.551" type="line"/>
      <point x="17.796999999999997" y="179.817" type="line"/>
      <point x="67.868" y="179.817" type="line"/>
      <point x="19.752000000000002" y="0.0" type="line"/>
      <point x="74.411" y="0.0" type="line"/>
      <point x="121.837" y="179.817" type="line"/>
      <point x="192.788" y="179.817" type="line"/>
      <point x="145.362" y="0.0" type="line"/>
      <point x="199.121" y="0.0" type="line"/>
      <point x="246.54700000000003" y="179.817" type="line"/>
      <point x="307.502" y="179.817" type="line"/>
      <point x="317.28400000000005" y="241.551" type="line"/>
      <point x="260.992" y="241.551" type="line"/>
      <point x="319.23100000000005" y="455.51800000000003" type="line"/>
      <point x="372.26099999999997" y="455.51800000000003" type="line"/>
      <point x="382.42199999999997" y="517.748" type="line"/>
      <point x="333.61400000000003" y="517.748" type="line"/>
      <point x="382.367" y="700.0" type="line"/>
      <point x="328.329" y="700.0" type="line"/>
      <point x="279.576" y="517.748" type="line"/>
      <point x="208.62500000000003" y="517.748" type="line"/>
      <point x="257.378" y="700.0" type="line"/>
      <point x="203.61900000000003" y="700.0" type="line"/>
      <point x="154.866" y="517.748" type="line"/>
      <point x="93.338" y="517.748" type="line"/>
    </contour>
    <contour>
      <point x="194.311" y="455.51800000000003" type="line"/>
      <point x="265.262" y="455.51800000000003" type="line"/>
      <point x="207.17100000000002" y="241.551" type="line"/>
      <point x="136.22" y="241.551" type="line"/>
    </contour>
  </outline>
</glyph>
<glyph name="dollar" format="2">
  <advance width="376.326"/>
  <unicode hex="0024"/>
  <outline>
    <contour>
      <point x="372.208" y="686.548" type="line"/>
      <point x="354.83500000000004" y="695.946"/>
      <point x="325.408" y="705.924"/>
      <point x="288.48" y="708.853" type="curve"/>
      <point x="303.58000000000004" y="804.442" type="line"/>
      <point x="244.66000000000003" y="804.442" type="line"/>
      <point x="228.171" y="704.543" type="line"/>
      <point x="131.27100000000002" y="690.6410000000001"/>
      <point x="82.56200000000001" y="599.306"/>
      <point x="82.56200000000001" y="515.196" type="curve" smooth="yes"/>
      <point x="82.56200000000001" y="356.56800000000004"/>
      <point x="246.17" y="295.30199999999996"/>
      <point x="246.17" y="180.74300000000002" type="curve" smooth="yes"/>
      <point x="246.17" y="113.664"/>
      <point x="200.11599999999999" y="55.997"/>
      <point x="130.501" y="55.997" type="curve" smooth="yes"/>
      <point x="90.46900000000001" y="55.997"/>
      <point x="50.379000000000005" y="64.903"/>
      <point x="19.624000000000002" y="79.93" type="curve"/>
      <point x="-5.583999999999999" y="18.175" type="line"/>
      <point x="18.179000000000002" y="5.906"/>
      <point x="57.008" y="-6.017"/>
      <point x="97.66099999999999" y="-8.295" type="curve"/>
      <point x="82.66099999999999" y="-105.0" type="line"/>
      <point x="141.55" y="-105.0" type="line"/>
      <point x="156.55" y="-6.6819999999999995" type="line"/>
      <point x="260.83" y="6.507000000000001"/>
      <point x="314.778" y="97.378"/>
      <point x="314.778" y="186.00799999999998" type="curve" smooth="yes"/>
      <point x="314.778" y="343.863"/>
      <point x="153.178" y="401.11099999999993"/>
      <point x="153.178" y="517.148" type="curve" smooth="yes"/>
      <point x="153.178" y="578.3120000000001"/>
      <point x="194.64600000000002" y="642.889"/>
      <point x="261.945" y="642.889" type="curve" smooth="yes"/>
      <point x="295.56" y="642.889"/>
      <point x="321.15299999999996" y="636.978"/>
      <point x="348.086" y="625.012" type="curve"/>
    </contour>
  </outline>
</glyph>
<glyph name="ampersand" format="2">
  <advance width="444.358"/>
  <unicode hex="0026"/>
  <outline>
    <contour>
      <point x="167.39700000000002" y="-10.0" type="curve" smooth="yes"/>
      <point x="294.514" y="-10.0"/>
      <point x="393.731" y="147.37199999999999"/>
      <point x="369.045" y="294.205" type="curve"/>
      <point x="313.473" y="292.46000000000004" type="line"/>
      <point x="341.19500000000005" y="180.842"/>
      <point x="259.021" y="52.39900000000001"/>
      <point x="177.04" y="52.39900000000001" type="curve" smooth="yes"/>
      <point x="112.72700000000002" y="52.39900000000001"/>
      <point x="80.092" y="93.908"/>
      <point x="80.092" y="163.302" type="curve" smooth="yes"/>
      <point x="80.092" y="288.16700000000003"/>
      <point x="161.509" y="382.84799999999996"/>
      <point x="264.96999999999997" y="382.84799999999996" type="curve" smooth="yes"/>
      <point x="278.476" y="382.84799999999996" type="line"/>
      <point x="289.422" y="432.513" type="line"/>
      <point x="277.84700000000004" y="433.753" type="line" smooth="yes"/>
      <point x="221.09099999999998" y="436.171"/>
      <point x="191.00199999999998" y="472.489"/>
      <point x="191.00199999999998" y="536.826" type="curve" smooth="yes"/>
      <point x="191.00199999999998" y="600.487"/>
      <point x="230.797" y="650.078"/>
      <point x="284.23" y="650.078" type="curve" smooth="yes"/>
      <point x="313.565" y="650.078"/>
      <point x="337.561" y="641.917"/>
      <point x="363.36199999999997" y="620.897" type="curve"/>
      <point x="394.617" y="673.649" type="line"/>
      <point x="361.868" y="697.1550000000001"/>
      <point x="324.455" y="710.0"/>
      <point x="280.258" y="710.0" type="curve" smooth="yes"/>
      <point x="187.28099999999998" y="710.0"/>
      <point x="126.704" y="634.1890000000001"/>
      <point x="126.704" y="543.1479999999999" type="curve" smooth="yes"/>
      <point x="126.704" y="480.171"/>
      <point x="152.68699999999998" y="435.43199999999996"/>
      <point x="198.731" y="412.58" type="curve"/>
      <point x="92.23100000000002" y="387.53999999999996"/>
      <point x="14.492" y="288.377"/>
      <point x="14.492" y="151.08700000000002" type="curve" smooth="yes"/>
      <point x="14.492" y="54.488"/>
      <point x="65.899" y="-10.0"/>
    </contour>
    <contour>
      <point x="249.6" y="247.04999999999998" type="line"/>
      <point x="253.31500000000003" y="272.31899999999996"/>
      <point x="266.493" y="285.778"/>
      <point x="289.40500000000003" y="285.778" type="curve" smooth="yes"/>
      <point x="323.789" y="285.778"/>
      <point x="347.272" y="274.65799999999996"/>
      <point x="385.113" y="274.65799999999996" type="curve" smooth="yes"/>
      <point x="429.755" y="274.65799999999996"/>
      <point x="458.99600000000004" y="311.823"/>
      <point x="458.168" y="355.85400000000004" type="curve"/>
      <point x="414.433" y="361.443" type="line"/>
      <point x="409.528" y="329.608"/>
      <point x="392.09600000000006" y="320.16100000000006"/>
      <point x="362.146" y="320.16100000000006" type="curve" smooth="yes"/>
      <point x="335.52" y="320.16100000000006"/>
      <point x="309.50800000000004" y="331.653"/>
      <point x="281.164" y="331.653" type="curve" smooth="yes"/>
      <point x="233.444" y="331.653"/>
      <point x="211.12300000000002" y="298.543"/>
      <point x="204.924" y="258.057" type="curve"/>
    </contour>
  </outline>
</glyph>
<glyph name="quotesingle" format="2">
  <advance width="142.583"/>
  <unicode hex="0027"/>
  <outline>
    <contour>
      <point x="67.26199999999999" y="427.0" type="line"/>
      <point x="121.864" y="427.0" type="line"/>
      <point x="170.72400000000002" y="700.0" type="line"/>
      <point x="105.85900000000001" y="700.0" type="line"/>
    </contour>
  </outline>
</glyph>
<glyph name="parenleft" format="2">
  <advance width="214.52300000000002"/>
  <unicode hex="0028"/>
  <outline>
    <contour>
      <point x="26.467999999999996" y="12.280000000000003" type="curve" smooth="yes"/>
      <point x="26.467999999999996" y="-111.876"/>
      <point x="55.892999999999994" y="-197.71099999999998"/>
      <point x="118.67399999999999" y="-220.0" type="curve"/>
      <point x="135.293" y="-159.78" type="line"/>
      <point x="103.656" y="-142.409"/>
      <point x="82.233" y="-80.30300000000001"/>
      <point x="82.233" y="18.472" type="curve" smooth="yes"/>
      <point x="82.233" y="186.559"/>
      <point x="158.975" y="640.451"/>
      <point x="268.124" y="687.0480000000001" type="curve"/>
      <point x="271.765" y="749.379" type="line"/>
      <point x="103.894" y="695.4139999999999"/>
      <point x="26.467999999999996" y="240.169"/>
    </contour>
  </outline>
</glyph>
<glyph name="parenright" format="2">
  <advance width="214.52300000000002"/>
  <unicode hex="0029"/>
  <outline>
    <contour>
      <point x="185.645" y="517.582" type="curve" smooth="yes"/>
      <point x="185.645" y="642.307"/>
      <point x="156.70299999999997" y="727.711"/>
      <point x="93.85300000000001" y="750.0" type="curve"/>
      <point x="78.476" y="687.6239999999999" type="line"/>
      <point x="112.04500000000002" y="666.389"/>
      <point x="129.88" y="608.147"/>
      <point x="129.88" y="519.308" type="curve" smooth="yes"/>
      <point x="129.88" y="345.49399999999997"/>
      <point x="53.0" y="-111.762"/>
      <point x="-56.769999999999996" y="-158.15200000000002" type="curve"/>
      <point x="-59.79" y="-220.0" type="line"/>
      <point x="104.286" y="-162.544"/>
      <point x="185.645" y="287.86400000000003"/>
    </contour>
  </outline>
</glyph>
<glyph name="asterisk" format="2">
  <advance width="245.506"/>
  <unicode hex="002A"/>
  <outline>
    <contour>
      <point x="88.704" y="396.15" type="line"/>
      <point x="155.512" y="482.06600000000003" type="line"/>
      <point x="193.86200000000002" y="396.771" type="line"/>
      <point x="226.177" y="418.413" type="line"/>
      <point x="193.382" y="512.6089999999999" type="line"/>
      <point x="280.593" y="555.724" type="line"/>
      <point x="274.368" y="591.526" type="line"/>
      <point x="188.545" y="558.566" type="line"/>
      <point x="202.74999999999997" y="670.069" type="line"/>
      <point x="166.927" y="670.069" type="line"/>
      <point x="145.71599999999998" y="559.187" type="line"/>
      <point x="70.936" y="592.147" type="line"/>
      <point x="53.712" y="556.966" type="line"/>
      <point x="125.47899999999998" y="513.8509999999999" type="line"/>
      <point x="62.381" y="418.551" type="line"/>
    </contour>
  </outline>
</glyph>
<glyph name="plus" format="2">
  <advance width="377.443"/>
  <unicode hex="002B"/>
  <outline>
    <contour>
      <point x="130.97299999999998" y="97.85400000000001" type="line"/>
      <point x="191.351" y="97.85400000000001" type="line"/>
      <point x="218.578" y="269.30400000000003" type="line"/>
      <point x="334.532" y="269.30400000000003" type="line"/>
      <point x="344.63100000000003" y="333.34" type="line"/>
      <point x="228.67700000000002" y="333.34" type="line"/>
      <point x="256.004" y="505.38" type="line"/>
      <point x="195.688" y="505.38" type="line"/>
      <point x="168.299" y="333.34" type="line"/>
      <point x="51.81699999999999" y="333.34" type="line"/>
      <point x="41.717999999999996" y="269.30400000000003" type="line"/>
      <point x="158.262" y="269.30400000000003" type="line"/>
    </contour>
  </outline>
</glyph>
<glyph name="comma" format="2">
  <advance width="135.236"/>
  <unicode hex="002C"/>
  <outline>
    <contour>
      <point x="1.3789999999999998" y="57.456" type="line"/>
      <point x="1.9660000000000004" y="39.275"/>
      <point x="0.8640000000000003" y="21.768000000000004"/>
      <point x="-0.09699999999999942" y="9.655999999999999" type="curve" smooth="yes"/>
      <point x="-3.0420000000000003" y="-51.883"/>
      <point x="-38.001" y="-136.201"/>
      <point x="-79.77399999999999" y="-174.201" type="curve"/>
      <point x="-36.760000000000005" y="-195.446" type="line"/>
      <point x="33.65" y="-135.063"/>
      <point x="65.355" y="-34.311"/>
      <point x="65.355" y="27.625999999999998" type="curve" smooth="yes"/>
      <point x="65.355" y="39.319"/>
      <point x="64.838" y="50.043000000000006"/>
      <point x="63.15800000000001" y="62.73400000000001" type="curve"/>
    </contour>
  </outline>
</glyph>
<glyph name="hyphen" format="2">
  <advance width="233.93400000000003"/>
  <unicode hex="002D"/>
  <outline>
    <contour>
      <point x="21.055" y="246.62800000000001" type="line"/>
      <point x="203.561" y="246.62800000000001" type="line"/>
      <point x="215.397" y="314.73199999999997" type="line"/>
      <point x="32.891000000000005" y="314.73199999999997" type="line"/>
    </contour>
  </outline>
</glyph>
<glyph name="period" format="2">
  <advance width="135.639"/>
  <unicode hex="002E"/>
  <outline>
    <contour>
      <point x="-9.216000000000001" y="28.879" type="curve" smooth="yes"/>
      <point x="-9.905999999999999" y="6.953"/>
      <point x="-1.6929999999999992" y="-2.263"/>
      <point x="23.033" y="-2.263" type="curve" smooth="yes"/>
      <point x="61.057" y="-2.263"/>
      <point x="69.961" y="26.048"/>
      <point x="72.031" y="63.277" type="curve" smooth="yes"/>
      <point x="72.721" y="85.266"/>
      <point x="63.266" y="93.861"/>
      <point x="39.471" y="93.861" type="curve" smooth="yes"/>
      <point x="2.813" y="93.861"/>
      <point x="-7.146" y="65.953"/>
    </contour>
  </outline>
</glyph>
<glyph name="slash" format="2">
  <advance width="269.425"/>
  <unicode hex="002F"/>
  <outline>
    <contour>
      <point x="-71.959" y="-210.0" type="line"/>
      <point x="-14.033999999999999" y="-210.0" type="line"/>
      <point x="338.384" y="740.0" type="line"/>
      <point x="279.87" y="740.0" type="line"/>
    </contour>
  </outline>
</glyph>
<glyph name="zero" format="2">
  <advance width="376.512"/>
  <unicode hex="0030"/>
  <outline>
    <contour>
      <point x="148.344" y="-10.31" type="curve" smooth="yes"/>
      <point x="311.564" y="-10.31"/>
      <point x="380.72499999999997" y="323.76699999999994"/>
      <point x="380.72499999999997" y="530.1750000000001" type="curve" smooth="yes"/>
      <point x="380.72499999999997" y="658.2760000000001"/>
      <point x="340.82599999999996" y="710.155"/>
      <point x="251.446" y="710.155" type="curve" smooth="yes"/>
      <point x="86.79299999999999" y="710.155"/>
      <point x="18.948" y="376.309"/>
      <point x="18.948" y="170.831" type="curve" smooth="yes"/>
      <point x="18.948" y="42.885"/>
      <point x="59.04" y="-10.31"/>
    </contour>
    <contour>
      <point x="155.16400000000002" y="56.584999999999994" type="curve" smooth="yes"/>
      <point x="105.716" y="56.584999999999994"/>
      <point x="85.811" y="90.39999999999999"/>
      <point x="86.618" y="170.799" type="curve" smooth="yes"/>
      <point x="87.76700000000001" y="329.664"/>
      <point x="144.569" y="643.4150000000001"/>
      <point x="244.626" y="643.4150000000001" type="curve" smooth="yes"/>
      <point x="294.15000000000003" y="643.4150000000001"/>
      <point x="313.862" y="609.9860000000001"/>
      <point x="313.055" y="529.587" type="curve" smooth="yes"/>
      <point x="311.90599999999995" y="371.07"/>
      <point x="254.873" y="56.584999999999994"/>
    </contour>
  </outline>
</glyph>
<glyph name="one" format="2">
  <advance width="376.326"/>
  <unicode hex="0031"/>
  <outline>
    <contour>
      <point x="9.492" y="0.0" type="line"/>
      <point x="306.339" y="0.0" type="line"/>
      <point x="316.686" y="64.571" type="line"/>
      <point x="206.26300000000003" y="64.571" type="line"/>
      <point x="307.73600000000005" y="700.69" type="line"/>
      <point x="273.393" y="700.69" type="line"/>
      <point x="86.686" y="592.732" type="line"/>
      <point x="94.412" y="524.888" type="line"/>
      <point x="225.345" y="607.139" type="line"/>
      <point x="138.941" y="64.571" type="line"/>
      <point x="19.56" y="64.571" type="line"/>
    </contour>
  </outline>
</glyph>
<glyph name="two" format="2">
  <advance width="376.512"/>
  <unicode hex="0032"/>
  <outline>
    <contour>
      <point x="14.806000000000001" y="52.959999999999994" type="curve"/>
      <point x="9.6" y="0.0" type="line"/>
      <point x="294.168" y="0.0" type="line"/>
      <point x="303.719" y="59.765" type="line"/>
      <point x="96.074" y="59.765" type="line"/>
      <point x="249.536" y="273.92099999999994"/>
      <point x="349.228" y="436.126"/>
      <point x="349.228" y="579.637" type="curve" smooth="yes"/>
      <point x="349.228" y="660.443"/>
      <point x="307.519" y="710.0"/>
      <point x="237.86799999999997" y="710.0" type="curve" smooth="yes"/>
      <point x="185.52700000000002" y="710.0"/>
      <point x="136.598" y="690.7919999999999"/>
      <point x="95.62300000000002" y="653.7539999999999" type="curve"/>
      <point x="113.49300000000001" y="596.2339999999999" type="line"/>
      <point x="149.24400000000003" y="626.1889999999999"/>
      <point x="179.113" y="640.5459999999999"/>
      <point x="214.29099999999997" y="640.5459999999999" type="curve" smooth="yes"/>
      <point x="255.58200000000002" y="640.5459999999999"/>
      <point x="279.69800000000004" y="609.895"/>
      <point x="279.69800000000004" y="559.8860000000001" type="curve" smooth="yes"/>
      <point x="279.356" y="442.30899999999997"/>
      <point x="187.073" y="287.815"/>
    </contour>
  </outline>
</glyph>
<glyph name="three" format="2">
  <advance width="376.54999999999995"/>
  <unicode hex="0033"/>
  <outline>
    <contour>
      <point x="-13.92" y="38.4225" type="line"/>
      <point x="17.755000000000003" y="7.215"/>
      <point x="61.96" y="-10.0"/>
      <point x="120.3925" y="-10.0" type="curve" smooth="yes"/>
      <point x="230.905" y="-10.0"/>
      <point x="319.5025" y="87.61500000000001"/>
      <point x="319.5025" y="242.07750000000001" type="curve" smooth="yes"/>
      <point x="319.5025" y="317.5025"/>
      <point x="290.2825" y="357.14250000000004"/>
      <point x="253.82500000000002" y="370.69" type="curve"/>
      <point x="307.53249999999997" y="398.1375"/>
      <point x="353.44749999999993" y="468.965"/>
      <point x="353.44749999999993" y="568.4975" type="curve" smooth="yes"/>
      <point x="353.44749999999993" y="655.24"/>
      <point x="307.68750000000006" y="710.0"/>
      <point x="225.5725" y="710.0" type="curve" smooth="yes"/>
      <point x="181.035" y="710.0"/>
      <point x="130.63" y="694.6925000000001"/>
      <point x="95.90500000000002" y="668.7075" type="curve"/>
      <point x="112.3725" y="613.0025" type="line"/>
      <point x="139.5225" y="631.3675000000001"/>
      <point x="170.54" y="640.7025"/>
      <point x="203.77750000000003" y="640.7025" type="curve" smooth="yes"/>
      <point x="253.0425" y="640.7025"/>
      <point x="283.84000000000003" y="601.2600000000001"/>
      <point x="283.84000000000003" y="543.3425000000001" type="curve" smooth="yes"/>
      <point x="283.84000000000003" y="464.36"/>
      <point x="240.305" y="391.64"/>
      <point x="182.42249999999999" y="391.64" type="curve" smooth="yes"/>
      <point x="129.325" y="391.64" type="line"/>
      <point x="120.0475" y="336.13" type="line"/>
      <point x="181.825" y="336.13" type="line" smooth="yes"/>
      <point x="228.6025" y="336.13"/>
      <point x="252.9075" y="302.815"/>
      <point x="252.9075" y="241.01250000000002" type="curve" smooth="yes"/>
      <point x="252.9075" y="134.92000000000002"/>
      <point x="201.46499999999997" y="57.5925"/>
      <point x="122.125" y="57.5925" type="curve" smooth="yes"/>
      <point x="79.62" y="57.5925"/>
      <point x="47.9975" y="69.4225"/>
      <point x="20.437499999999996" y="93.70250000000001" type="curve"/>
    </contour>
  </outline>
</glyph>
<glyph name="four" format="2">
  <advance width="376.54999999999995"/>
  <unicode hex="0034"/>
  <outline>
    <contour>
      <point x="11.715" y="158.60750000000002" type="line"/>
      <point x="199.9325" y="158.60750000000002" type="line"/>
      <point x="174.935" y="-0.44000000000000006" type="line"/>
      <point x="244.69750000000002" y="-0.44000000000000006" type="line"/>
      <point x="269.59999999999997" y="158.60750000000002" type="line"/>
      <point x="336.53499999999997" y="158.60750000000002" type="line"/>
      <point x="345.89" y="219.14" type="line"/>
      <point x="279.3425" y="219.14" type="line"/>
      <point x="355.705" y="699.0424999999999" type="line"/>
      <point x="286.7675" y="702.76" type="line"/>
      <point x="17.025" y="215.7525" type="line"/>
    </contour>
    <contour>
      <point x="69.9125" y="219.14" type="line"/>
      <point x="270.1225" y="579.94" type="line"/>
      <point x="211.84500000000003" y="219.14" type="line"/>
    </contour>
  </outline>
</glyph>
<glyph name="five" format="2">
  <advance width="376.512"/>
  <unicode hex="0035"/>
  <outline>
    <contour>
      <point x="-4.716" y="39.009499999999996" type="line"/>
      <point x="25.098000000000006" y="6.984999999999999"/>
      <point x="64.2085" y="-10.0"/>
      <point x="119.7305" y="-10.0" type="curve" smooth="yes"/>
      <point x="273.68050000000005" y="-10.0"/>
      <point x="327.3495" y="148.12249999999997"/>
      <point x="327.3495" y="261.3915" type="curve" smooth="yes"/>
      <point x="327.3495" y="349.886"/>
      <point x="289.3105" y="397.187"/>
      <point x="214.6665" y="398.58199999999994" type="curve" smooth="yes"/>
      <point x="144.13750000000002" y="399.047" type="line"/>
      <point x="194.815" y="631.7555000000001" type="line"/>
      <point x="363.765" y="631.7555000000001" type="line"/>
      <point x="374.16549999999995" y="700.0" type="line"/>
      <point x="151.21599999999998" y="700.0" type="line"/>
      <point x="71.059" y="347.80949999999996" type="line"/>
      <point x="78.74300000000001" y="336.38249999999994" type="line"/>
      <point x="177.64699999999996" y="336.38249999999994" type="line" smooth="yes"/>
      <point x="235.28900000000002" y="336.38249999999994"/>
      <point x="257.046" y="303.48650000000004"/>
      <point x="257.046" y="244.01749999999998" type="curve" smooth="yes"/>
      <point x="257.046" y="176.414"/>
      <point x="222.75499999999997" y="57.67"/>
      <point x="120.9405" y="57.67" type="curve" smooth="yes"/>
      <point x="75.9875" y="57.67"/>
      <point x="46.167" y="76.18400000000001"/>
      <point x="24.921000000000003" y="96.885" type="curve"/>
    </contour>
  </outline>
</glyph>
<glyph name="six" format="2">
  <advance width="376.55"/>
  <unicode hex="0036"/>
  <note>
14
</note>
  <outline>
    <contour>
      <point x="161.565" y="-10.0" type="curve" smooth="yes"/>
      <point x="269.39500000000004" y="-10.0"/>
      <point x="343.73" y="107.35"/>
      <point x="343.73" y="277.21500000000003" type="curve" smooth="yes"/>
      <point x="343.73" y="374.495"/>
      <point x="297.515" y="420.96"/>
      <point x="227.67" y="420.96" type="curve" smooth="yes"/>
      <point x="177.995" y="420.96"/>
      <point x="129.31" y="393.695"/>
      <point x="93.44" y="333.49" type="curve"/>
      <point x="86.36500000000001" y="246.615" type="line"/>
      <point x="113.025" y="314.23499999999996"/>
      <point x="157.88500000000002" y="361.03999999999996"/>
      <point x="206.1" y="361.03999999999996" type="curve" smooth="yes"/>
      <point x="254.275" y="361.03999999999996"/>
      <point x="276.54999999999995" y="326.625"/>
      <point x="276.54999999999995" y="261.29" type="curve" smooth="yes"/>
      <point x="276.54999999999995" y="150.035"/>
      <point x="228.045" y="52.425000000000004"/>
      <point x="165.725" y="52.425000000000004" type="curve" smooth="yes"/>
      <point x="116.495" y="52.425000000000004"/>
      <point x="89.815" y="91.37"/>
      <point x="89.815" y="166.48" type="curve" smooth="yes"/>
      <point x="89.815" y="289.17"/>
      <point x="114.70000000000002" y="412.095"/>
      <point x="154.975" y="514.18" type="curve" smooth="yes"/>
      <point x="187.11" y="595.015"/>
      <point x="231.71" y="644.345"/>
      <point x="293.70500000000004" y="644.345" type="curve" smooth="yes"/>
      <point x="322.12" y="644.345"/>
      <point x="346.99" y="634.915"/>
      <point x="371.72499999999997" y="619.335" type="curve"/>
      <point x="401.36" y="676.995" type="line"/>
      <point x="374.46000000000004" y="696.5999999999999"/>
      <point x="338.04" y="710.0"/>
      <point x="291.835" y="710.0" type="curve" smooth="yes"/>
      <point x="124.33" y="710.0"/>
      <point x="24.47" y="456.74"/>
      <point x="24.47" y="170.29" type="curve" smooth="yes"/>
      <point x="24.47" y="46.085"/>
      <point x="72.365" y="-10.0"/>
    </contour>
  </outline>
</glyph>
<glyph name="seven" format="2">
  <advance width="376.326"/>
  <unicode hex="0037"/>
  <note>
9
</note>
  <outline>
    <contour>
      <point x="68.353" y="0.0" type="curve"/>
      <point x="139.33700000000002" y="0.0" type="line"/>
      <point x="159.19100000000003" y="117.093"/>
      <point x="189.112" y="218.58700000000002"/>
      <point x="276.07099999999997" y="404.90099999999995" type="curve" smooth="yes"/>
      <point x="389.07900000000006" y="647.095" type="line"/>
      <point x="397.62800000000004" y="700.0" type="line"/>
      <point x="95.52900000000001" y="700.0" type="line"/>
      <point x="84.903" y="632.353" type="line"/>
      <point x="313.16700000000003" y="632.353" type="line"/>
      <point x="211.562" y="422.045" type="line" smooth="yes"/>
      <point x="130.23399999999998" y="254.08700000000002"/>
      <point x="90.70500000000001" y="140.44499999999996"/>
    </contour>
  </outline>
</glyph>
<glyph name="eight" format="2">
  <advance width="376.55"/>
  <unicode hex="0038"/>
  <outline>
    <contour>
      <point x="158.555" y="-10.0" type="curve" smooth="yes"/>
      <point x="272.78499999999997" y="-10.0"/>
      <point x="338.97499999999997" y="73.0"/>
      <point x="338.97499999999997" y="196.355" type="curve" smooth="yes"/>
      <point x="338.97499999999997" y="377.015"/>
      <point x="141.67" y="385.29"/>
      <point x="141.67" y="533.8399999999999" type="curve" smooth="yes"/>
      <point x="141.67" y="599.9499999999999"/>
      <point x="176.27999999999997" y="647.2900000000001"/>
      <point x="238.875" y="647.2900000000001" type="curve" smooth="yes"/>
      <point x="292.7" y="647.2900000000001"/>
      <point x="313.89" y="613.04"/>
      <point x="313.89" y="560.8100000000001" type="curve" smooth="yes"/>
      <point x="313.89" y="482.98"/>
      <point x="276.90500000000003" y="426.91499999999996"/>
      <point x="213.795" y="386.73" type="curve"/>
      <point x="251.75000000000003" y="352.515" type="line"/>
      <point x="329.31" y="400.38"/>
      <point x="377.84" y="474.37"/>
      <point x="377.84" y="573.985" type="curve" smooth="yes"/>
      <point x="377.84" y="651.63"/>
      <point x="338.07" y="710.0"/>
      <point x="241.175" y="710.0" type="curve" smooth="yes"/>
      <point x="133.20999999999998" y="710.0"/>
      <point x="74.92999999999999" y="632.415"/>
      <point x="74.92999999999999" y="523.9050000000001" type="curve" smooth="yes"/>
      <point x="74.92999999999999" y="338.96999999999997"/>
      <point x="271.305" y="342.73499999999996"/>
      <point x="271.305" y="184.84" type="curve" smooth="yes"/>
      <point x="271.305" y="106.24"/>
      <point x="231.05" y="50.54"/>
      <point x="162.965" y="50.54" type="curve" smooth="yes"/>
      <point x="101.605" y="50.54"/>
      <point x="71.88" y="86.10999999999999"/>
      <point x="71.88" y="148.14499999999998" type="curve" smooth="yes"/>
      <point x="71.88" y="236.35999999999999"/>
      <point x="112.36000000000001" y="307.56"/>
      <point x="185.505" y="344.03" type="curve"/>
      <point x="145.31000000000003" y="382.355" type="line"/>
      <point x="54.01" y="337.15500000000003"/>
      <point x="3.3049999999999997" y="243.48000000000002"/>
      <point x="3.3049999999999997" y="137.72" type="curve" smooth="yes"/>
      <point x="3.3049999999999997" y="47.464999999999996"/>
      <point x="49.655" y="-10.0"/>
    </contour>
  </outline>
</glyph>
<glyph name="nine" format="2">
  <advance width="376.55"/>
  <unicode hex="0039"/>
  <outline>
    <contour>
      <point x="238.845" y="710.0" type="curve" smooth="yes"/>
      <point x="131.015" y="710.0"/>
      <point x="56.215" y="592.65"/>
      <point x="56.215" y="422.78499999999997" type="curve" smooth="yes"/>
      <point x="56.215" y="325.505"/>
      <point x="101.035" y="279.505"/>
      <point x="170.415" y="279.505" type="curve" smooth="yes"/>
      <point x="220.555" y="279.505"/>
      <point x="271.1" y="304.90999999999997"/>
      <point x="306.505" y="371.15999999999997" type="curve"/>
      <point x="313.58000000000004" y="453.85" type="line"/>
      <point x="287.385" y="386.22999999999996"/>
      <point x="242.06" y="339.425"/>
      <point x="193.845" y="339.425" type="curve" smooth="yes"/>
      <point x="146.13500000000002" y="339.425"/>
      <point x="123.86" y="373.375"/>
      <point x="123.86" y="438.71" type="curve" smooth="yes"/>
      <point x="123.86" y="550.43"/>
      <point x="172.36499999999998" y="647.575"/>
      <point x="234.22" y="647.575" type="curve" smooth="yes"/>
      <point x="282.98499999999996" y="647.575"/>
      <point x="310.13" y="608.63"/>
      <point x="310.13" y="533.985" type="curve" smooth="yes"/>
      <point x="310.13" y="415.47999999999996"/>
      <point x="286.17499999999995" y="287.905"/>
      <point x="245.435" y="185.355" type="curve" smooth="yes"/>
      <point x="213.765" y="104.52"/>
      <point x="169.63" y="55.19"/>
      <point x="109.99000000000001" y="55.19" type="curve" smooth="yes"/>
      <point x="82.04" y="55.19"/>
      <point x="53.705" y="64.8"/>
      <point x="28.22" y="86.30499999999999" type="curve"/>
      <point x="-1.4149999999999998" y="28.18" type="line"/>
      <point x="26.7" y="3.115"/>
      <point x="66.11999999999999" y="-10.0"/>
      <point x="113.255" y="-10.0" type="curve" smooth="yes"/>
      <point x="274.475" y="-10.0"/>
      <point x="375.475" y="243.26000000000002"/>
      <point x="375.475" y="530.175" type="curve" smooth="yes"/>
      <point x="375.475" y="654.38"/>
      <point x="327.58" y="710.0"/>
    </contour>
  </outline>
</glyph>
<glyph name="less" format="2">
  <advance width="376.73799999999994"/>
  <unicode hex="003C"/>
  <outline>
    <contour>
      <point x="310.95899999999995" y="90.813" type="line"/>
      <point x="320.221" y="152.145" type="line"/>
      <point x="99.32499999999999" y="296.316" type="line"/>
      <point x="366.444" y="441.356" type="line"/>
      <point x="375.706" y="503.782" type="line"/>
      <point x="46.084" y="331.337" type="line"/>
      <point x="35.333" y="264.151" type="line"/>
    </contour>
  </outline>
</glyph>
<glyph name="equal" format="2">
  <advance width="366.377"/>
  <unicode hex="003D"/>
  <outline>
    <contour>
      <point x="315.115" y="223.474" type="line"/>
      <point x="35.135" y="223.474" type="line"/>
      <point x="25.594000000000005" y="158.81699999999998" type="line"/>
      <point x="305.574" y="158.81699999999998" type="line"/>
    </contour>
    <contour>
      <point x="347.11500000000007" y="436.195" type="line"/>
      <point x="67.38300000000001" y="436.195" type="line"/>
      <point x="57.594" y="371.538" type="line"/>
      <point x="337.574" y="371.538" type="line"/>
    </contour>
  </outline>
</glyph>
<glyph name="greater" format="2">
  <advance width="376.73799999999994"/>
  <unicode hex="003E"/>
  <outline>
    <contour>
      <point x="338.19" y="262.288" type="line"/>
      <point x="348.87899999999996" y="329.00899999999996" type="line"/>
      <point x="72.97299999999998" y="502.23" type="line"/>
      <point x="63.649" y="441.425" type="line"/>
      <point x="285.476" y="296.93699999999995" type="line"/>
      <point x="18.108999999999998" y="152.835" type="line"/>
      <point x="8.194999999999999" y="89.57100000000001" type="line"/>
    </contour>
  </outline>
</glyph>
<glyph name="question" format="2">
  <advance width="300.435"/>
  <unicode hex="003F"/>
  <outline>
    <contour>
      <point x="102.145" y="262.553" type="line"/>
      <point x="161.282" y="262.553" type="line"/>
      <point x="173.151" y="336.96599999999995" type="line"/>
      <point x="265.30800000000005" y="411.01200000000006"/>
      <point x="332.123" y="477.27699999999993"/>
      <point x="332.123" y="611.028" type="curve" smooth="yes"/>
      <point x="332.123" y="701.995"/>
      <point x="282.526" y="750.0"/>
      <point x="211.555" y="750.0" type="curve" smooth="yes"/>
      <point x="166.01899999999998" y="750.0"/>
      <point x="115.38" y="728.7270000000001"/>
      <point x="75.30399999999999" y="693.535" type="curve"/>
      <point x="92.03999999999999" y="632.9979999999999" type="line"/>
      <point x="127.609" y="662.762"/>
      <point x="160.20399999999998" y="677.663"/>
      <point x="192.497" y="677.663" type="curve" smooth="yes"/>
      <point x="230.98100000000002" y="677.663"/>
      <point x="260.28499999999997" y="652.8960000000001"/>
      <point x="260.28499999999997" y="593.196" type="curve" smooth="yes"/>
      <point x="260.28499999999997" y="498.354"/>
      <point x="216.69899999999998" y="439.13800000000003"/>
      <point x="117.93599999999999" y="369.82300000000004" type="curve"/>
    </contour>
    <contour>
      <point x="57.901" y="27.587" type="curve" smooth="yes"/>
      <point x="57.59" y="5.806"/>
      <point x="65.493" y="-3.1"/>
      <point x="89.59200000000001" y="-3.1" type="curve" smooth="yes"/>
      <point x="127.788" y="-3.1"/>
      <point x="138.246" y="24.095"/>
      <point x="139.179" y="61.431000000000004" type="curve" smooth="yes"/>
      <point x="139.49" y="84.15"/>
      <point x="130.314" y="92.714"/>
      <point x="107.17699999999999" y="92.714" type="curve" smooth="yes"/>
      <point x="70.09900000000002" y="92.714"/>
      <point x="58.834" y="65.426"/>
    </contour>
  </outline>
</glyph>
<glyph name="at" format="2">
  <advance width="556.245"/>
  <unicode hex="0040"/>
  <outline>
    <contour>
      <point x="217.6" y="-123.405" type="curve" smooth="yes"/>
      <point x="270.475" y="-123.405"/>
      <point x="326.54999999999995" y="-101.565"/>
      <point x="364.055" y="-60.615" type="curve"/>
      <point x="349.47" y="-33.775" type="line"/>
      <point x="313.745" y="-68.69"/>
      <point x="268.99" y="-87.16"/>
      <point x="219.54000000000002" y="-87.16" type="curve" smooth="yes"/>
      <point x="117.16" y="-87.16"/>
      <point x="51.93" y="-18.66"/>
      <point x="51.93" y="129.035" type="curve" smooth="yes"/>
      <point x="51.93" y="407.8"/>
      <point x="178.79500000000002" y="676.04"/>
      <point x="358.29" y="676.04" type="curve" smooth="yes"/>
      <point x="461.355" y="676.04"/>
      <point x="520.12" y="624.0899999999999"/>
      <point x="520.12" y="486.89000000000004" type="curve" smooth="yes"/>
      <point x="520.12" y="324.68"/>
      <point x="462.805" y="105.69500000000001"/>
      <point x="395.545" y="105.69500000000001" type="curve" smooth="yes"/>
      <point x="357.79" y="105.69500000000001"/>
      <point x="363.115" y="165.32999999999998"/>
      <point x="372.915" y="208.43" type="curve" smooth="yes"/>
      <point x="445.32" y="522.3000000000001" type="line"/>
      <point x="409.15500000000003" y="538.8549999999999"/>
      <point x="376.71999999999997" y="546.98"/>
      <point x="338.65" y="546.98" type="curve" smooth="yes"/>
      <point x="219.16" y="546.98"/>
      <point x="132.98499999999999" y="320.175"/>
      <point x="132.98499999999999" y="154.29500000000002" type="curve" smooth="yes"/>
      <point x="132.98499999999999" y="91.015"/>
      <point x="160.59" y="60.315"/>
      <point x="205.415" y="60.315" type="curve" smooth="yes"/>
      <point x="247.4" y="60.315"/>
      <point x="286.795" y="90.4"/>
      <point x="315.35999999999996" y="145.745" type="curve"/>
      <point x="320.42" y="111.33999999999999"/>
      <point x="327.315" y="58.669999999999995"/>
      <point x="384.23999999999995" y="58.669999999999995" type="curve" smooth="yes"/>
      <point x="487.72999999999996" y="58.669999999999995"/>
      <point x="558.76" y="305.02000000000004"/>
      <point x="558.76" y="494.775" type="curve" smooth="yes"/>
      <point x="558.76" y="641.5999999999999"/>
      <point x="481.65" y="712.76"/>
      <point x="364.465" y="712.76" type="curve" smooth="yes"/>
      <point x="155.19" y="712.76"/>
      <point x="12.765" y="434.985"/>
      <point x="12.765" y="118.72" type="curve" smooth="yes"/>
      <point x="12.765" y="-37.05"/>
      <point x="86.845" y="-123.405"/>
    </contour>
    <contour>
      <point x="234.705" y="123.11" type="curve" smooth="yes"/>
      <point x="212.14" y="123.11"/>
      <point x="199.905" y="140.64000000000001"/>
      <point x="199.905" y="174.46" type="curve" smooth="yes"/>
      <point x="199.905" y="300.63500000000005"/>
      <point x="275.11" y="495.08"/>
      <point x="333.37" y="495.08" type="curve" smooth="yes"/>
      <point x="348.295" y="495.08"/>
      <point x="363.14500000000004" y="492.295"/>
      <point x="377.77" y="485.975" type="curve"/>
      <point x="318.31" y="231.45" type="line" smooth="yes"/>
      <point x="299.235" y="163.265"/>
      <point x="264.18" y="123.11"/>
    </contour>
  </outline>
</glyph>
<glyph name="A" format="2">
  <advance width="380.5975"/>
  <unicode hex="0041"/>
  <anchor x="144.76749999999998" y="0.0" name="bottom"/>
  <anchor x="322.52250000000004" y="0.0" name="ogonek"/>
  <anchor x="252.985" y="700.0" name="top"/>
  <outline>
    <contour>
      <point x="-29.924999999999997" y="0.0" type="line"/>
      <point x="40.957499999999996" y="0.0" type="line"/>
      <point x="103.04499999999999" y="182.3275" type="line"/>
      <point x="246.4975" y="182.3275" type="line"/>
      <point x="251.27" y="0.0" type="line"/>
      <point x="322.52250000000004" y="0.0" type="line"/>
      <point x="301.61499999999995" y="707.2099999999999" type="line"/>
      <point x="208.07999999999998" y="707.2099999999999" type="line"/>
    </contour>
    <contour>
      <point x="121.11" y="246.04500000000002" type="line"/>
      <point x="242.42" y="624.9" type="line"/>
      <point x="249.00250000000003" y="246.04500000000002" type="line"/>
    </contour>
  </outline>
</glyph>
<glyph name="B" format="2">
  <advance width="371.605"/>
  <unicode hex="0042"/>
  <outline>
    <contour>
      <point x="0.9110000000000016" y="-1.8309999999999997" type="line"/>
      <point x="54.084" y="-7.825"/>
      <point x="83.337" y="-10.0"/>
      <point x="128.448" y="-10.0" type="curve" smooth="yes"/>
      <point x="273.919" y="-10.0"/>
      <point x="341.259" y="117.94500000000001"/>
      <point x="341.259" y="241.378" type="curve" smooth="yes"/>
      <point x="341.259" y="309.62"/>
      <point x="312.644" y="351.979"/>
      <point x="269.632" y="367.062" type="curve"/>
      <point x="341.159" y="399.834"/>
      <point x="375.944" y="502.129"/>
      <point x="375.944" y="582.71" type="curve" smooth="yes"/>
      <point x="375.944" y="665.651"/>
      <point x="332.826" y="710.0"/>
      <point x="235.487" y="710.0" type="curve" smooth="yes"/>
      <point x="207.51500000000001" y="710.0"/>
      <point x="167.729" y="707.521"/>
      <point x="111.68100000000001" y="700.589" type="curve"/>
    </contour>
    <contour>
      <point x="129.596" y="383.91400000000004" type="line"/>
      <point x="170.369" y="643.717" type="line"/>
      <point x="192.205" y="646.7139999999999"/>
      <point x="211.02900000000002" y="648.507"/>
      <point x="230.77100000000002" y="648.507" type="curve" smooth="yes"/>
      <point x="284.449" y="648.507"/>
      <point x="310.468" y="625.232"/>
      <point x="310.468" y="563.32" type="curve" smooth="yes"/>
      <point x="310.468" y="481.66499999999996"/>
      <point x="264.81999999999994" y="383.91400000000004"/>
      <point x="199.31300000000002" y="383.91400000000004" type="curve" smooth="yes"/>
    </contour>
    <contour>
      <point x="120.148" y="324.59000000000003" type="line"/>
      <point x="199.741" y="324.59000000000003" type="line" smooth="yes"/>
      <point x="240.44600000000003" y="324.59000000000003"/>
      <point x="273.682" y="294.0570000000001"/>
      <point x="273.682" y="232.73600000000002" type="curve" smooth="yes"/>
      <point x="273.682" y="137.823"/>
      <point x="228.726" y="51.966"/>
      <point x="137.35700000000003" y="51.966" type="curve" smooth="yes"/>
      <point x="117.415" y="51.966"/>
      <point x="100.75" y="53.201"/>
      <point x="77.378" y="55.794000000000004" type="curve"/>
    </contour>
  </outline>
</glyph>
<glyph name="C" format="2">
  <advance width="341.929"/>
  <unicode hex="0043"/>
  <anchor x="184.70150000000004" y="0.0" name="bottom"/>
  <anchor x="285.56550000000004" y="700.0" name="top"/>
  <outline>
    <contour>
      <point x="198.71700000000004" y="-10.0" type="curve" smooth="yes"/>
      <point x="235.61950000000002" y="-10.0"/>
      <point x="265.8685" y="-5.693"/>
      <point x="291.5215" y="3.5090000000000003" type="curve"/>
      <point x="286.251" y="64.064" type="line"/>
      <point x="265.0535" y="57.915000000000006"/>
      <point x="239.5565" y="54.1825"/>
      <point x="212.58050000000003" y="54.1825" type="curve" smooth="yes"/>
      <point x="136.23000000000002" y="54.1825"/>
      <point x="97.605" y="96.44800000000001"/>
      <point x="97.605" y="204.364" type="curve" smooth="yes"/>
      <point x="97.605" y="448.9775"/>
      <point x="174.845" y="645.8175000000001"/>
      <point x="289.603" y="645.8175000000001" type="curve" smooth="yes"/>
      <point x="316.1015" y="645.8175000000001"/>
      <point x="339.5225" y="641.5074999999999"/>
      <point x="367.3175" y="632.6595" type="curve"/>
      <point x="388.307" y="691.2694999999999" type="line"/>
      <point x="359.8925" y="704.2949999999998"/>
      <point x="325.41599999999994" y="710.0"/>
      <point x="287.99100000000004" y="710.0" type="curve" smooth="yes"/>
      <point x="131.465" y="710.0"/>
      <point x="28.54" y="498.18"/>
      <point x="28.54" y="194.02450000000002" type="curve" smooth="yes"/>
      <point x="28.54" y="53.2685"/>
      <point x="85.159" y="-10.0"/>
    </contour>
  </outline>
</glyph>
<glyph name="D" format="2">
  <advance width="399.1544999999999"/>
  <unicode hex="0044"/>
  <anchor x="143.58450000000002" y="0.0" name="bottom"/>
  <anchor x="208.23286749999994" y="350.0" name="center"/>
  <anchor x="239.6045" y="700.0" name="top"/>
  <outline>
    <contour>
      <point x="119.77850000000001" y="-10.0" type="curve" smooth="yes"/>
      <point x="288.213" y="-10.0"/>
      <point x="390.3105" y="189.821"/>
      <point x="390.3105" y="466.3055" type="curve" smooth="yes"/>
      <point x="390.3105" y="639.3664999999999"/>
      <point x="330.37800000000004" y="710.0"/>
      <point x="214.574" y="710.0" type="curve" smooth="yes"/>
      <point x="180.43499999999997" y="710.0"/>
      <point x="150.48450000000003" y="708.149"/>
      <point x="111.63450000000002" y="703.7115" type="curve"/>
      <point x="0.13750000000000057" y="-2.2844999999999995" type="line"/>
      <point x="38.626000000000005" y="-7.6049999999999995"/>
      <point x="72.91950000000001" y="-10.0"/>
    </contour>
    <contour>
      <point x="128.25650000000005" y="49.701" type="curve" smooth="yes"/>
      <point x="108.4415" y="49.701"/>
      <point x="94.47149999999999" y="50.894"/>
      <point x="76.2005" y="52.851499999999994" type="curve"/>
      <point x="170.21400000000003" y="644.2824999999998" type="line"/>
      <point x="184.61250000000004" y="645.6275"/>
      <point x="201.04149999999998" y="646.3600000000001"/>
      <point x="217.44150000000002" y="646.3600000000001" type="curve" smooth="yes"/>
      <point x="284.00550000000004" y="646.3600000000001"/>
      <point x="322.37" y="598.0809999999999"/>
      <point x="322.37" y="465.0805000000001" type="curve" smooth="yes"/>
      <point x="322.37" y="241.58149999999998"/>
      <point x="237.9945" y="49.701"/>
    </contour>
  </outline>
</glyph>
<glyph name="E" format="2">
  <advance width="327.39050000000003"/>
  <unicode hex="0045"/>
  <anchor x="136.894" y="0.0" name="bottom"/>
  <anchor x="268.319" y="0.0" name="ogonek"/>
  <anchor x="242.055" y="700.0" name="top"/>
  <anchor x="87.83877249999999" y="700.0" name="topleft"/>
  <outline>
    <contour>
      <point x="0.712" y="0.0" type="line"/>
      <point x="268.319" y="0.0" type="line"/>
      <point x="278.604" y="64.33749999999999" type="line"/>
      <point x="78.202" y="64.33749999999999" type="line"/>
      <point x="119.80649999999997" y="328.71999999999997" type="line"/>
      <point x="291.5765" y="328.71999999999997" type="line"/>
      <point x="302.0165" y="390.7325" type="line"/>
      <point x="129.82099999999997" y="390.7325" type="line"/>
      <point x="168.13500000000002" y="634.5" type="line"/>
      <point x="357.61300000000006" y="634.5" type="line"/>
      <point x="368.9375" y="700.0" type="line"/>
      <point x="110.905" y="700.0" type="line"/>
    </contour>
  </outline>
</glyph>
<glyph name="F" format="2">
  <advance width="310.635"/>
  <unicode hex="0046"/>
  <outline>
    <contour>
      <point x="0.5570000000000007" y="0.0" type="line"/>
      <point x="67.51299999999999" y="0.0" type="line"/>
      <point x="116.334" y="304.294" type="line"/>
      <point x="272.10999999999996" y="304.294" type="line"/>
      <point x="282.481" y="370.04200000000003" type="line"/>
      <point x="126.488" y="370.04200000000003" type="line"/>
      <point x="168.10399999999998" y="634.252" type="line"/>
      <point x="357.273" y="634.252" type="line"/>
      <point x="368.08500000000004" y="700.0" type="line"/>
      <point x="111.06" y="700.0" type="line"/>
    </contour>
  </outline>
</glyph>
<glyph name="G" format="2">
  <advance width="370.16999999999996"/>
  <unicode hex="0047"/>
  <anchor x="184.51500000000001" y="0.0" name="bottom"/>
  <anchor x="285.709" y="700.0" name="top"/>
  <outline>
    <contour>
      <point x="192.78400000000002" y="-10.0" type="curve" smooth="yes"/>
      <point x="230.89800000000002" y="-10.0"/>
      <point x="270.28600000000006" y="-2.261"/>
      <point x="296.05400000000003" y="11.893" type="curve"/>
      <point x="351.358" y="360.89300000000003" type="line"/>
      <point x="205.961" y="360.89300000000003" type="line"/>
      <point x="196.823" y="302.74" type="line"/>
      <point x="281.091" y="302.74" type="line"/>
      <point x="242.133" y="58.22" type="line"/>
      <point x="230.94" y="53.764"/>
      <point x="213.013" y="51.067"/>
      <point x="194.954" y="51.067" type="curve" smooth="yes"/>
      <point x="130.05" y="51.067"/>
      <point x="94.312" y="92.117"/>
      <point x="94.312" y="197.916" type="curve" smooth="yes"/>
      <point x="94.312" y="441.781"/>
      <point x="172.07299999999998" y="645.895"/>
      <point x="288.118" y="645.895" type="curve" smooth="yes"/>
      <point x="318.87500000000006" y="645.895"/>
      <point x="344.551" y="639.3839999999999"/>
      <point x="372.301" y="630.87" type="curve"/>
      <point x="393.709" y="691.1160000000001" type="line"/>
      <point x="364.43899999999996" y="703.18"/>
      <point x="326.999" y="710.0"/>
      <point x="288.397" y="710.0" type="curve" smooth="yes"/>
      <point x="118.741" y="710.0"/>
      <point x="27.913" y="470.73199999999997"/>
      <point x="27.913" y="193.695" type="curve" smooth="yes"/>
      <point x="27.913" y="54.330000000000005"/>
      <point x="86.69800000000001" y="-10.0"/>
    </contour>
  </outline>
</glyph>
<glyph name="H" format="2">
  <advance width="406.33199999999994"/>
  <unicode hex="0048"/>
  <anchor x="159.67927600000002" y="0.0" name="bottom"/>
  <anchor x="215.46514100000002" y="350.0" name="center"/>
  <anchor x="270.62962699999997" y="700.0" name="top"/>
  <anchor x="85.876627" y="700.0" name="topleft"/>
  <outline>
    <contour>
      <point x="0.5260000000000007" y="0.0" type="line"/>
      <point x="68.755" y="0.0" type="line"/>
      <point x="112.151" y="275.252" type="line"/>
      <point x="294.432" y="275.252" type="line"/>
      <point x="251.25300000000001" y="0.0" type="line"/>
      <point x="318.303" y="0.0" type="line"/>
      <point x="429.427" y="700.0" type="line"/>
      <point x="362.12899999999996" y="700.0" type="line"/>
      <point x="304.62399999999997" y="338.768" type="line"/>
      <point x="121.72200000000001" y="338.768" type="line"/>
      <point x="179.258" y="700.0" type="line"/>
      <point x="111.029" y="700.0" type="line"/>
    </contour>
  </outline>
</glyph>
<glyph name="I" format="2">
  <advance width="156.163"/>
  <unicode hex="0049"/>
  <anchor x="34.270512000000004" y="0.0" name="bottom"/>
  <anchor x="68.978812" y="2.79" name="ogonek"/>
  <anchor x="145.224924" y="700.0" name="top"/>
  <anchor x="87.91532699999999" y="700.0" name="topleft"/>
  <outline>
    <contour>
      <point x="0.5260000000000007" y="0.0" type="line"/>
      <point x="68.134" y="0.0" type="line"/>
      <point x="179.258" y="700.0" type="line"/>
      <point x="111.029" y="700.0" type="line"/>
    </contour>
  </outline>
</glyph>
<glyph name="J" format="2">
  <advance width="278.498"/>
  <unicode hex="004A"/>
  <anchor x="65.11287599999999" y="0.0" name="bottom"/>
  <anchor x="203.99200000000002" y="700.0" name="top"/>
  <outline>
    <contour>
      <point x="-36.003" y="8.84" type="line"/>
      <point x="-9.46" y="-1.89"/>
      <point x="19.593000000000004" y="-10.0"/>
      <point x="57.929" y="-10.0" type="curve" smooth="yes"/>
      <point x="155.86700000000002" y="-10.0"/>
      <point x="202.407" y="51.032"/>
      <point x="218.248" y="149.934" type="curve" smooth="yes"/>
      <point x="305.642" y="700.0" type="line"/>
      <point x="95.952" y="700.0" type="line"/>
      <point x="85.977" y="637.817" type="line"/>
      <point x="228.059" y="637.817" type="line"/>
      <point x="153.267" y="169.461" type="line" smooth="yes"/>
      <point x="140.02599999999998" y="86.991"/>
      <point x="104.755" y="59.158"/>
      <point x="48.466" y="59.158" type="curve" smooth="yes"/>
      <point x="25.255" y="59.158"/>
      <point x="3.0220000000000007" y="64.982"/>
      <point x="-17.301000000000002" y="71.899" type="curve"/>
    </contour>
  </outline>
</glyph>
<glyph name="K" format="2">
  <advance width="370.512"/>
  <unicode hex="004B"/>
  <anchor x="158.14999999999998" y="0.0" name="bottom"/>
  <anchor x="249.07999999999998" y="700.0" name="top"/>
  <outline>
    <contour>
      <point x="0.12799999999999967" y="0.0" type="line"/>
      <point x="68.234" y="0.0" type="line"/>
      <point x="179.108" y="700.0" type="line"/>
      <point x="111.122" y="700.0" type="line"/>
    </contour>
    <contour>
      <point x="299.352" y="-9.558" type="curve" smooth="yes"/>
      <point x="308.81399999999996" y="-9.558"/>
      <point x="322.31" y="-6.514"/>
      <point x="328.804" y="-3.144" type="curve"/>
      <point x="333.674" y="72.88799999999999" type="line"/>
      <point x="330.618" y="72.696"/>
      <point x="326.87399999999997" y="71.696"/>
      <point x="322.688" y="71.696" type="curve" smooth="yes"/>
      <point x="303.332" y="71.696"/>
      <point x="285.65" y="82.628"/>
      <point x="258.14799999999997" y="145.43200000000002" type="curve" smooth="yes"/>
      <point x="126.898" y="446.224" type="line"/>
      <point x="107.39399999999999" y="335.528" type="line"/>
      <point x="219.004" y="79.048" type="line" smooth="yes"/>
      <point x="248.83200000000002" y="6.959999999999999"/>
      <point x="266.536" y="-9.558"/>
    </contour>
    <contour>
      <point x="176.972" y="288.952" type="line"/>
      <point x="253.642" y="369.398"/>
      <point x="357.834" y="511.44"/>
      <point x="415.86199999999997" y="687.256" type="curve"/>
      <point x="360.666" y="707.52" type="line"/>
      <point x="300.148" y="540.0160000000001"/>
      <point x="211.106" y="412.344"/>
      <point x="151.13400000000001" y="347.71799999999996" type="curve"/>
    </contour>
  </outline>
</glyph>
<glyph name="L" format="2">
  <advance width="296.684"/>
  <unicode hex="004C"/>
  <anchor x="125.86399999999999" y="0.0" name="bottom"/>
  <anchor x="153.18914099999998" y="350.0" name="center"/>
  <anchor x="144.488" y="700.0" name="top"/>
  <anchor x="263.57099999999997" y="700.0" name="topright"/>
  <outline>
    <contour>
      <point x="-0.09499999999999931" y="0.0" type="line"/>
      <point x="243.879" y="0.0" type="line"/>
      <point x="254.164" y="64.167" type="line"/>
      <point x="77.736" y="64.167" type="line"/>
      <point x="178.637" y="700.0" type="line"/>
      <point x="111.029" y="700.0" type="line"/>
    </contour>
  </outline>
</glyph>
<glyph name="M" format="2">
  <advance width="455.966"/>
  <unicode hex="004D"/>
  <outline>
    <contour>
      <point x="0.37600000000000033" y="0.0" type="line"/>
      <point x="63.119" y="0.0" type="line"/>
      <point x="152.01" y="570.004" type="line"/>
      <point x="200.779" y="231.19400000000002" type="line"/>
      <point x="239.04" y="231.19400000000002" type="line"/>
      <point x="396.277" y="569.7370000000001" type="line"/>
      <point x="305.22700000000003" y="0.0" type="line"/>
      <point x="367.93699999999995" y="0.0" type="line"/>
      <point x="479.061" y="700.0" type="line"/>
      <point x="401.94800000000004" y="700.0" type="line"/>
      <point x="235.57999999999998" y="337.007" type="line"/>
      <point x="183.51899999999998" y="700.0" type="line"/>
      <point x="111.029" y="700.0" type="line"/>
    </contour>
  </outline>
</glyph>
<glyph name="N" format="2">
  <advance width="407.075"/>
  <unicode hex="004E"/>
  <anchor x="166.275" y="0.0" name="bottom"/>
  <anchor x="270.99" y="700.0" name="top"/>
  <outline>
    <contour>
      <point x="0.5950000000000002" y="0.0" type="line"/>
      <point x="62.47" y="0.0" type="line"/>
      <point x="148.5575" y="547.055" type="line"/>
      <point x="251.05" y="-0.69" type="line"/>
      <point x="319.015" y="-0.69" type="line"/>
      <point x="430.17" y="700.0" type="line"/>
      <point x="368.39" y="700.0" type="line"/>
      <point x="280.8825" y="144.75" type="line"/>
      <point x="180.5775" y="700.69" type="line"/>
      <point x="111.2325" y="700.69" type="line"/>
    </contour>
  </outline>
</glyph>
<glyph name="O" format="2">
  <advance width="412.67"/>
  <unicode hex="004F"/>
  <note>
8
</note>
  <anchor x="164.215" y="0.0" name="bottom"/>
  <anchor x="219.75" y="350.0" name="center"/>
  <anchor x="215.485" y="1.085" name="ogonek"/>
  <anchor x="276.32" y="700.0" name="top"/>
  <anchor x="89.69" y="700.0" name="topleft"/>
  <anchor x="351.5" y="696.335" name="topright"/>
  <outline>
    <contour>
      <point x="168.66" y="-9.535" type="curve" smooth="yes"/>
      <point x="334.09" y="-9.535"/>
      <point x="410.295" y="294.76"/>
      <point x="410.295" y="517.785" type="curve" smooth="yes"/>
      <point x="410.295" y="653.54"/>
      <point x="361.935" y="709.535"/>
      <point x="268.01" y="709.535" type="curve" smooth="yes"/>
      <point x="102.58" y="709.535"/>
      <point x="26.375" y="405.24"/>
      <point x="26.375" y="182.215" type="curve" smooth="yes"/>
      <point x="26.375" y="46.46"/>
      <point x="74.735" y="-9.535"/>
    </contour>
    <contour>
      <point x="174.585" y="56.515" type="curve" smooth="yes"/>
      <point x="122.42" y="56.515"/>
      <point x="95.13" y="88.28"/>
      <point x="95.13" y="180.485" type="curve" smooth="yes"/>
      <point x="95.13" y="355.95"/>
      <point x="160.295" y="643.485"/>
      <point x="262.23999999999995" y="643.485" type="curve" smooth="yes"/>
      <point x="314.25" y="643.485"/>
      <point x="341.54" y="611.72"/>
      <point x="341.54" y="519.515" type="curve" smooth="yes"/>
      <point x="341.54" y="344.05"/>
      <point x="276.375" y="56.515"/>
    </contour>
  </outline>
</glyph>
<glyph name="P" format="2">
  <advance width="365.2225"/>
  <unicode hex="0050"/>
  <outline>
    <contour>
      <point x="0.8274999999999999" y="0.0" type="line"/>
      <point x="68.3425" y="0.0" type="line"/>
      <point x="108.16" y="249.425" type="line"/>
      <point x="130.19" y="247.3225"/>
      <point x="142.72750000000002" y="247.15"/>
      <point x="179.6225" y="247.15" type="curve" smooth="yes"/>
      <point x="306.05" y="247.15"/>
      <point x="383.80749999999995" y="371.6125"/>
      <point x="383.97999999999996" y="554.435" type="curve" smooth="yes"/>
      <point x="383.97999999999996" y="662.7325"/>
      <point x="338.65" y="710.0"/>
      <point x="234.23499999999999" y="710.0" type="curve" smooth="yes"/>
      <point x="205.0625" y="710.0"/>
      <point x="163.5475" y="707.69"/>
      <point x="111.9825" y="702.9575" type="curve"/>
    </contour>
    <contour>
      <point x="170.5825" y="643.255" type="line"/>
      <point x="193.405" y="646.1175000000001"/>
      <point x="208.53" y="647.2900000000001"/>
      <point x="226.74" y="647.2900000000001" type="curve" smooth="yes"/>
      <point x="291.12" y="647.2900000000001"/>
      <point x="317.085" y="619.0875000000001"/>
      <point x="317.085" y="542.6324999999999" type="curve" smooth="yes"/>
      <point x="317.085" y="414.90000000000003"/>
      <point x="263.99" y="309.9375"/>
      <point x="176.96249999999998" y="309.9375" type="curve" smooth="yes"/>
      <point x="157.905" y="309.9375"/>
      <point x="140.675" y="310.8775"/>
      <point x="117.97999999999999" y="312.36" type="curve"/>
    </contour>
  </outline>
</glyph>
<glyph name="Q" format="2">
  <advance width="412.437"/>
  <unicode hex="0051"/>
  <note>
14
</note>
  <outline>
    <contour>
      <point x="283.662" y="-178.45100000000002" type="curve" smooth="yes"/>
      <point x="302.28900000000004" y="-178.45100000000002"/>
      <point x="322.32" y="-175.95100000000002"/>
      <point x="340.734" y="-168.85" type="curve"/>
      <point x="343.278" y="-109.411" type="line"/>
      <point x="329.5" y="-114.819"/>
      <point x="313.205" y="-117.509"/>
      <point x="297.29699999999997" y="-117.509" type="curve" smooth="yes"/>
      <point x="250.47299999999998" y="-117.509"/>
      <point x="210.994" y="-91.487"/>
      <point x="208.108" y="6.506" type="curve"/>
      <point x="151.282" y="4.031" type="line"/>
      <point x="154.052" y="-135.188"/>
      <point x="216.337" y="-178.45100000000002"/>
    </contour>
    <component base="O"/>
  </outline>
</glyph>
<glyph name="R" format="2">
  <advance width="375.47999999999996"/>
  <unicode hex="0052"/>
  <anchor x="161.525" y="0.0" name="bottom"/>
  <anchor x="234.47" y="700.0" name="top"/>
  <outline>
    <contour>
      <point x="0.2849999999999997" y="0.0" type="line"/>
      <point x="68.26499999999999" y="0.0" type="line"/>
      <point x="111.55499999999999" y="274.285" type="line"/>
      <point x="129.48000000000002" y="273.94"/>
      <point x="148.7" y="273.095"/>
      <point x="182.95499999999998" y="272.94" type="curve"/>
      <point x="186.495" y="274.335" type="line"/>
      <point x="301.08500000000004" y="274.585"/>
      <point x="384.315" y="384.04499999999996"/>
      <point x="384.315" y="549.67" type="curve" smooth="yes"/>
      <point x="384.315" y="657.72"/>
      <point x="336.785" y="710.0"/>
      <point x="231.74" y="710.0" type="curve" smooth="yes"/>
      <point x="191.675" y="710.0"/>
      <point x="155.41000000000003" y="707.38"/>
      <point x="111.905" y="702.51" type="curve"/>
    </contour>
    <contour>
      <point x="302.285" y="-10.0" type="curve" smooth="yes"/>
      <point x="310.895" y="-10.0"/>
      <point x="325.765" y="-6.63"/>
      <point x="331.34000000000003" y="-3.64" type="curve"/>
      <point x="335.495" y="65.71499999999999" type="line"/>
      <point x="330.96000000000004" y="64.335"/>
      <point x="327.59000000000003" y="64.335"/>
      <point x="325.28000000000003" y="64.335" type="curve" smooth="yes"/>
      <point x="297.165" y="64.715"/>
      <point x="276.87" y="94.145"/>
      <point x="236.315" y="309.445" type="curve"/>
      <point x="176.085" y="293.32" type="line"/>
      <point x="231.19" y="17.985"/>
      <point x="252.48499999999999" y="-10.0"/>
    </contour>
    <contour>
      <point x="183.10999999999999" y="334.695" type="curve" smooth="yes"/>
      <point x="157.575" y="334.695"/>
      <point x="139.20000000000002" y="335.315"/>
      <point x="121.445" y="336.815" type="curve"/>
      <point x="170.755" y="644.72" type="line"/>
      <point x="194.5" y="647.815"/>
      <point x="208.59" y="648.9100000000001"/>
      <point x="228.965" y="648.9100000000001" type="curve" smooth="yes"/>
      <point x="294.33" y="648.9100000000001"/>
      <point x="316.025" y="615.4399999999999"/>
      <point x="316.025" y="549.94" type="curve" smooth="yes"/>
      <point x="316.025" y="420.37"/>
      <point x="260.145" y="334.695"/>
    </contour>
  </outline>
</glyph>
<glyph name="S" format="2">
  <advance width="339.1925"/>
  <unicode hex="0053"/>
  <anchor x="120.7675" y="0.0" name="bottom"/>
  <anchor x="245.5275" y="700.0" name="top"/>
  <outline>
    <contour>
      <point x="358.33500000000004" y="686.61" type="line"/>
      <point x="328.3575" y="701.2099999999999"/>
      <point x="291.62749999999994" y="710.0"/>
      <point x="249.045" y="710.0" type="curve" smooth="yes"/>
      <point x="136.8675" y="710.0"/>
      <point x="65.8475" y="636.0849999999999"/>
      <point x="65.8475" y="515.465" type="curve" smooth="yes"/>
      <point x="65.8475" y="359.47749999999996"/>
      <point x="231.8925" y="300.995"/>
      <point x="231.7975" y="178.17749999999998" type="curve" smooth="yes"/>
      <point x="231.7975" y="106.19"/>
      <point x="187.65000000000003" y="54.330000000000005"/>
      <point x="114.41250000000001" y="54.330000000000005" type="curve" smooth="yes"/>
      <point x="73.6475" y="54.330000000000005"/>
      <point x="38.115" y="62.147499999999994"/>
      <point x="2.0225" y="78.09250000000002" type="curve"/>
      <point x="-22.3675" y="18.225" type="line"/>
      <point x="11.8575" y="-0.08000000000000002"/>
      <point x="60.365" y="-10.0"/>
      <point x="111.6525" y="-10.0" type="curve" smooth="yes"/>
      <point x="228.24749999999997" y="-10.0"/>
      <point x="300.6225" y="69.1575"/>
      <point x="300.6225" y="184.055" type="curve" smooth="yes"/>
      <point x="300.87249999999995" y="338.46500000000003"/>
      <point x="135.9725" y="398.65999999999997"/>
      <point x="135.9725" y="520.195" type="curve" smooth="yes"/>
      <point x="135.9725" y="599.0175"/>
      <point x="181.515" y="646.43"/>
      <point x="248.2925" y="646.43" type="curve" smooth="yes"/>
      <point x="280.99750000000006" y="646.43"/>
      <point x="307.5425" y="641.31"/>
      <point x="335.25499999999994" y="628.725" type="curve"/>
    </contour>
  </outline>
</glyph>
<glyph name="T" format="2">
  <advance width="322.83199999999994"/>
  <unicode hex="0054"/>
  <anchor x="117.53987599999999" y="0.0" name="bottom"/>
  <anchor x="173.37389199999998" y="350.0" name="center"/>
  <anchor x="228.52492400000003" y="700.0" name="top"/>
  <outline>
    <contour>
      <point x="373.224" y="637.972" type="line"/>
      <point x="383.47799999999995" y="700.0" type="line"/>
      <point x="73.85000000000001" y="700.0" type="line"/>
      <point x="63.565" y="637.972" type="line"/>
      <point x="184.48499999999999" y="637.972" type="line"/>
      <point x="83.305" y="0.0" type="line"/>
      <point x="150.913" y="0.0" type="line"/>
      <point x="252.06199999999998" y="637.972" type="line"/>
    </contour>
  </outline>
</glyph>
<glyph name="U" format="2">
  <advance width="396.60400000000004"/>
  <unicode hex="0055"/>
  <anchor x="154.48963999999998" y="0.0" name="bottom"/>
  <anchor x="200.382" y="0.0" name="ogonek"/>
  <anchor x="263.93103" y="700.0" name="top"/>
  <anchor x="415.31600000000003" y="700.0" name="topright"/>
  <outline>
    <contour>
      <point x="151.701" y="-10.0" type="curve" smooth="yes"/>
      <point x="259.993" y="-10.0"/>
      <point x="319.361" y="46.470000000000006"/>
      <point x="339.186" y="169.88199999999998" type="curve" smooth="yes"/>
      <point x="423.74800000000005" y="700.0" type="line"/>
      <point x="355.736" y="700.0" type="line"/>
      <point x="269.865" y="160.27200000000002" type="line" smooth="yes"/>
      <point x="258.86100000000005" y="88.41999999999999"/>
      <point x="224.467" y="52.524"/>
      <point x="163.72400000000002" y="52.524" type="curve" smooth="yes"/>
      <point x="106.027" y="52.524"/>
      <point x="77.99" y="87.56"/>
      <point x="87.993" y="148.059" type="curve" smooth="yes"/>
      <point x="174.68800000000002" y="700.0" type="line"/>
      <point x="107.29700000000001" y="700.0" type="line"/>
      <point x="21.562" y="155.04699999999997" type="line" smooth="yes"/>
      <point x="18.525000000000002" y="136.667"/>
      <point x="17.867000000000004" y="128.662"/>
      <point x="17.867000000000004" y="113.24199999999999" type="curve" smooth="yes"/>
      <point x="17.867000000000004" y="32.647999999999996"/>
      <point x="64.593" y="-10.0"/>
    </contour>
  </outline>
</glyph>
<glyph name="V" format="2">
  <advance width="366.18850000000003"/>
  <unicode hex="0056"/>
  <outline>
    <contour>
      <point x="179.1835" y="0.0" type="line"/>
      <point x="356.58750000000003" y="431.5985"/>
      <point x="402.1775" y="551.595"/>
      <point x="410.78" y="666.65" type="curve" smooth="yes"/>
      <point x="411.09" y="678.3034999999999"/>
      <point x="410.71" y="687.891"/>
      <point x="408.74850000000004" y="700.0" type="curve"/>
      <point x="336.1885" y="700.0" type="line"/>
      <point x="337.53749999999997" y="689.2125"/>
      <point x="338.33599999999996" y="680.7935"/>
      <point x="338.33599999999996" y="671.9075" type="curve" smooth="yes"/>
      <point x="335.31350000000003" y="567.7099999999999"/>
      <point x="293.283" y="457.1655"/>
      <point x="151.852" y="83.86000000000001" type="curve"/>
      <point x="148.38" y="700.721" type="line"/>
      <point x="72.05499999999999" y="700.1725" type="line"/>
      <point x="92.316" y="0.0" type="line"/>
    </contour>
  </outline>
</glyph>
<glyph name="W" format="2">
  <advance width="569.79"/>
  <unicode hex="0057"/>
  <anchor x="237.74" y="0.0" name="bottom"/>
  <anchor x="356.03499999999997" y="700.0" name="top"/>
  <outline>
    <contour>
      <point x="398.445" y="-0.845" type="line"/>
      <point x="575.255" y="470.79"/>
      <point x="611.89" y="591.6600000000001"/>
      <point x="614.0600000000001" y="669.9250000000001" type="curve" smooth="yes"/>
      <point x="614.0600000000001" y="680.755"/>
      <point x="613.6800000000001" y="689.325"/>
      <point x="611.5500000000001" y="700.0" type="curve"/>
      <point x="540.6850000000001" y="700.0" type="line"/>
      <point x="542.065" y="690.015"/>
      <point x="543.29" y="681.695"/>
      <point x="543.29" y="672.115" type="curve" smooth="yes"/>
      <point x="540.965" y="578.9000000000001"/>
      <point x="514.155" y="493.35"/>
      <point x="371.605" y="95.67" type="curve"/>
      <point x="384.375" y="638.475" type="line"/>
      <point x="308.96500000000003" y="638.475" type="line"/>
      <point x="255.70000000000005" y="461.2"/>
      <point x="195.21" y="268.51"/>
      <point x="138.38000000000002" y="101.525" type="curve"/>
      <point x="146.22" y="700.0" type="line"/>
      <point x="73.65" y="700.0" type="line"/>
      <point x="76.205" y="-0.845" type="line"/>
      <point x="152.95" y="-0.845" type="line"/>
      <point x="217.025" y="182.64"/>
      <point x="275.52" y="354.565"/>
      <point x="327.97" y="520.845" type="curve"/>
      <point x="317.91" y="-0.845" type="line"/>
    </contour>
  </outline>
</glyph>
<glyph name="X" format="2">
  <advance width="381.59"/>
  <unicode hex="0058"/>
  <outline>
    <contour>
      <point x="269.925" y="-4.235" type="line"/>
      <point x="341.65" y="-0.5" type="line"/>
      <point x="244.32" y="337.23" type="line"/>
      <point x="335.475" y="477.24"/>
      <point x="409.505" y="594.09"/>
      <point x="415.245" y="700.19" type="curve"/>
      <point x="343.27" y="700.785" type="line"/>
      <point x="339.405" y="602.585"/>
      <point x="294.025" y="526.665"/>
      <point x="216.87" y="405.24" type="curve"/>
      <point x="137.63000000000002" y="704.855" type="line"/>
      <point x="68.955" y="700.74" type="line"/>
      <point x="161.57" y="365.96999999999997" type="line"/>
      <point x="70.18" y="232.95"/>
      <point x="-10.21" y="112.85499999999999"/>
      <point x="-11.35" y="0.0" type="curve"/>
      <point x="61.459999999999994" y="0.0" type="line"/>
      <point x="62.599999999999994" y="96.37"/>
      <point x="114.75500000000001" y="189.675"/>
      <point x="188.16" y="299.2" type="curve"/>
    </contour>
  </outline>
</glyph>
<glyph name="Y" format="2">
  <advance width="351.834"/>
  <unicode hex="0059"/>
  <anchor x="131.22" y="0.0" name="bottom"/>
  <anchor x="242.87500000000003" y="700.0" name="top"/>
  <anchor x="91.033" y="700.0" name="topleft"/>
  <outline>
    <contour>
      <point x="97.056" y="0.0" type="line"/>
      <point x="163.672" y="0.0" type="line"/>
      <point x="209.55700000000002" y="281.353" type="line"/>
      <point x="299.99899999999997" y="404.278"/>
      <point x="363.26300000000003" y="521.139"/>
      <point x="400.251" y="660.4989999999999" type="curve" smooth="yes"/>
      <point x="403.377" y="673.73"/>
      <point x="406.561" y="687.49"/>
      <point x="409.278" y="700.971" type="curve"/>
      <point x="334.112" y="703.857" type="line"/>
      <point x="332.015" y="691.188"/>
      <point x="329.701" y="678.49"/>
      <point x="326.916" y="665.8209999999999" type="curve" smooth="yes"/>
      <point x="301.47" y="549.8639999999999"/>
      <point x="259.04499999999996" y="450.974"/>
      <point x="187.65800000000002" y="350.228" type="curve"/>
      <point x="146.96300000000002" y="703.074" type="line"/>
      <point x="71.21200000000002" y="700.345" type="line"/>
      <point x="141.687" y="281.353" type="line"/>
    </contour>
  </outline>
</glyph>
<glyph name="Z" format="2">
  <advance width="336.885"/>
  <unicode hex="005A"/>
  <anchor x="127.435" y="0.0" name="bottom"/>
  <anchor x="178.105" y="350.0" name="center"/>
  <anchor x="236.34" y="700.0" name="top"/>
  <outline>
    <contour>
      <point x="-29.025000000000002" y="0.0" type="line"/>
      <point x="282.345" y="0.0" type="line"/>
      <point x="292.94" y="62.864999999999995" type="line"/>
      <point x="53.239999999999995" y="62.864999999999995" type="line"/>
      <point x="372.615" y="638.19" type="line"/>
      <point x="382.21" y="700.0" type="line"/>
      <point x="99.185" y="700.0" type="line"/>
      <point x="89.05499999999999" y="637.135" type="line"/>
      <point x="300.635" y="637.135" type="line"/>
      <point x="-19.05" y="60.57" type="line"/>
    </contour>
  </outline>
</glyph>
<glyph name="bracketleft" format="2">
  <advance width="214.52300000000002"/>
  <unicode hex="005B"/>
  <outline>
    <contour>
      <point x="39.062" y="-151.39" type="line"/>
      <point x="172.096" y="681.4590000000001" type="line"/>
      <point x="269.321" y="681.4590000000001" type="line"/>
      <point x="279.141" y="740.0" type="line"/>
      <point x="124.66100000000002" y="740.0" type="line"/>
      <point x="-27.361" y="-210.0" type="line"/>
      <point x="126.188" y="-210.0" type="line"/>
      <point x="136.287" y="-151.39" type="line"/>
    </contour>
  </outline>
</glyph>
<glyph name="backslash" format="2">
  <advance width="309.496"/>
  <unicode hex="005C"/>
  <outline>
    <contour>
      <point x="131.656" y="740.0" type="line"/>
      <point x="75.109" y="740.0" type="line"/>
      <point x="214.243" y="-210.0" type="line"/>
      <point x="270.511" y="-210.0" type="line"/>
    </contour>
  </outline>
</glyph>
<glyph name="bracketright" format="2">
  <advance width="214.52300000000002"/>
  <unicode hex="005D"/>
  <outline>
    <contour>
      <point x="-57.108" y="-151.39" type="line"/>
      <point x="-66.89699999999999" y="-210.0" type="line"/>
      <point x="85.96199999999999" y="-210.0" type="line"/>
      <point x="238.91500000000002" y="740.0" type="line"/>
      <point x="85.05600000000001" y="740.0" type="line"/>
      <point x="74.95700000000001" y="681.3900000000001" type="line"/>
      <point x="172.18200000000002" y="681.3900000000001" type="line"/>
      <point x="38.869" y="-151.39" type="line"/>
    </contour>
  </outline>
</glyph>
<glyph name="asciicircum" format="2">
  <advance width="376.90799999999996"/>
  <unicode hex="005E"/>
  <outline>
    <contour>
      <point x="38.949" y="266.08299999999997" type="line"/>
      <point x="90.234" y="266.08299999999997" type="line"/>
      <point x="244.374" y="632.706" type="line"/>
      <point x="284.79900000000004" y="266.08299999999997" type="line"/>
      <point x="335.667" y="266.08299999999997" type="line"/>
      <point x="286.04200000000003" y="706.9" type="line"/>
      <point x="223.30700000000002" y="706.9" type="line"/>
    </contour>
  </outline>
</glyph>
<glyph name="underscore" format="2">
  <advance width="594.808"/>
  <unicode hex="005F"/>
  <outline>
    <contour>
      <point x="-66.513" y="-158.661" type="line"/>
      <point x="523.323" y="-158.661" type="line"/>
      <point x="534.321" y="-92.919" type="line"/>
      <point x="-55.515" y="-92.919" type="line"/>
    </contour>
  </outline>
</glyph>
<glyph name="a" format="2">
  <advance width="351.029"/>
  <unicode hex="0061"/>
  <note>
15
</note>
  <anchor x="137.29250000000002" y="0.0" name="bottom"/>
  <anchor x="317.22999999999996" y="4.03" name="ogonek"/>
  <anchor x="224.679" y="536.2" name="top"/>
  <outline>
    <contour>
      <point x="263.08699999999993" y="-10.0" type="curve" smooth="yes"/>
      <point x="282.70500000000004" y="-10.0"/>
      <point x="303.2925" y="-4.371"/>
      <point x="317.2680000000001" y="3.916" type="curve"/>
      <point x="320.20949999999993" y="59.88" type="line"/>
      <point x="310.99800000000005" y="56.158"/>
      <point x="303.2015" y="54.203500000000005"/>
      <point x="295.2195" y="54.203500000000005" type="curve" smooth="yes"/>
      <point x="280.1615" y="54.203500000000005"/>
      <point x="274.40450000000004" y="62.2295"/>
      <point x="274.40450000000004" y="78.8225" type="curve" smooth="yes"/>
      <point x="274.40450000000004" y="86.087"/>
      <point x="280.66599999999994" y="126.1335"/>
      <point x="343.89599999999996" y="521.851" type="curve"/>
      <point x="314.55349999999993" y="536.0225"/>
      <point x="275.4515" y="546.2"/>
      <point x="236.386" y="546.2" type="curve" smooth="yes"/>
      <point x="102.8355" y="546.2"/>
      <point x="16.701" y="390.2445"/>
      <point x="16.701" y="148.58150000000003" type="curve" smooth="yes"/>
      <point x="16.701" y="45.027"/>
      <point x="53.5425" y="-10.0"/>
      <point x="119.103" y="-10.0" type="curve" smooth="yes"/>
      <point x="154.62550000000002" y="-10.0"/>
      <point x="184.057" y="3.5060000000000002"/>
      <point x="208.03699999999998" y="24.8505" type="curve"/>
      <point x="217.0775" y="2.7720000000000002"/>
      <point x="235.802" y="-10.0"/>
    </contour>
    <contour>
      <point x="205.92749999999998" y="75.5675" type="line"/>
      <point x="189.0395" y="63.2905"/>
      <point x="165.7075" y="55.00300000000001"/>
      <point x="144.52599999999998" y="55.00300000000001" type="curve" smooth="yes"/>
      <point x="108.03699999999999" y="55.00300000000001"/>
      <point x="86.65650000000001" y="90.29899999999999"/>
      <point x="86.65650000000001" y="158.3695" type="curve" smooth="yes"/>
      <point x="86.65650000000001" y="351.975"/>
      <point x="149.696" y="485.452"/>
      <point x="228.7285" y="485.452" type="curve" smooth="yes"/>
      <point x="244.80650000000003" y="485.452"/>
      <point x="257.936" y="482.6145"/>
      <point x="268.88" y="476.435" type="curve"/>
    </contour>
  </outline>
</glyph>
<glyph name="b" format="2">
  <advance width="350.921"/>
  <unicode hex="0062"/>
  <note>
12
</note>
  <outline>
    <contour>
      <point x="186.0005" y="740.0" type="line"/>
      <point x="118.873" y="740.0" type="line"/>
      <point x="3.6309999999999993" y="9.978000000000002" type="line"/>
      <point x="32.6715" y="-1.4435000000000002"/>
      <point x="66.5215" y="-10.0"/>
      <point x="110.2615" y="-10.0" type="curve" smooth="yes"/>
      <point x="258.92449999999997" y="-10.0"/>
      <point x="334.56149999999997" y="190.976"/>
      <point x="334.019" y="384.8140000000001" type="curve" smooth="yes"/>
      <point x="333.7865" y="495.583"/>
      <point x="300.96250000000003" y="546.2"/>
      <point x="235.2765" y="546.2" type="curve" smooth="yes"/>
      <point x="205.232" y="546.2"/>
      <point x="178.646" y="535.4230000000001"/>
      <point x="150.4475" y="517.6659999999999" type="curve"/>
    </contour>
    <contour>
      <point x="207.3395" y="480.77849999999995" type="curve" smooth="yes"/>
      <point x="250.604" y="480.77849999999995"/>
      <point x="265.72900000000004" y="437.22849999999994"/>
      <point x="265.72900000000004" y="376.54400000000004" type="curve" smooth="yes"/>
      <point x="265.72900000000004" y="216.83100000000002"/>
      <point x="208.2225" y="50.30650000000001"/>
      <point x="120.6275" y="50.30650000000001" type="curve" smooth="yes"/>
      <point x="104.941" y="50.30650000000001"/>
      <point x="89.85000000000001" y="53.42849999999999"/>
      <point x="78.56249999999999" y="58.456" type="curve"/>
      <point x="141.24749999999997" y="457.55400000000003" type="line"/>
      <point x="161.246" y="471.732"/>
      <point x="187.6605" y="480.77849999999995"/>
    </contour>
  </outline>
</glyph>
<glyph name="c" format="2">
  <advance width="284.03999999999996"/>
  <unicode hex="0063"/>
  <note>
10
</note>
  <anchor x="139.108" y="0.0" name="bottom"/>
  <anchor x="222.48" y="536.2" name="top"/>
  <outline>
    <contour>
      <point x="144.551" y="-10.0" type="curve" smooth="yes"/>
      <point x="178.394" y="-10.0"/>
      <point x="212.12400000000002" y="-4.067"/>
      <point x="237.12499999999997" y="5.299" type="curve"/>
      <point x="229.24400000000003" y="63.07" type="line"/>
      <point x="210.036" y="57.921"/>
      <point x="186.42800000000003" y="54.351000000000006"/>
      <point x="162.92799999999997" y="54.351000000000006" type="curve" smooth="yes"/>
      <point x="111.55499999999999" y="54.351000000000006"/>
      <point x="84.23100000000001" y="93.31"/>
      <point x="84.23100000000001" y="163.021" type="curve" smooth="yes"/>
      <point x="84.23100000000001" y="326.06899999999996"/>
      <point x="146.746" y="481.01"/>
      <point x="227.74099999999999" y="481.01" type="curve" smooth="yes"/>
      <point x="249.85799999999998" y="481.01"/>
      <point x="267.294" y="478.779"/>
      <point x="290.084" y="471.31399999999996" type="curve"/>
      <point x="312.546" y="533.72" type="line"/>
      <point x="286.335" y="542.1150000000001"/>
      <point x="259.76599999999996" y="546.2"/>
      <point x="230.431" y="546.2" type="curve" smooth="yes"/>
      <point x="98.011" y="546.2"/>
      <point x="16.283" y="369.679"/>
      <point x="16.283" y="146.38400000000001" type="curve" smooth="yes"/>
      <point x="16.283" y="46.68"/>
      <point x="61.73200000000001" y="-10.0"/>
    </contour>
  </outline>
</glyph>
<glyph name="d" format="2">
  <advance width="350.485"/>
  <unicode hex="0064"/>
  <note>
17
</note>
  <anchor x="137.5105" y="0.0" name="bottom"/>
  <anchor x="180.1105" y="333.9175" name="center"/>
  <anchor x="237.83999999999997" y="740.0" name="top"/>
  <anchor x="431.1575" y="740.0" name="topright"/>
  <outline>
    <contour>
      <point x="261.35450000000003" y="-10.0" type="curve" smooth="yes"/>
      <point x="278.7035" y="-10.0"/>
      <point x="299.4855" y="-5.178"/>
      <point x="315.2285" y="3.916" type="curve"/>
      <point x="317.901" y="59.88" type="line"/>
      <point x="309.76099999999997" y="56.7325"/>
      <point x="301.048" y="54.203500000000005"/>
      <point x="292.4914999999999" y="54.203500000000005" type="curve" smooth="yes"/>
      <point x="278.8135" y="54.203500000000005"/>
      <point x="272.48349999999994" y="61.5"/>
      <point x="272.48349999999994" y="76.9305" type="curve" smooth="yes"/>
      <point x="272.48349999999994" y="88.1095"/>
      <point x="312.72150000000005" y="336.0855"/>
      <point x="376.545" y="740.0" type="curve"/>
      <point x="309.495" y="740.0" type="line"/>
      <point x="276.7685" y="534.571" type="line"/>
      <point x="257.2320000000001" y="541.8519999999999"/>
      <point x="238.0315" y="546.2"/>
      <point x="214.913" y="546.2" type="curve" smooth="yes"/>
      <point x="97.805" y="546.2"/>
      <point x="15.862000000000002" y="373.229"/>
      <point x="15.862000000000002" y="143.0135" type="curve" smooth="yes"/>
      <point x="15.862000000000002" y="40.266999999999996"/>
      <point x="52.813" y="-10.0"/>
      <point x="117.5785" y="-10.0" type="curve" smooth="yes"/>
      <point x="151.67999999999998" y="-10.0"/>
      <point x="184.797" y="6.7475"/>
      <point x="205.8455" y="26.5755" type="curve"/>
      <point x="215.4985" y="2.24"/>
      <point x="232.99499999999998" y="-10.0"/>
    </contour>
    <contour>
      <point x="141.8725" y="55.7325" type="curve" smooth="yes"/>
      <point x="105.493" y="55.7325"/>
      <point x="84.08050000000001" y="89.083"/>
      <point x="84.08050000000001" y="142.533" type="curve" smooth="yes"/>
      <point x="84.08050000000001" y="318.848"/>
      <point x="139.9405" y="485.452"/>
      <point x="224.35600000000002" y="485.452" type="curve" smooth="yes"/>
      <point x="240.8565" y="485.452"/>
      <point x="253.138" y="482.3455000000001"/>
      <point x="267.646" y="477.89250000000004" type="curve"/>
      <point x="204.4245" y="76.71799999999999" type="line"/>
      <point x="187.4605" y="63.712999999999994"/>
      <point x="165.54349999999997" y="55.7325"/>
    </contour>
  </outline>
</glyph>
<glyph name="e" format="2">
  <advance width="323.53999999999996"/>
  <unicode hex="0065"/>
  <note>
14 points
</note>
  <anchor x="155.45399999999998" y="0.0" name="bottom"/>
  <anchor x="232.798" y="1.4240000000000002" name="ogonek"/>
  <anchor x="224.912" y="537.504" name="top"/>
  <outline>
    <contour>
      <point x="73.49700000000001" y="279.655" type="curve"/>
      <point x="63.794" y="225.423" type="line"/>
      <point x="97.47" y="227.36999999999998"/>
      <point x="134.63400000000001" y="234.905"/>
      <point x="169.88" y="247.785" type="curve" smooth="yes"/>
      <point x="267.49500000000006" y="283.53900000000004"/>
      <point x="333.47499999999997" y="358.458"/>
      <point x="333.47499999999997" y="450.28099999999995" type="curve" smooth="yes"/>
      <point x="333.47499999999997" y="507.36800000000005"/>
      <point x="299.91499999999996" y="546.2"/>
      <point x="234.933" y="546.2" type="curve" smooth="yes"/>
      <point x="100.18" y="546.2"/>
      <point x="19.698000000000004" y="388.181"/>
      <point x="19.698000000000004" y="179.88799999999998" type="curve" smooth="yes"/>
      <point x="19.698000000000004" y="58.182"/>
      <point x="66.966" y="-10.0"/>
      <point x="157.34900000000002" y="-10.0" type="curve" smooth="yes"/>
      <point x="195.89700000000002" y="-10.0"/>
      <point x="240.79000000000002" y="-0.6869999999999999"/>
      <point x="274.72999999999996" y="17.957" type="curve"/>
      <point x="261.6" y="78.176" type="line"/>
      <point x="226.459" y="62.129"/>
      <point x="194.862" y="55.281000000000006"/>
      <point x="165.94400000000002" y="55.281000000000006" type="curve" smooth="yes"/>
      <point x="113.349" y="55.281000000000006"/>
      <point x="84.236" y="99.845"/>
      <point x="84.236" y="189.53" type="curve" smooth="yes"/>
      <point x="84.236" y="363.551"/>
      <point x="147.65400000000002" y="486.1890000000001"/>
      <point x="223.949" y="486.1890000000001" type="curve" smooth="yes"/>
      <point x="253.45900000000003" y="486.1890000000001"/>
      <point x="270.48699999999997" y="471.12300000000005"/>
      <point x="270.48699999999997" y="437.019" type="curve" smooth="yes"/>
      <point x="270.48699999999997" y="377.717"/>
      <point x="225.647" y="328.296"/>
      <point x="157.553" y="299.955" type="curve" smooth="yes"/>
      <point x="130.63299999999998" y="288.78000000000003"/>
      <point x="102.01100000000001" y="281.564"/>
    </contour>
  </outline>
</glyph>
<glyph name="f" format="2">
  <advance width="221.60299999999998"/>
  <unicode hex="0066"/>
  <outline>
    <contour>
      <point x="-55.509" y="-220.0" type="curve" smooth="yes"/>
      <point x="24.701" y="-220.0"/>
      <point x="64.59200000000001" y="-160.85399999999998"/>
      <point x="83.286" y="-42.227999999999994" type="curve" smooth="yes"/>
      <point x="158.991" y="436.046" type="line"/>
      <point x="248.114" y="436.046" type="line"/>
      <point x="257.779" y="496.555" type="line"/>
      <point x="168.625" y="496.555" type="line"/>
      <point x="189.90800000000002" y="632.938"/>
      <point x="219.88899999999998" y="683.88"/>
      <point x="275.284" y="683.88" type="curve" smooth="yes"/>
      <point x="293.24499999999995" y="683.88"/>
      <point x="311.18" y="679.935"/>
      <point x="328.16400000000004" y="674.88" type="curve"/>
      <point x="348.239" y="733.9549999999999" type="line"/>
      <point x="323.07" y="743.969"/>
      <point x="299.16200000000003" y="750.0"/>
      <point x="270.674" y="750.0" type="curve" smooth="yes"/>
      <point x="182.096" y="750.0"/>
      <point x="128.823" y="675.532"/>
      <point x="101.475" y="496.555" type="curve"/>
      <point x="42.775" y="489.911" type="line"/>
      <point x="33.893" y="436.046" type="line"/>
      <point x="91.81" y="436.046" type="line"/>
      <point x="17.053" y="-38.153" type="line" smooth="yes"/>
      <point x="5.078" y="-113.09400000000001"/>
      <point x="-15.434999999999999" y="-155.043"/>
      <point x="-62.80400000000001" y="-155.043" type="curve" smooth="yes"/>
      <point x="-74.858" y="-155.043"/>
      <point x="-85.94800000000001" y="-153.532"/>
      <point x="-101.411" y="-148.456" type="curve"/>
      <point x="-118.786" y="-209.10399999999998" type="line"/>
      <point x="-98.537" y="-216.629"/>
      <point x="-78.401" y="-220.0"/>
    </contour>
  </outline>
</glyph>
<glyph name="g" format="2">
  <advance width="347.82099999999997"/>
  <unicode hex="0067"/>
  <note>
16
</note>
  <anchor x="90.44" y="-213.48" name="bottom"/>
  <anchor x="221.91600000000003" y="536.2" name="top"/>
  <outline>
    <contour>
      <point x="-11.946" y="-199.431" type="line"/>
      <point x="20.834000000000003" y="-213.16900000000004"/>
      <point x="58.114" y="-220.0"/>
      <point x="91.13" y="-220.0" type="curve" smooth="yes"/>
      <point x="181.81199999999998" y="-220.0"/>
      <point x="233.089" y="-162.94900000000004"/>
      <point x="253.148" y="-35.101" type="curve" smooth="yes"/>
      <point x="343.47200000000004" y="525.796" type="line"/>
      <point x="317.249" y="537.34"/>
      <point x="276.57899999999995" y="546.2"/>
      <point x="240.75799999999998" y="546.2" type="curve" smooth="yes"/>
      <point x="87.216" y="546.2"/>
      <point x="15.584000000000003" y="358.059"/>
      <point x="15.584000000000003" y="146.875" type="curve" smooth="yes"/>
      <point x="15.584000000000003" y="54.873"/>
      <point x="48.54600000000001" y="-3.955"/>
      <point x="113.51499999999999" y="-3.955" type="curve" smooth="yes"/>
      <point x="138.23700000000002" y="-3.955"/>
      <point x="169.641" y="4.618"/>
      <point x="195.767" y="21.532999999999998" type="curve"/>
      <point x="187.71200000000002" y="-34.815" type="line" smooth="yes"/>
      <point x="174.47" y="-123.99300000000001"/>
      <point x="143.061" y="-156.61700000000002"/>
      <point x="90.022" y="-156.61700000000002" type="curve" smooth="yes"/>
      <point x="65.232" y="-156.61700000000002"/>
      <point x="33.078" y="-150.05799999999996"/>
      <point x="7.434000000000001" y="-140.31199999999998" type="curve"/>
    </contour>
    <contour>
      <point x="268.222" y="479.1019999999999" type="curve"/>
      <point x="204.73299999999998" y="79.66" type="line"/>
      <point x="189.38" y="67.31"/>
      <point x="162.715" y="57.948"/>
      <point x="143.912" y="57.948" type="curve" smooth="yes"/>
      <point x="106.917" y="57.948"/>
      <point x="84.84200000000001" y="92.261"/>
      <point x="84.84200000000001" y="156.165" type="curve" smooth="yes"/>
      <point x="84.84200000000001" y="319.49300000000005"/>
      <point x="141.33599999999998" y="487.58399999999995"/>
      <point x="228.136" y="487.58399999999995" type="curve" smooth="yes"/>
      <point x="242.653" y="487.58399999999995"/>
      <point x="255.66700000000003" y="483.78299999999996"/>
    </contour>
  </outline>
</glyph>
<glyph name="h" format="2">
  <advance width="355.13"/>
  <unicode hex="0068"/>
  <note>
16
</note>
  <anchor x="137.591" y="0.0" name="bottom"/>
  <anchor x="193.44650000000001" y="370.775" name="center"/>
  <anchor x="252.892" y="740.0" name="top"/>
  <outline>
    <contour>
      <point x="278.38849999999996" y="77.4715" type="curve" smooth="yes"/>
      <point x="278.38849999999996" y="103.574"/>
      <point x="336.11550000000005" y="431.42699999999996"/>
      <point x="336.11550000000005" y="462.0" type="curve" smooth="yes"/>
      <point x="336.11550000000005" y="512.3460000000001"/>
      <point x="312.12800000000004" y="546.2"/>
      <point x="256.332" y="546.2" type="curve" smooth="yes"/>
      <point x="219.6345" y="546.2"/>
      <point x="184.5445" y="533.285"/>
      <point x="149.709" y="511.5984999999999" type="curve"/>
      <point x="186.09349999999998" y="740.0" type="line"/>
      <point x="118.81099999999998" y="740.0" type="line"/>
      <point x="1.4235" y="0.0" type="line"/>
      <point x="68.70599999999999" y="0.0" type="line"/>
      <point x="140.70950000000002" y="454.795" type="line"/>
      <point x="165.04449999999997" y="470.341"/>
      <point x="195.50900000000001" y="481.4295"/>
      <point x="218.762" y="481.4295" type="curve" smooth="yes"/>
      <point x="254.523" y="481.4295"/>
      <point x="264.73300000000006" y="460.9015"/>
      <point x="264.73300000000006" y="433.9645" type="curve" smooth="yes"/>
      <point x="264.73300000000006" y="407.461"/>
      <point x="208.42549999999997" y="86.77499999999999"/>
      <point x="208.42549999999997" y="48.5865" type="curve" smooth="yes"/>
      <point x="208.42549999999997" y="13.221"/>
      <point x="233.8565" y="-10.0"/>
      <point x="269.53150000000005" y="-10.0" type="curve" smooth="yes"/>
      <point x="286.0005" y="-10.0"/>
      <point x="303.3935" y="-6.2495"/>
      <point x="320.02700000000004" y="2.9204999999999997" type="curve"/>
      <point x="323.467" y="59.807" type="line"/>
      <point x="313.98650000000004" y="56.047000000000004"/>
      <point x="307.11100000000005" y="55.048500000000004"/>
      <point x="301.50600000000003" y="55.048500000000004" type="curve" smooth="yes"/>
      <point x="285.112" y="55.048500000000004"/>
      <point x="278.38849999999996" y="62.839"/>
    </contour>
  </outline>
</glyph>
<glyph name="i" format="2">
  <advance width="158.379"/>
  <unicode hex="0069"/>
  <note>
Ajuster pts sur points
8
</note>
  <anchor x="34.997764000000004" y="0.0" name="bottom"/>
  <anchor x="68.916" y="0.0" name="ogonek"/>
  <anchor x="120.000236" y="536.2" name="top"/>
  <outline>
    <contour>
      <point x="2.3939999999999997" y="0.0" type="line"/>
      <point x="68.916" y="0.0" type="line"/>
      <point x="153.81499999999997" y="536.2" type="line"/>
      <point x="86.734" y="536.2" type="line"/>
    </contour>
    <contour>
      <point x="152.821" y="734.8" type="curve" smooth="yes"/>
      <point x="116.97299999999998" y="734.8"/>
      <point x="106.05699999999999" y="711.92"/>
      <point x="104.125" y="673.3050000000001" type="curve" smooth="yes"/>
      <point x="103.504" y="651.269"/>
      <point x="115.672" y="642.861"/>
      <point x="136.73100000000002" y="642.861" type="curve" smooth="yes"/>
      <point x="172.335" y="642.861"/>
      <point x="183.53300000000002" y="665.865"/>
      <point x="185.534" y="704.735" type="curve" smooth="yes"/>
      <point x="186.15499999999997" y="726.6709999999999"/>
      <point x="173.915" y="734.8"/>
    </contour>
  </outline>
</glyph>
<glyph name="j" format="2">
  <advance width="165.453"/>
  <unicode hex="006A"/>
  <note>
idem /i
12
</note>
  <outline>
    <contour>
      <point x="159.926" y="734.8" type="curve" smooth="yes"/>
      <point x="124.047" y="734.8"/>
      <point x="113.3" y="711.92"/>
      <point x="111.368" y="673.3050000000001" type="curve" smooth="yes"/>
      <point x="110.747" y="651.269"/>
      <point x="123.087" y="642.861"/>
      <point x="144.146" y="642.861" type="curve" smooth="yes"/>
      <point x="179.264" y="642.861"/>
      <point x="190.5" y="665.865"/>
      <point x="192.501" y="704.735" type="curve" smooth="yes"/>
      <point x="193.122" y="726.6709999999999"/>
      <point x="181.02" y="734.8"/>
    </contour>
    <contour>
      <point x="161.23" y="536.2" type="line"/>
      <point x="93.83899999999998" y="536.2" type="line"/>
      <point x="2.257" y="-41.882000000000005" type="line" smooth="yes"/>
      <point x="-8.921" y="-111.865"/>
      <point x="-28.831" y="-155.043"/>
      <point x="-75.475" y="-155.043" type="curve" smooth="yes"/>
      <point x="-88.305" y="-155.043"/>
      <point x="-99.878" y="-153.632"/>
      <point x="-115.48299999999999" y="-148.311" type="curve"/>
      <point x="-131.611" y="-209.95100000000002" type="line"/>
      <point x="-111.46900000000001" y="-217.311"/>
      <point x="-87.838" y="-220.0"/>
      <point x="-67.995" y="-220.0" type="curve" smooth="yes"/>
      <point x="13.660999999999998" y="-220.0"/>
      <point x="50.548" y="-161.693"/>
      <point x="68.803" y="-45.177" type="curve" smooth="yes"/>
    </contour>
  </outline>
</glyph>
<glyph name="l" format="2">
  <advance width="171.213"/>
  <unicode hex="006C"/>
  <anchor x="75.14399999999999" y="0.0" name="bottom"/>
  <anchor x="97.246186" y="370.775" name="center"/>
  <anchor x="152.12199999999999" y="740.0" name="top"/>
  <anchor x="240.62" y="740.0" name="topright"/>
  <outline>
    <contour>
      <point x="118.842" y="740.0" type="line"/>
      <point x="15.014000000000003" y="84.44500000000001" type="line" smooth="yes"/>
      <point x="13.542000000000002" y="74.17800000000001"/>
      <point x="12.242" y="62.511"/>
      <point x="12.242" y="52.88099999999999" type="curve" smooth="yes"/>
      <point x="12.242" y="13.831"/>
      <point x="31.373" y="-10.0"/>
      <point x="76.038" y="-10.0" type="curve" smooth="yes"/>
      <point x="96.45899999999999" y="-10.0"/>
      <point x="120.81" y="-4.4990000000000006"/>
      <point x="138.09300000000002" y="3.9249999999999994" type="curve"/>
      <point x="141.402" y="60.989" type="line"/>
      <point x="128.054" y="56.843"/>
      <point x="117.5" y="55.032"/>
      <point x="108.922" y="55.032" type="curve" smooth="yes"/>
      <point x="88.63" y="55.032"/>
      <point x="82.46000000000001" y="64.372"/>
      <point x="82.46000000000001" y="78.373" type="curve" smooth="yes"/>
      <point x="82.46000000000001" y="88.68599999999999"/>
      <point x="84.878" y="101.175"/>
      <point x="87.84099999999998" y="120.27400000000002" type="curve" smooth="yes"/>
      <point x="186.02300000000002" y="740.0" type="line"/>
    </contour>
  </outline>
</glyph>
<glyph name="m" format="2">
  <advance width="530.206"/>
  <unicode hex="006D"/>
  <note>
24&gt;23 points
un point de trop dans la jointure avec 2e jambage
</note>
  <outline>
    <contour>
      <point x="443.879" y="-10.0" type="curve" smooth="yes"/>
      <point x="460.286" y="-10.0"/>
      <point x="479.22900000000004" y="-6.327"/>
      <point x="495.134" y="2.8739999999999997" type="curve"/>
      <point x="498.51200000000006" y="59.528" type="line"/>
      <point x="489.14" y="55.768"/>
      <point x="482.125" y="54.909000000000006"/>
      <point x="476.55100000000004" y="54.909000000000006" type="curve" smooth="yes"/>
      <point x="460.18800000000005" y="54.909000000000006"/>
      <point x="452.77299999999997" y="63.483000000000004"/>
      <point x="452.77299999999997" y="78.968" type="curve" smooth="yes"/>
      <point x="452.77299999999997" y="110.13900000000001"/>
      <point x="510.7169999999999" y="433.287"/>
      <point x="510.7169999999999" y="463.581" type="curve" smooth="yes"/>
      <point x="510.7169999999999" y="511.6640000000001"/>
      <point x="487.297" y="546.2"/>
      <point x="431.315" y="546.2" type="curve" smooth="yes"/>
      <point x="398.15900000000005" y="546.2"/>
      <point x="358.845" y="534.234"/>
      <point x="317.44899999999996" y="503.47" type="curve"/>
      <point x="306.556" y="529.891"/>
      <point x="282.171" y="546.2"/>
      <point x="246.803" y="546.2" type="curve" smooth="yes"/>
      <point x="214.095" y="546.2"/>
      <point x="178.90099999999998" y="532.94"/>
      <point x="143.36599999999999" y="508.992" type="curve"/>
      <point x="148.10999999999999" y="536.2" type="line"/>
      <point x="86.08200000000001" y="536.2" type="line"/>
      <point x="1.2210000000000014" y="0.0" type="line"/>
      <point x="68.333" y="0.0" type="line"/>
      <point x="140.266" y="455.919" type="line"/>
      <point x="162.85299999999998" y="471.314"/>
      <point x="188.534" y="481.445"/>
      <point x="211.773" y="481.445" type="curve" smooth="yes"/>
      <point x="242.994" y="481.445"/>
      <point x="255.20499999999998" y="461.79999999999995"/>
      <point x="255.20499999999998" y="435.419" type="curve" smooth="yes"/>
      <point x="255.20499999999998" y="410.69699999999995"/>
      <point x="198.884" y="72.10900000000001"/>
      <point x="187.381" y="0.0" type="curve"/>
      <point x="254.711" y="0.0" type="line"/>
      <point x="264.168" y="59.873999999999995"/>
      <point x="315.43600000000004" y="376.80699999999996"/>
      <point x="321.512" y="434.61100000000005" type="curve" smooth="yes"/>
      <point x="321.822" y="440.72100000000006"/>
      <point x="321.814" y="448.65999999999997"/>
      <point x="321.36500000000007" y="453.808" type="curve"/>
      <point x="343.565" y="469.32300000000004"/>
      <point x="369.695" y="481.352"/>
      <point x="396.236" y="481.352" type="curve" smooth="yes"/>
      <point x="428.409" y="481.352"/>
      <point x="439.12600000000003" y="460.87899999999996"/>
      <point x="439.12600000000003" y="433.473" type="curve" smooth="yes"/>
      <point x="439.12600000000003" y="405.436"/>
      <point x="382.903" y="89.255"/>
      <point x="382.903" y="49.407999999999994" type="curve" smooth="yes"/>
      <point x="382.903" y="11.516"/>
      <point x="408.26599999999996" y="-10.0"/>
    </contour>
  </outline>
</glyph>
<glyph name="n" format="2">
  <advance width="353.888"/>
  <unicode hex="006E"/>
  <note>
16
</note>
  <anchor x="145.728" y="0.0" name="bottom"/>
  <anchor x="215.333" y="536.2" name="top"/>
  <outline>
    <contour>
      <point x="86.08200000000001" y="536.2" type="line"/>
      <point x="1.2210000000000014" y="0.0" type="line"/>
      <point x="68.302" y="0.0" type="line"/>
      <point x="140.476" y="454.95" type="line"/>
      <point x="164.791" y="470.517"/>
      <point x="194.267" y="482.06600000000003"/>
      <point x="217.95399999999998" y="482.06600000000003" type="curve" smooth="yes"/>
      <point x="253.55300000000003" y="482.06600000000003"/>
      <point x="264.57000000000005" y="461.09599999999995"/>
      <point x="264.57000000000005" y="433.628" type="curve" smooth="yes"/>
      <point x="264.57000000000005" y="404.23"/>
      <point x="208.31599999999997" y="89.565"/>
      <point x="208.31599999999997" y="47.175999999999995" type="curve" smooth="yes"/>
      <point x="208.31599999999997" y="13.469"/>
      <point x="232.506" y="-10.0"/>
      <point x="268.119" y="-10.0" type="curve" smooth="yes"/>
      <point x="284.526" y="-10.0"/>
      <point x="302.911" y="-6.327"/>
      <point x="318.81600000000003" y="2.8739999999999997" type="curve"/>
      <point x="322.194" y="59.528" type="line"/>
      <point x="312.822" y="55.768"/>
      <point x="305.807" y="54.909000000000006"/>
      <point x="300.233" y="54.909000000000006" type="curve" smooth="yes"/>
      <point x="283.87" y="54.909000000000006"/>
      <point x="277.628" y="62.714999999999996"/>
      <point x="277.628" y="77.363" type="curve" smooth="yes"/>
      <point x="277.628" y="103.512"/>
      <point x="335.851" y="431.33399999999995"/>
      <point x="335.851" y="461.907" type="curve" smooth="yes"/>
      <point x="335.851" y="512.6560000000001"/>
      <point x="310.421" y="546.2"/>
      <point x="255.27599999999998" y="546.2" type="curve" smooth="yes"/>
      <point x="218.315" y="546.2"/>
      <point x="179.22" y="532.2950000000001"/>
      <point x="143.135" y="508.16400000000004" type="curve"/>
      <point x="147.738" y="536.2" type="line"/>
    </contour>
  </outline>
</glyph>
<glyph name="o" format="2">
  <advance width="344.085"/>
  <unicode hex="006F"/>
  <note>
8
</note>
  <anchor x="132.515" y="0.0" name="bottom"/>
  <anchor x="173.41" y="268.79" name="center"/>
  <anchor x="183.165" y="0.95" name="ogonek"/>
  <anchor x="211.965" y="536.2" name="top"/>
  <anchor x="281.775" y="526.8900000000001" name="topright"/>
  <outline>
    <contour>
      <point x="138.85" y="-10.0" type="curve" smooth="yes"/>
      <point x="275.16" y="-10.0"/>
      <point x="325.4" y="246.06000000000003"/>
      <point x="325.4" y="403.935" type="curve" smooth="yes"/>
      <point x="325.4" y="508.49499999999995"/>
      <point x="285.54499999999996" y="546.07"/>
      <point x="203.225" y="546.07" type="curve" smooth="yes"/>
      <point x="66.27" y="546.07"/>
      <point x="16.055" y="287.27000000000004"/>
      <point x="16.055" y="132.1" type="curve" smooth="yes"/>
      <point x="16.055" y="27.66"/>
      <point x="55.47" y="-10.0"/>
    </contour>
    <contour>
      <point x="139.04" y="51.580000000000005" type="curve" smooth="yes"/>
      <point x="102.57000000000001" y="51.580000000000005"/>
      <point x="81.425" y="68.715"/>
      <point x="81.425" y="131.755" type="curve" smooth="yes"/>
      <point x="81.425" y="222.56"/>
      <point x="121.03" y="484.49"/>
      <point x="202.975" y="484.49" type="curve" smooth="yes"/>
      <point x="238.29000000000002" y="484.49"/>
      <point x="260.185" y="467.34499999999997"/>
      <point x="260.185" y="405.58" type="curve" smooth="yes"/>
      <point x="260.185" y="311.2"/>
      <point x="220.95999999999998" y="51.580000000000005"/>
    </contour>
  </outline>
</glyph>
<glyph name="p" format="2">
  <advance width="351.2225"/>
  <unicode hex="0070"/>
  <note>
14 point
</note>
  <outline>
    <contour>
      <point x="-31.127000000000002" y="-210.0" type="line"/>
      <point x="35.069500000000005" y="-210.0" type="line"/>
      <point x="68.2765" y="-1.534" type="line"/>
      <point x="84.7265" y="-6.242"/>
      <point x="103.2955" y="-9.4575"/>
      <point x="126.98349999999999" y="-9.4575" type="curve" smooth="yes"/>
      <point x="258.08500000000004" y="-9.4575"/>
      <point x="334.019" y="182.21"/>
      <point x="334.019" y="383.2895" type="curve" smooth="yes"/>
      <point x="334.019" y="494.119"/>
      <point x="302.65049999999997" y="546.2"/>
      <point x="236.42200000000003" y="546.2" type="curve" smooth="yes"/>
      <point x="200.3495" y="546.2"/>
      <point x="173.428" y="530.997"/>
      <point x="147.6575" y="513.9375000000001" type="curve"/>
      <point x="146.65" y="542.41" type="line"/>
      <point x="87.355" y="542.41" type="line"/>
    </contour>
    <contour>
      <point x="120.0755" y="50.30650000000001" type="curve" smooth="yes"/>
      <point x="104.389" y="50.30650000000001"/>
      <point x="89.85000000000001" y="52.8765"/>
      <point x="77.94149999999999" y="57.904" type="curve"/>
      <point x="141.17849999999999" y="457.71750000000003" type="line"/>
      <point x="160.39249999999998" y="470.766"/>
      <point x="187.1435" y="480.77849999999995"/>
      <point x="207.4945" y="480.77849999999995" type="curve" smooth="yes"/>
      <point x="246.085" y="480.77849999999995"/>
      <point x="265.72900000000004" y="447.7825"/>
      <point x="265.72900000000004" y="373.943" type="curve" smooth="yes"/>
      <point x="265.72900000000004" y="214.76250000000002"/>
      <point x="207.885" y="50.30650000000001"/>
    </contour>
  </outline>
</glyph>
<glyph name="q" format="2">
  <advance width="347.572"/>
  <unicode hex="0071"/>
  <note>
12
</note>
  <outline>
    <contour>
      <point x="343.03549999999996" y="526.222" type="line"/>
      <point x="313.9195" y="536.4015"/>
      <point x="274.10749999999996" y="546.2"/>
      <point x="232.5375" y="546.2" type="curve" smooth="yes"/>
      <point x="75.1145" y="546.2"/>
      <point x="15.211000000000002" y="311.9385"/>
      <point x="15.211000000000002" y="137.26200000000003" type="curve" smooth="yes"/>
      <point x="15.211000000000002" y="37.0535"/>
      <point x="54.50300000000001" y="-10.0"/>
      <point x="115.182" y="-10.0" type="curve" smooth="yes"/>
      <point x="146.6415" y="-10.0"/>
      <point x="172.53750000000002" y="2.3885"/>
      <point x="195.21900000000002" y="19.4055" type="curve"/>
      <point x="157.6405" y="-210.0" type="line"/>
      <point x="225.39" y="-210.0" type="line"/>
    </contour>
    <contour>
      <point x="267.9405" y="477.90950000000004" type="curve"/>
      <point x="204.4965" y="78.60350000000001" type="line"/>
      <point x="184.757" y="62.760999999999996"/>
      <point x="161.5855" y="54.956500000000005"/>
      <point x="141.44049999999996" y="54.956500000000005" type="curve" smooth="yes"/>
      <point x="103.40200000000002" y="54.956500000000005"/>
      <point x="83.413" y="93.962"/>
      <point x="83.413" y="142.0185" type="curve" smooth="yes"/>
      <point x="83.413" y="287.81600000000003"/>
      <point x="128.27749999999997" y="485.58450000000005"/>
      <point x="224.50400000000002" y="485.58450000000005" type="curve" smooth="yes"/>
      <point x="238.79250000000002" y="485.58450000000005"/>
      <point x="254.255" y="482.31600000000003"/>
    </contour>
  </outline>
</glyph>
<glyph name="r" format="2">
  <advance width="242.17499999999998"/>
  <unicode hex="0072"/>
  <anchor x="33.936" y="0.0" name="bottom"/>
  <anchor x="189.99" y="536.2" name="top"/>
  <outline>
    <contour>
      <point x="147.421" y="536.2" type="line"/>
      <point x="86.144" y="536.2" type="line"/>
      <point x="1.1900000000000015" y="0.0" type="line"/>
      <point x="67.427" y="0.0" type="line"/>
      <point x="135.25300000000001" y="426.862" type="line"/>
      <point x="169.257" y="460.139"/>
      <point x="197.44" y="472.88899999999995"/>
      <point x="225.401" y="472.88899999999995" type="curve" smooth="yes"/>
      <point x="238.303" y="472.88899999999995"/>
      <point x="253.771" y="470.69899999999996"/>
      <point x="267.80899999999997" y="466.13" type="curve"/>
      <point x="289.93" y="537.697" type="line"/>
      <point x="275.50699999999995" y="543.9029999999999"/>
      <point x="260.03" y="546.2"/>
      <point x="242.912" y="546.2" type="curve" smooth="yes"/>
      <point x="209.50900000000001" y="546.2"/>
      <point x="175.074" y="528.2680000000001"/>
      <point x="140.02800000000002" y="492.09900000000005" type="curve"/>
    </contour>
  </outline>
</glyph>
<glyph name="s" format="2">
  <advance width="294.135"/>
  <unicode hex="0073"/>
  <anchor x="100.985" y="0.0" name="bottom"/>
  <anchor x="200.68" y="536.2" name="top"/>
  <outline>
    <contour>
      <point x="-18.330000000000002" y="13.864999999999998" type="line"/>
      <point x="12.145" y="-0.985"/>
      <point x="49.605000000000004" y="-10.0"/>
      <point x="96.97" y="-10.0" type="curve" smooth="yes"/>
      <point x="203.04" y="-10.0"/>
      <point x="259.205" y="59.519999999999996"/>
      <point x="259.205" y="153.33499999999998" type="curve" smooth="yes"/>
      <point x="259.205" y="283.995"/>
      <point x="113.47999999999999" y="305.695"/>
      <point x="113.47999999999999" y="397.42" type="curve" smooth="yes"/>
      <point x="113.47999999999999" y="444.435"/>
      <point x="142.37" y="483.12"/>
      <point x="200.255" y="483.12" type="curve" smooth="yes"/>
      <point x="229.59" y="483.12"/>
      <point x="259.16" y="474.65500000000003"/>
      <point x="283.465" y="464.60499999999996" type="curve"/>
      <point x="303.125" y="525.41" type="line"/>
      <point x="280.69000000000005" y="537.365"/>
      <point x="243.965" y="546.2"/>
      <point x="205.985" y="546.2" type="curve" smooth="yes"/>
      <point x="96.91" y="546.2"/>
      <point x="48.230000000000004" y="469.98"/>
      <point x="48.230000000000004" y="390.55" type="curve" smooth="yes"/>
      <point x="48.230000000000004" y="252.03000000000003"/>
      <point x="193.575" y="239.625"/>
      <point x="193.575" y="144.955" type="curve" smooth="yes"/>
      <point x="193.575" y="96.54"/>
      <point x="162.42499999999998" y="52.15"/>
      <point x="100.315" y="52.15" type="curve" smooth="yes"/>
      <point x="66.91999999999999" y="52.15"/>
      <point x="29.919999999999998" y="60.82"/>
      <point x="2.9749999999999996" y="73.5" type="curve"/>
    </contour>
  </outline>
</glyph>
<glyph name="t" format="2">
  <advance width="228.27800000000002"/>
  <unicode hex="0074"/>
  <anchor x="108.22500000000001" y="0.0" name="bottom"/>
  <anchor x="107.072" y="311.018" name="center"/>
  <anchor x="155.54" y="661.931" name="top"/>
  <anchor x="268.353" y="752.32" name="topright"/>
  <outline>
    <contour>
      <point x="191.548" y="62.76" type="line"/>
      <point x="175.81900000000002" y="58.442"/>
      <point x="161.25" y="55.531000000000006"/>
      <point x="148.22299999999998" y="55.531000000000006" type="curve" smooth="yes"/>
      <point x="112.39800000000001" y="55.531000000000006"/>
      <point x="98.294" y="74.027"/>
      <point x="98.294" y="108.936" type="curve" smooth="yes"/>
      <point x="98.294" y="119.531"/>
      <point x="99.884" y="131.095"/>
      <point x="101.64299999999999" y="144.832" type="curve" smooth="yes"/>
      <point x="154.592" y="475.829" type="line"/>
      <point x="259.821" y="475.829" type="line"/>
      <point x="270.106" y="536.2" type="line"/>
      <point x="164.78400000000002" y="536.2" type="line"/>
      <point x="184.396" y="661.931" type="line"/>
      <point x="128.102" y="661.931" type="line"/>
      <point x="98.106" y="536.2" type="line"/>
      <point x="42.492" y="529.7660000000001" type="line"/>
      <point x="33.199999999999996" y="476.10799999999995" type="line"/>
      <point x="87.728" y="476.10799999999995" type="line"/>
      <point x="33.973000000000006" y="138.694" type="line" smooth="yes"/>
      <point x="30.353" y="117.316"/>
      <point x="28.137" y="92.78"/>
      <point x="28.137" y="76.166" type="curve" smooth="yes"/>
      <point x="28.137" y="16.397"/>
      <point x="59.31" y="-10.0"/>
      <point x="113.637" y="-10.0" type="curve" smooth="yes"/>
      <point x="138.36200000000002" y="-10.0"/>
      <point x="163.93200000000002" y="-5.364"/>
      <point x="189.26999999999998" y="5.143000000000001" type="curve"/>
    </contour>
  </outline>
</glyph>
<glyph name="u" format="2">
  <advance width="351.66"/>
  <unicode hex="0075"/>
  <note>
15
</note>
  <anchor x="134.398" y="0.0" name="bottom"/>
  <anchor x="315.615" y="4.9910000000000005" name="ogonek"/>
  <anchor x="214.259124" y="536.2" name="top"/>
  <anchor x="335.789" y="536.2" name="topright"/>
  <outline>
    <contour>
      <point x="95.473" y="-10.0" type="curve" smooth="yes"/>
      <point x="134.388" y="-10.0"/>
      <point x="167.219" y="4.305"/>
      <point x="206.146" y="33.503" type="curve"/>
      <point x="211.853" y="5.543"/>
      <point x="233.105" y="-10.0"/>
      <point x="262.36600000000004" y="-10.0" type="curve" smooth="yes"/>
      <point x="277.434" y="-10.0"/>
      <point x="300.78" y="-4.023000000000001"/>
      <point x="315.615" y="5.332000000000001" type="curve"/>
      <point x="318.37899999999996" y="59.87" type="line"/>
      <point x="308.721" y="56.017"/>
      <point x="298.794" y="53.947"/>
      <point x="293.313" y="53.947" type="curve" smooth="yes"/>
      <point x="277.87100000000004" y="53.947"/>
      <point x="272.791" y="63.049"/>
      <point x="272.791" y="77.478" type="curve" smooth="yes"/>
      <point x="272.791" y="86.79400000000001"/>
      <point x="275.033" y="104.385"/>
      <point x="344.15899999999993" y="536.2" type="curve"/>
      <point x="277.784" y="536.2" type="line"/>
      <point x="206.15200000000002" y="82.324" type="line"/>
      <point x="178.28" y="63.169"/>
      <point x="153.00900000000001" y="53.514"/>
      <point x="127.187" y="53.514" type="curve" smooth="yes"/>
      <point x="98.378" y="53.514"/>
      <point x="83.087" y="73.02"/>
      <point x="83.64500000000001" y="99.275" type="curve" smooth="yes"/>
      <point x="88.667" y="142.16699999999997"/>
      <point x="95.96" y="188.65200000000002"/>
      <point x="150.573" y="536.2" type="curve"/>
      <point x="83.98799999999999" y="536.2" type="line"/>
      <point x="35.970000000000006" y="226.278"/>
      <point x="13.712" y="114.268"/>
      <point x="13.712" y="68.82" type="curve" smooth="yes"/>
      <point x="13.712" y="21.721999999999998"/>
      <point x="43.237" y="-10.0"/>
    </contour>
  </outline>
</glyph>
<glyph name="v" format="2">
  <advance width="316.157"/>
  <unicode hex="0076"/>
  <outline>
    <contour>
      <point x="154.559" y="-2.384" type="line"/>
      <point x="274.357" y="303.469"/>
      <point x="331.753" y="406.985"/>
      <point x="334.421" y="536.2" type="curve"/>
      <point x="265.575" y="536.2" type="line"/>
      <point x="262.757" y="424.63300000000004"/>
      <point x="233.739" y="365.42699999999996"/>
      <point x="123.941" y="72.43499999999999" type="curve"/>
      <point x="118.293" y="536.8900000000001" type="line"/>
      <point x="48.052" y="536.3570000000001" type="line"/>
      <point x="70.685" y="-2.384" type="line"/>
    </contour>
  </outline>
</glyph>
<glyph name="w" format="2">
  <advance width="508.741"/>
  <unicode hex="0077"/>
  <note>
15
</note>
  <anchor x="219.897" y="0.0" name="bottom"/>
  <anchor x="285.317" y="536.2" name="top"/>
  <outline>
    <contour>
      <point x="362.733" y="0.0" type="line"/>
      <point x="480.879" y="327.6410000000001"/>
      <point x="519.0550000000001" y="408.237"/>
      <point x="524.823" y="536.2" type="curve"/>
      <point x="458.488" y="536.2" type="line"/>
      <point x="450.03799999999995" y="417.14099999999996"/>
      <point x="428.859" y="355.485"/>
      <point x="333.97900000000004" y="77.14999999999999" type="curve"/>
      <point x="326.243" y="499.661" type="line"/>
      <point x="250.801" y="499.661" type="line"/>
      <point x="207.412" y="356.86499999999995"/>
      <point x="164.86800000000002" y="216.95199999999997"/>
      <point x="121.10700000000001" y="75.45800000000001" type="curve"/>
      <point x="113.69000000000001" y="536.8900000000001" type="line"/>
      <point x="45.129000000000005" y="536.388" type="line"/>
      <point x="66.85499999999999" y="0.0" type="line"/>
      <point x="149.33399999999997" y="0.0" type="line"/>
      <point x="190.553" y="132.155"/>
      <point x="232.522" y="266.517"/>
      <point x="272.997" y="398.0520000000001" type="curve"/>
      <point x="283.912" y="0.0" type="line"/>
    </contour>
  </outline>
</glyph>
<glyph name="x" format="2">
  <advance width="325.415"/>
  <unicode hex="0078"/>
  <outline>
    <contour>
      <point x="271.2425" y="536.2" type="line"/>
      <point x="266.8025" y="467.40749999999997"/>
      <point x="242.5275" y="400.42"/>
      <point x="174.54" y="311.5375" type="curve"/>
      <point x="131.3675" y="539.865" type="line"/>
      <point x="59.11" y="536.0450000000001" type="line"/>
      <point x="117.7675" y="274.4425" type="line"/>
      <point x="34.8525" y="174.9725"/>
      <point x="-9.8525" y="85.87"/>
      <point x="-16.745" y="0.0" type="curve"/>
      <point x="53.67" y="0.0" type="line"/>
      <point x="60.230000000000004" y="76.00500000000001"/>
      <point x="94.19999999999999" y="146.4925"/>
      <point x="156.945" y="227.325" type="curve"/>
      <point x="202.14249999999998" y="-1.9149999999999996" type="line"/>
      <point x="275.0025" y="0.9224999999999999" type="line"/>
      <point x="213.1575" y="265.9625" type="line"/>
      <point x="301.87" y="369.8975"/>
      <point x="336.8675" y="472.83000000000004"/>
      <point x="341.0475" y="536.2" type="curve"/>
    </contour>
  </outline>
</glyph>
<glyph name="y" format="2">
  <advance width="317.08500000000004"/>
  <unicode hex="0079"/>
  <anchor x="96.4" y="-210.0" name="bottom"/>
  <anchor x="189.35999999999999" y="536.2" name="top"/>
  <outline>
    <contour>
      <point x="271.05499999999995" y="542.41" type="line"/>
      <point x="249.03000000000003" y="362.395"/>
      <point x="195.51999999999998" y="213.13500000000002"/>
      <point x="137.015" y="68.105" type="curve"/>
      <point x="109.45" y="543.1" type="line"/>
      <point x="42.089999999999996" y="541.375" type="line"/>
      <point x="76.71000000000001" y="-0.69" type="line"/>
      <point x="101.82499999999999" y="-0.69" type="line"/>
      <point x="71.27" y="-73.24"/>
      <point x="35.96" y="-140.7"/>
      <point x="-2.86" y="-209.655" type="curve"/>
      <point x="65.1" y="-216.9" type="line"/>
      <point x="192.005" y="29.669999999999998"/>
      <point x="306.695" y="296.31"/>
      <point x="337.88" y="539.995" type="curve"/>
    </contour>
  </outline>
</glyph>
<glyph name="z" format="2">
  <advance width="310.601"/>
  <unicode hex="007A"/>
  <anchor x="125.713" y="0.0" name="bottom"/>
  <anchor x="152.27599999999998" y="275.0" name="center"/>
  <anchor x="200.91799999999998" y="536.2" name="top"/>
  <outline>
    <contour>
      <point x="-14.910000000000002" y="0.0" type="line"/>
      <point x="261.263" y="0.0" type="line"/>
      <point x="270.95899999999995" y="61.995" type="line"/>
      <point x="68.724" y="61.995" type="line"/>
      <point x="318.892" y="476.38100000000003" type="line"/>
      <point x="329.946" y="536.2" type="line"/>
      <point x="74.879" y="536.2" type="line"/>
      <point x="64.873" y="473.647" type="line"/>
      <point x="245.754" y="473.647" type="line"/>
      <point x="-6.648000000000001" y="56.285000000000004" type="line"/>
    </contour>
  </outline>
</glyph>
<glyph name="braceleft" format="2">
  <advance width="228.806"/>
  <unicode hex="007B"/>
  <outline>
    <contour>
      <point x="11.98" y="-110.875" type="curve" smooth="yes"/>
      <point x="11.98" y="-173.43"/>
      <point x="39.408" y="-210.0"/>
      <point x="87.634" y="-210.0" type="curve" smooth="yes"/>
      <point x="126.674" y="-210.0" type="line"/>
      <point x="136.77300000000002" y="-150.01" type="line"/>
      <point x="113.17099999999999" y="-150.01" type="line" smooth="yes"/>
      <point x="84.73799999999999" y="-150.01"/>
      <point x="72.867" y="-126.735"/>
      <point x="72.867" y="-92.432" type="curve" smooth="yes"/>
      <point x="72.867" y="10.192"/>
      <point x="140.06500000000003" y="99.454"/>
      <point x="140.06500000000003" y="197.652" type="curve" smooth="yes"/>
      <point x="140.06500000000003" y="227.52"/>
      <point x="134.22299999999998" y="255.392"/>
      <point x="109.898" y="270.52" type="curve"/>
      <point x="157.383" y="287.27200000000005"/>
      <point x="176.875" y="360.8059999999999"/>
      <point x="176.875" y="418.65" type="curve" smooth="yes"/>
      <point x="176.875" y="461.95500000000004"/>
      <point x="173.931" y="489.97799999999995"/>
      <point x="173.931" y="543.615" type="curve" smooth="yes"/>
      <point x="173.931" y="607.014"/>
      <point x="191.315" y="680.0100000000001"/>
      <point x="248.005" y="680.0100000000001" type="curve" smooth="yes"/>
      <point x="268.56500000000005" y="680.0100000000001" type="line"/>
      <point x="278.10600000000005" y="740.0" type="line"/>
      <point x="242.171" y="740.0" type="line" smooth="yes"/>
      <point x="145.925" y="740.0"/>
      <point x="114.99000000000001" y="634.779"/>
      <point x="114.99000000000001" y="535.3290000000001" type="curve" smooth="yes"/>
      <point x="114.99000000000001" y="483.324"/>
      <point x="118.74000000000001" y="453.11799999999994"/>
      <point x="118.74000000000001" y="419.283" type="curve" smooth="yes"/>
      <point x="118.74000000000001" y="370.13000000000005"/>
      <point x="110.01100000000001" y="302.221"/>
      <point x="68.568" y="302.221" type="curve" smooth="yes"/>
      <point x="54.851" y="302.221" type="line"/>
      <point x="45.031" y="240.472" type="line"/>
      <point x="57.575" y="240.472" type="line" smooth="yes"/>
      <point x="78.622" y="240.472"/>
      <point x="84.08399999999999" y="222.236"/>
      <point x="84.08399999999999" y="198.94000000000003" type="curve" smooth="yes"/>
      <point x="84.08399999999999" y="97.901"/>
      <point x="11.98" y="10.349999999999998"/>
    </contour>
  </outline>
</glyph>
<glyph name="bar" format="2">
  <advance width="142.526"/>
  <unicode hex="007C"/>
  <outline>
    <contour>
      <point x="182.32000000000002" y="790.279" type="line"/>
      <point x="124.02000000000001" y="790.279" type="line"/>
      <point x="-35.07299999999999" y="-210.0" type="line"/>
      <point x="23.474999999999998" y="-210.0" type="line"/>
    </contour>
  </outline>
</glyph>
<glyph name="braceright" format="2">
  <advance width="228.806"/>
  <unicode hex="007D"/>
  <outline>
    <contour>
      <point x="213.757" y="640.875" type="curve" smooth="yes"/>
      <point x="213.757" y="703.709"/>
      <point x="186.05" y="740.279"/>
      <point x="137.824" y="740.279" type="curve" smooth="yes"/>
      <point x="98.78399999999999" y="740.279" type="line"/>
      <point x="88.685" y="680.289" type="line"/>
      <point x="109.497" y="680.289" type="line" smooth="yes"/>
      <point x="138.20899999999997" y="680.289"/>
      <point x="150.35900000000004" y="656.7349999999999"/>
      <point x="150.35900000000004" y="622.432" type="curve" smooth="yes"/>
      <point x="150.35900000000004" y="519.2500000000001"/>
      <point x="83.16100000000002" y="441.157"/>
      <point x="83.16100000000002" y="337.09999999999997" type="curve" smooth="yes"/>
      <point x="83.16100000000002" y="308.069"/>
      <point x="88.724" y="280.19699999999995"/>
      <point x="113.60700000000001" y="265.348" type="curve"/>
      <point x="66.12200000000001" y="248.31699999999998"/>
      <point x="46.351000000000006" y="175.341"/>
      <point x="46.351000000000006" y="117.218" type="curve" smooth="yes"/>
      <point x="46.351000000000006" y="73.913"/>
      <point x="49.295" y="40.301"/>
      <point x="49.295" y="-12.778" type="curve" smooth="yes"/>
      <point x="49.295" y="-76.177"/>
      <point x="32.19" y="-149.731"/>
      <point x="-24.5" y="-149.731" type="curve" smooth="yes"/>
      <point x="-42.828" y="-149.731" type="line"/>
      <point x="-52.369" y="-210.0" type="line"/>
      <point x="-16.712999999999997" y="-210.0" type="line" smooth="yes"/>
      <point x="79.533" y="-210.0"/>
      <point x="110.468" y="-101.152"/>
      <point x="110.468" y="-10.63" type="curve" smooth="yes"/>
      <point x="110.468" y="48.908"/>
      <point x="106.71799999999999" y="85.819"/>
      <point x="106.71799999999999" y="117.701" type="curve" smooth="yes"/>
      <point x="106.71799999999999" y="166.296"/>
      <point x="116.005" y="233.647"/>
      <point x="156.89000000000001" y="233.647" type="curve" smooth="yes"/>
      <point x="170.60699999999997" y="233.647" type="line"/>
      <point x="180.427" y="295.11699999999996" type="line"/>
      <point x="167.88299999999998" y="295.11699999999996" type="line" smooth="yes"/>
      <point x="146.83599999999998" y="295.11699999999996"/>
      <point x="141.374" y="313.353"/>
      <point x="141.374" y="336.649" type="curve" smooth="yes"/>
      <point x="141.374" y="437.967"/>
      <point x="213.757" y="515.744"/>
    </contour>
  </outline>
</glyph>
<glyph name="asciitilde" format="2">
  <advance width="381.437"/>
  <unicode hex="007E"/>
  <outline>
    <contour>
      <point x="321.854" y="248.01" type="curve"/>
      <point x="332.23999999999995" y="315.101" type="line"/>
      <point x="309.998" y="289.97999999999996"/>
      <point x="291.181" y="278.713"/>
      <point x="268.049" y="278.713" type="curve" smooth="yes"/>
      <point x="208.73999999999998" y="278.713"/>
      <point x="194.651" y="381.28999999999996"/>
      <point x="133.67" y="381.28999999999996" type="curve" smooth="yes"/>
      <point x="105.29" y="381.28999999999996"/>
      <point x="82.502" y="366.309"/>
      <point x="67.801" y="348.54499999999996" type="curve"/>
      <point x="57.26" y="281.385" type="line"/>
      <point x="73.964" y="301.37"/>
      <point x="96.111" y="317.45599999999996"/>
      <point x="122.71499999999999" y="317.45599999999996" type="curve" smooth="yes"/>
      <point x="178.926" y="317.45599999999996"/>
      <point x="193.381" y="214.87900000000002"/>
      <point x="258.27299999999997" y="214.87900000000002" type="curve" smooth="yes"/>
      <point x="282.779" y="214.87900000000002"/>
      <point x="301.209" y="224.87599999999998"/>
    </contour>
  </outline>
</glyph>
<glyph name="cent" format="2">
  <advance width="376.326"/>
  <unicode hex="00A2"/>
  <outline>
    <contour>
      <point x="130.887" y="-105.248" type="line"/>
      <point x="189.559" y="-105.248" type="line"/>
      <point x="204.869" y="-7.668" type="line"/>
      <point x="233.034" y="-5.524"/>
      <point x="258.547" y="-0.8039999999999996"/>
      <point x="276.298" y="6.0120000000000005" type="curve"/>
      <point x="274.09" y="71.943" type="line"/>
      <point x="253.6" y="66.26700000000001"/>
      <point x="226.142" y="61.388000000000005"/>
      <point x="207.025" y="61.388000000000005" type="curve" smooth="yes"/>
      <point x="153.684" y="61.388000000000005"/>
      <point x="134.007" y="100.06"/>
      <point x="134.007" y="163.67000000000002" type="curve" smooth="yes"/>
      <point x="134.007" y="330.883"/>
      <point x="191.466" y="473.13599999999997"/>
      <point x="271.874" y="473.13599999999997" type="curve" smooth="yes"/>
      <point x="292.464" y="473.13599999999997"/>
      <point x="311.106" y="469.149"/>
      <point x="329.877" y="463.34599999999995" type="curve"/>
      <point x="352.18399999999997" y="532.913" type="line"/>
      <point x="334.76" y="538.247"/>
      <point x="317.282" y="542.6640000000001"/>
      <point x="296.029" y="544.1840000000001" type="curve"/>
      <point x="311.991" y="640.9209999999999" type="line"/>
      <point x="253.319" y="640.9209999999999" type="line"/>
      <point x="236.70600000000002" y="539.62" type="line"/>
      <point x="129.90200000000002" y="514.5719999999999"/>
      <point x="63.050999999999995" y="338.55699999999996"/>
      <point x="63.050999999999995" y="138.57" type="curve" smooth="yes"/>
      <point x="63.050999999999995" y="44.392999999999994"/>
      <point x="98.614" y="6.599000000000001"/>
      <point x="145.84799999999998" y="-4.257" type="curve"/>
    </contour>
  </outline>
</glyph>
<glyph name="sterling" format="2">
  <advance width="376.512"/>
  <unicode hex="00A3"/>
  <outline>
    <contour>
      <point x="26.101999999999997" y="0.0" type="line"/>
      <point x="283.79999999999995" y="0.0" type="line"/>
      <point x="293.775" y="64.485" type="line"/>
      <point x="115.30399999999999" y="64.485" type="line"/>
      <point x="167.81400000000002" y="131.696"/>
      <point x="202.93" y="196.542"/>
      <point x="202.93" y="293.951" type="curve" smooth="yes"/>
      <point x="202.93" y="351.28"/>
      <point x="185.328" y="403.868"/>
      <point x="185.328" y="461.15900000000005" type="curve" smooth="yes"/>
      <point x="185.328" y="590.042"/>
      <point x="243.15599999999998" y="640.321"/>
      <point x="295.682" y="640.321" type="curve" smooth="yes"/>
      <point x="321.316" y="640.321"/>
      <point x="343.76000000000005" y="635.906"/>
      <point x="368.213" y="624.4879999999999" type="curve"/>
      <point x="390.461" y="685.8499999999999" type="line"/>
      <point x="363.165" y="701.5669999999999"/>
      <point x="328.86" y="710.0"/>
      <point x="296.847" y="710.0" type="curve" smooth="yes"/>
      <point x="191.30499999999998" y="710.0"/>
      <point x="120.17" y="619.558"/>
      <point x="120.17" y="472.35900000000004" type="curve" smooth="yes"/>
      <point x="120.17" y="392.97700000000003"/>
      <point x="139.755" y="353.753"/>
      <point x="139.755" y="284.538" type="curve" smooth="yes"/>
      <point x="139.755" y="183.839"/>
      <point x="91.477" y="117.179"/>
      <point x="32.106" y="51.775" type="curve"/>
    </contour>
    <contour>
      <point x="67.45" y="339.30199999999996" type="line"/>
      <point x="311.161" y="339.37800000000004" type="line"/>
      <point x="318.501" y="390.23199999999997" type="line"/>
      <point x="75.25500000000001" y="390.23199999999997" type="line"/>
    </contour>
  </outline>
</glyph>
<glyph name="currency" format="2">
  <advance width="386.789"/>
  <unicode hex="00A4"/>
  <outline>
    <contour>
      <point x="45.895" y="107.761" type="line"/>
      <point x="118.689" y="176.468" type="line"/>
      <point x="133.06099999999998" y="162.048"/>
      <point x="153.15599999999998" y="154.42700000000002"/>
      <point x="177.049" y="154.42700000000002" type="curve" smooth="yes"/>
      <point x="200.377" y="154.42700000000002"/>
      <point x="223.053" y="162.11700000000002"/>
      <point x="242.279" y="176.22" type="curve"/>
      <point x="293.722" y="107.761" type="line"/>
      <point x="341.421" y="152.54399999999998" type="line"/>
      <point x="292.34000000000003" y="217.438" type="line"/>
      <point x="313.009" y="241.601"/>
      <point x="326.79299999999995" y="273.999"/>
      <point x="327.35099999999994" y="308.72900000000004" type="curve" smooth="yes"/>
      <point x="327.909" y="328.847"/>
      <point x="323.738" y="347.31200000000007"/>
      <point x="315.83799999999997" y="363.538" type="curve"/>
      <point x="385.074" y="428.432" type="line"/>
      <point x="351.72999999999996" y="473.215" type="line"/>
      <point x="279.363" y="405.593" type="line"/>
      <point x="264.377" y="419.765"/>
      <point x="244.113" y="428.35499999999996"/>
      <point x="220.475" y="428.35499999999996" type="curve" smooth="yes"/>
      <point x="196.303" y="428.35499999999996"/>
      <point x="173.169" y="419.486"/>
      <point x="153.447" y="405.34499999999997" type="curve"/>
      <point x="103.872" y="473.215" type="line"/>
      <point x="56.857000000000006" y="428.432" type="line"/>
      <point x="104.688" y="362.919" type="line"/>
      <point x="84.446" y="339.041"/>
      <point x="71.631" y="308.039"/>
      <point x="71.07300000000001" y="274.21500000000003" type="curve" smooth="yes"/>
      <point x="70.515" y="253.245"/>
      <point x="74.407" y="234.066"/>
      <point x="82.33800000000001" y="217.988" type="curve"/>
      <point x="13.172999999999998" y="152.54399999999998" type="line"/>
    </contour>
    <contour>
      <point x="185.73" y="204.34199999999998" type="curve" smooth="yes"/>
      <point x="145.99099999999999" y="204.34199999999998"/>
      <point x="118.716" y="235.073"/>
      <point x="119.553" y="276.888" type="curve" smooth="yes"/>
      <point x="120.39" y="331.955"/>
      <point x="165.34799999999998" y="378.161"/>
      <point x="212.732" y="378.161" type="curve" smooth="yes"/>
      <point x="253.12300000000002" y="378.161"/>
      <point x="279.498" y="346.6"/>
      <point x="278.661" y="304.82200000000006" type="curve" smooth="yes"/>
      <point x="277.82399999999996" y="249.725"/>
      <point x="233.81099999999998" y="204.34199999999998"/>
    </contour>
  </outline>
</glyph>
<glyph name="yen" format="2">
  <advance width="376.55"/>
  <unicode hex="00A5"/>
  <outline>
    <contour>
      <point x="76.0" y="334.62" type="line"/>
      <point x="165.39499999999998" y="334.62" type="line"/>
      <point x="150.64499999999998" y="243.66" type="line"/>
      <point x="62.535000000000004" y="243.66" type="line"/>
      <point x="54.195" y="195.675" type="line"/>
      <point x="143.15" y="195.675" type="line"/>
      <point x="112.355" y="0.0" type="line"/>
      <point x="179.8" y="0.0" type="line"/>
      <point x="210.75" y="195.675" type="line"/>
      <point x="302.96500000000003" y="195.675" type="line"/>
      <point x="310.305" y="243.66" type="line"/>
      <point x="218.09" y="243.66" type="line"/>
      <point x="232.84" y="334.62" type="line"/>
      <point x="324.675" y="334.62" type="line"/>
      <point x="332.55" y="382.39" type="line"/>
      <point x="241.62" y="382.39" type="line"/>
      <point x="399.065" y="700.31" type="line"/>
      <point x="328.28" y="705.52" type="line"/>
      <point x="216.875" y="440.445" type="line"/>
      <point x="183.46" y="701.725" type="line"/>
      <point x="112.23500000000001" y="699.56" type="line"/>
      <point x="172.89" y="382.39" type="line"/>
      <point x="84.03" y="382.39" type="line"/>
    </contour>
  </outline>
</glyph>
<glyph name="brokenbar" format="2">
  <advance width="144.542"/>
  <unicode hex="00A6"/>
  <outline>
    <contour>
      <point x="119.405" y="391.0" type="line"/>
      <point x="183.994" y="790.279" type="line"/>
      <point x="125.69399999999999" y="790.279" type="line"/>
      <point x="61.105" y="391.0" type="line"/>
    </contour>
    <contour>
      <point x="29.237000000000002" y="190.279" type="line"/>
      <point x="-34.452" y="-210.0" type="line"/>
      <point x="23.817000000000004" y="-210.0" type="line"/>
      <point x="87.78500000000001" y="190.279" type="line"/>
    </contour>
  </outline>
</glyph>
<glyph name="section" format="2">
  <advance width="378.81699999999995"/>
  <unicode hex="00A7"/>
  <outline>
    <contour>
      <point x="2.894" y="-112.284" type="curve"/>
      <point x="-27.079" y="-181.139" type="line"/>
      <point x="5.2829999999999995" y="-207.756"/>
      <point x="44.694" y="-220.0"/>
      <point x="82.055" y="-220.0" type="curve" smooth="yes"/>
      <point x="226.69" y="-220.0"/>
      <point x="330.559" y="-42.593"/>
      <point x="330.559" y="146.107" type="curve" smooth="yes"/>
      <point x="330.559" y="308.95899999999995"/>
      <point x="243.25799999999998" y="418.375"/>
      <point x="243.25799999999998" y="558.548" type="curve" smooth="yes"/>
      <point x="243.25799999999998" y="623.7719999999999"/>
      <point x="270.608" y="672.886"/>
      <point x="314.803" y="672.886" type="curve" smooth="yes"/>
      <point x="327.716" y="672.886"/>
      <point x="338.67199999999997" y="668.669"/>
      <point x="352.86600000000004" y="661.355" type="curve"/>
      <point x="380.695" y="732.567" type="line"/>
      <point x="359.056" y="744.041"/>
      <point x="324.873" y="749.279"/>
      <point x="300.269" y="749.279" type="curve" smooth="yes"/>
      <point x="146.35399999999998" y="749.279"/>
      <point x="49.421" y="587.527"/>
      <point x="49.421" y="394.215" type="curve" smooth="yes"/>
      <point x="49.421" y="212.21"/>
      <point x="135.71599999999998" y="83.198"/>
      <point x="135.71599999999998" y="-44.318" type="curve" smooth="yes"/>
      <point x="135.71599999999998" y="-101.07399999999998"/>
      <point x="107.78" y="-144.10299999999998"/>
      <point x="66.76299999999999" y="-144.10299999999998" type="curve" smooth="yes"/>
      <point x="44.532" y="-144.10299999999998"/>
      <point x="20.892" y="-132.36"/>
    </contour>
    <contour>
      <point x="253.73799999999997" y="697.908" type="curve"/>
      <point x="213.54100000000003" y="665.3190000000001"/>
      <point x="194.576" y="606.817"/>
      <point x="194.576" y="552.097" type="curve" smooth="yes"/>
      <point x="194.576" y="394.339"/>
      <point x="279.04800000000006" y="291.945"/>
      <point x="279.04800000000006" y="127.302" type="curve" smooth="yes"/>
      <point x="279.04800000000006" y="-12.074"/>
      <point x="203.433" y="-155.55599999999998"/>
      <point x="111.997" y="-169.97899999999998" type="curve"/>
      <point x="164.28099999999998" y="-138.605"/>
      <point x="185.677" y="-81.622"/>
      <point x="185.677" y="-23.313999999999997" type="curve" smooth="yes"/>
      <point x="185.677" y="111.33800000000001"/>
      <point x="101.368" y="243.285"/>
      <point x="101.368" y="395.825" type="curve" smooth="yes"/>
      <point x="101.368" y="541.5060000000001"/>
      <point x="155.446" y="662.9649999999999"/>
    </contour>
  </outline>
</glyph>
<glyph name="copyright" format="2">
  <advance width="467.107"/>
  <unicode hex="00A9"/>
  <outline>
    <contour>
      <point x="200.294" y="-10.062000000000001" type="curve" smooth="yes"/>
      <point x="368.43199999999996" y="-10.186"/>
      <point x="452.19100000000003" y="265.032"/>
      <point x="452.19100000000003" y="507.277" type="curve" smooth="yes"/>
      <point x="452.19100000000003" y="641.964"/>
      <point x="395.434" y="711.351"/>
      <point x="291.439" y="711.475" type="curve" smooth="yes"/>
      <point x="123.202" y="711.599"/>
      <point x="38.63699999999999" y="437.001"/>
      <point x="38.63699999999999" y="194.19799999999998" type="curve" smooth="yes"/>
      <point x="38.63699999999999" y="59.697"/>
      <point x="95.27" y="-9.938"/>
    </contour>
    <contour>
      <point x="229.753" y="152.004" type="curve" smooth="yes"/>
      <point x="248.054" y="152.004"/>
      <point x="271.85499999999996" y="156.36800000000002"/>
      <point x="286.928" y="162.43899999999996" type="curve"/>
      <point x="285.994" y="205.73499999999999" type="line"/>
      <point x="274.78700000000003" y="201.86499999999998"/>
      <point x="255.812" y="199.36899999999997"/>
      <point x="243.56799999999998" y="199.36899999999997" type="curve" smooth="yes"/>
      <point x="212.71699999999998" y="199.36899999999997"/>
      <point x="196.13" y="226.654"/>
      <point x="196.13" y="271.58" type="curve" smooth="yes"/>
      <point x="196.13" y="377.813"/>
      <point x="234.22799999999998" y="487.55899999999997"/>
      <point x="286.085" y="487.55899999999997" type="curve" smooth="yes"/>
      <point x="300.025" y="487.55899999999997"/>
      <point x="311.397" y="486.37499999999994"/>
      <point x="323.61600000000004" y="481.815" type="curve"/>
      <point x="338.29600000000005" y="530.073" type="line"/>
      <point x="325.55" y="535.315"/>
      <point x="308.822" y="538.551"/>
      <point x="287.372" y="538.551" type="curve" smooth="yes"/>
      <point x="211.995" y="538.551"/>
      <point x="146.386" y="420.62800000000004"/>
      <point x="146.386" y="271.272" type="curve" smooth="yes"/>
      <point x="146.386" y="191.713"/>
      <point x="175.91099999999997" y="152.004"/>
    </contour>
    <contour>
      <point x="202.561" y="20.588" type="curve" smooth="yes"/>
      <point x="116.599" y="20.588"/>
      <point x="71.15299999999999" y="78.176"/>
      <point x="71.15299999999999" y="197.33400000000003" type="curve" smooth="yes"/>
      <point x="71.15299999999999" y="414.59000000000003"/>
      <point x="142.22000000000003" y="680.8870000000001"/>
      <point x="288.701" y="680.8870000000001" type="curve" smooth="yes"/>
      <point x="374.043" y="680.8870000000001"/>
      <point x="419.67499999999995" y="623.237"/>
      <point x="419.67499999999995" y="504.2030000000001" type="curve" smooth="yes"/>
      <point x="419.67499999999995" y="287.07099999999997"/>
      <point x="348.91799999999995" y="20.588"/>
    </contour>
  </outline>
</glyph>
<glyph name="ordfeminine" format="2">
  <advance width="251.504"/>
  <unicode hex="00AA"/>
  <outline>
    <contour>
      <point x="34.777" y="279.026" type="line"/>
      <point x="222.46" y="279.026" type="line"/>
      <point x="228.808" y="318.38300000000004" type="line"/>
      <point x="41.125" y="318.38300000000004" type="line"/>
    </contour>
    <component base="a.superior" xOffset="9.932000000000002"/>
  </outline>
</glyph>
<glyph name="logicalnot" format="2">
  <advance width="376.85999999999996"/>
  <unicode hex="00AC"/>
  <outline>
    <contour>
      <point x="57.226" y="357.776" type="line"/>
      <point x="283.64" y="357.776" type="line"/>
      <point x="255.57600000000002" y="176.78300000000002" type="line"/>
      <point x="317.008" y="176.78300000000002" type="line"/>
      <point x="355.171" y="418.401" type="line"/>
      <point x="67.325" y="418.401" type="line"/>
    </contour>
  </outline>
</glyph>
<glyph name="registered" format="2">
  <advance width="431.78"/>
  <unicode hex="00AE"/>
  <outline>
    <contour>
      <point x="213.333" y="208.376" type="curve" smooth="yes"/>
      <point x="349.745" y="208.376"/>
      <point x="448.955" y="435.415"/>
      <point x="448.955" y="700.879" type="curve" smooth="yes"/>
      <point x="448.955" y="826.404"/>
      <point x="400.085" y="894.0659999999999"/>
      <point x="305.668" y="894.0659999999999" type="curve" smooth="yes"/>
      <point x="169.256" y="894.0659999999999"/>
      <point x="70.608" y="666.7769999999999"/>
      <point x="70.608" y="401.563" type="curve" smooth="yes"/>
      <point x="70.608" y="276.09999999999997"/>
      <point x="118.854" y="208.376"/>
    </contour>
    <contour>
      <point x="214.945" y="236.49699999999999" type="curve" smooth="yes"/>
      <point x="138.813" y="236.49699999999999"/>
      <point x="100.10300000000001" y="295.54"/>
      <point x="100.10300000000001" y="401.98" type="curve" smooth="yes"/>
      <point x="100.10300000000001" y="647.3789999999999"/>
      <point x="185.80499999999998" y="865.7570000000001"/>
      <point x="304.118" y="865.7570000000001" type="curve" smooth="yes"/>
      <point x="380.24999999999994" y="865.7570000000001"/>
      <point x="419.46" y="806.902"/>
      <point x="419.46" y="700.212" type="curve" smooth="yes"/>
      <point x="419.46" y="454.813"/>
      <point x="333.196" y="236.49699999999999"/>
    </contour>
    <contour>
      <point x="160.95200000000003" y="388.06100000000004" type="line"/>
      <point x="205.91400000000002" y="388.06100000000004" type="line"/>
      <point x="227.046" y="518.686" type="line"/>
      <point x="237.454" y="517.3059999999999"/>
      <point x="247.164" y="515.8639999999999"/>
      <point x="261.144" y="516.585" type="curve"/>
      <point x="271.785" y="522.218" type="line"/>
      <point x="325.72900000000004" y="533.039"/>
      <point x="357.045" y="583.896"/>
      <point x="357.045" y="650.62" type="curve" smooth="yes"/>
      <point x="357.045" y="711.6550000000001"/>
      <point x="331.731" y="736.052"/>
      <point x="282.151" y="736.052" type="curve" smooth="yes"/>
      <point x="257.54200000000003" y="736.052"/>
      <point x="238.09600000000003" y="734.023"/>
      <point x="215.061" y="729.961" type="curve"/>
    </contour>
    <contour>
      <point x="256.322" y="553.9710000000001" type="curve" smooth="yes"/>
      <point x="247.20100000000002" y="553.9710000000001"/>
      <point x="240.21599999999998" y="555.442"/>
      <point x="232.737" y="556.38" type="curve"/>
      <point x="253.92900000000003" y="692.0619999999999" type="line"/>
      <point x="264.75300000000004" y="693.909"/>
      <point x="270.635" y="694.909"/>
      <point x="281.281" y="694.909" type="curve" smooth="yes"/>
      <point x="303.34799999999996" y="694.909"/>
      <point x="312.897" y="680.3679999999999"/>
      <point x="312.897" y="650.5699999999999" type="curve" smooth="yes"/>
      <point x="312.897" y="592.3420000000001"/>
      <point x="291.45099999999996" y="553.9710000000001"/>
    </contour>
    <contour>
      <point x="314.38399999999996" y="384.35" type="curve" smooth="yes"/>
      <point x="318.27900000000005" y="384.35"/>
      <point x="325.74300000000005" y="385.658"/>
      <point x="329.729" y="387.49500000000006" type="curve"/>
      <point x="334.668" y="434.941" type="line"/>
      <point x="332.544" y="433.749"/>
      <point x="330.544" y="433.749"/>
      <point x="329.203" y="433.749" type="curve" smooth="yes"/>
      <point x="313.033" y="433.749"/>
      <point x="303.691" y="461.347"/>
      <point x="293.621" y="540.121" type="curve"/>
      <point x="254.25099999999998" y="529.774" type="line"/>
      <point x="270.9549999999999" y="400.49"/>
      <point x="286.30799999999994" y="384.35"/>
    </contour>
  </outline>
</glyph>
<glyph name="degree" format="2">
  <advance width="239.38500000000002"/>
  <unicode hex="00B0"/>
  <outline>
    <contour>
      <point x="151.18999999999997" y="472.198" type="curve" smooth="yes"/>
      <point x="223.158" y="472.198"/>
      <point x="265.07599999999996" y="552.979"/>
      <point x="265.07599999999996" y="629.067" type="curve" smooth="yes"/>
      <point x="265.07599999999996" y="681.938"/>
      <point x="242.11" y="722.358"/>
      <point x="190.104" y="722.358" type="curve" smooth="yes"/>
      <point x="117.27300000000001" y="722.358"/>
      <point x="76.001" y="639.9580000000001"/>
      <point x="76.001" y="564.0079999999999" type="curve" smooth="yes"/>
      <point x="76.001" y="511.363"/>
      <point x="99.679" y="472.198"/>
    </contour>
    <contour>
      <point x="159.14999999999998" y="526.112" type="curve" smooth="yes"/>
      <point x="134.24699999999999" y="526.112"/>
      <point x="123.117" y="546.248"/>
      <point x="123.117" y="574.702" type="curve" smooth="yes"/>
      <point x="123.117" y="620.765"/>
      <point x="144.927" y="667.3280000000001"/>
      <point x="181.648" y="667.3280000000001" type="curve" smooth="yes"/>
      <point x="207.006" y="667.3280000000001"/>
      <point x="217.998" y="645.9119999999999"/>
      <point x="217.998" y="617.637" type="curve" smooth="yes"/>
      <point x="217.998" y="571.4699999999999"/>
      <point x="195.80900000000003" y="526.112"/>
    </contour>
  </outline>
</glyph>
<glyph name="plusminus" format="2">
  <advance width="378.164"/>
  <unicode hex="00B1"/>
  <outline>
    <contour>
      <point x="300.20700000000005" y="51.029" type="line"/>
      <point x="310.30600000000004" y="115.065" type="line"/>
      <point x="193.731" y="115.065" type="line"/>
      <point x="220.586" y="283.128" type="line"/>
      <point x="336.54" y="283.128" type="line"/>
      <point x="346.639" y="347.164" type="line"/>
      <point x="230.685" y="347.164" type="line"/>
      <point x="257.981" y="504.3" type="line"/>
      <point x="197.665" y="504.3" type="line"/>
      <point x="170.928" y="347.164" type="line"/>
      <point x="53.825" y="347.164" type="line"/>
      <point x="43.726" y="283.128" type="line"/>
      <point x="160.27" y="283.128" type="line"/>
      <point x="133.353" y="115.065" type="line"/>
      <point x="17.492" y="115.065" type="line"/>
      <point x="7.393000000000001" y="51.029" type="line"/>
    </contour>
  </outline>
</glyph>
<glyph name="uni00B2" format="2">
  <advance width="246.73499999999999"/>
  <unicode hex="00B2"/>
  <outline>
    <contour>
      <point x="50.550000000000004" y="368.087" type="line"/>
      <point x="222.034" y="368.087" type="line"/>
      <point x="228.062" y="406.012" type="line"/>
      <point x="109.934" y="406.012" type="line"/>
      <point x="182.727" y="503.608"/>
      <point x="254.54399999999998" y="604.9839999999999"/>
      <point x="254.54399999999998" y="700.343" type="curve" smooth="yes"/>
      <point x="254.54399999999998" y="745.6170000000001"/>
      <point x="230.726" y="773.122"/>
      <point x="188.602" y="773.122" type="curve" smooth="yes"/>
      <point x="157.97" y="773.122"/>
      <point x="127.431" y="761.101"/>
      <point x="102.43" y="738.878" type="curve"/>
      <point x="114.844" y="698.114" type="line"/>
      <point x="136.88899999999998" y="716.332"/>
      <point x="152.00900000000001" y="722.7370000000001"/>
      <point x="170.98" y="722.7370000000001" type="curve" smooth="yes"/>
      <point x="192.96699999999998" y="722.7370000000001"/>
      <point x="203.886" y="705.779"/>
      <point x="203.886" y="678.797" type="curve" smooth="yes"/>
      <point x="203.165" y="602.305"/>
      <point x="123.524" y="485.375"/>
      <point x="54.108999999999995" y="401.183" type="curve"/>
    </contour>
  </outline>
</glyph>
<glyph name="uni00B3" format="2">
  <advance width="254.5225"/>
  <unicode hex="00B3"/>
  <outline>
    <contour>
      <point x="45.089999999999996" y="394.2075" type="line"/>
      <point x="64.4475" y="374.4475"/>
      <point x="90.46249999999999" y="364.46500000000003"/>
      <point x="122.8" y="364.46500000000003" type="curve" smooth="yes"/>
      <point x="195.4375" y="364.46500000000003"/>
      <point x="244.9975" y="427.7175"/>
      <point x="244.9975" y="511.5825" type="curve" smooth="yes"/>
      <point x="244.9975" y="546.7675"/>
      <point x="231.0275" y="569.95"/>
      <point x="211.11499999999998" y="578.9825" type="curve"/>
      <point x="242.63500000000002" y="597.2975"/>
      <point x="267.05499999999995" y="641.1750000000001"/>
      <point x="267.05499999999995" y="694.2950000000001" type="curve" smooth="yes"/>
      <point x="267.05499999999995" y="746.0875"/>
      <point x="235.58749999999998" y="774.1975"/>
      <point x="188.3125" y="774.1975" type="curve" smooth="yes"/>
      <point x="161.77" y="774.1975"/>
      <point x="133.3725" y="767.0625"/>
      <point x="108.47000000000001" y="749.5375" type="curve"/>
      <point x="119.86500000000001" y="714.7175" type="line"/>
      <point x="136.9525" y="725.125"/>
      <point x="157.1575" y="729.78"/>
      <point x="173.95749999999998" y="729.78" type="curve" smooth="yes"/>
      <point x="201.595" y="729.78"/>
      <point x="219.20999999999998" y="712.4325"/>
      <point x="219.20999999999998" y="678.6125000000001" type="curve" smooth="yes"/>
      <point x="219.20999999999998" y="633.09"/>
      <point x="194.725" y="593.905"/>
      <point x="164.025" y="593.905" type="curve" smooth="yes"/>
      <point x="129.51500000000001" y="593.905" type="line"/>
      <point x="123.64" y="559.22" type="line"/>
      <point x="160.47750000000002" y="559.22" type="line" smooth="yes"/>
      <point x="187.105" y="559.22"/>
      <point x="201.175" y="542.0975"/>
      <point x="201.175" y="509.69249999999994" type="curve" smooth="yes"/>
      <point x="201.175" y="459.92"/>
      <point x="175.88750000000002" y="407.255"/>
      <point x="122.74" y="407.255" type="curve" smooth="yes"/>
      <point x="101.1275" y="407.255"/>
      <point x="83.95500000000001" y="414.1875"/>
      <point x="69.0" y="429.19" type="curve"/>
    </contour>
  </outline>
</glyph>
<glyph name="uni00B5" format="2">
  <advance width="354.033"/>
  <unicode hex="00B5"/>
  <outline>
    <contour>
      <point x="-30.746999999999996" y="-210.0" type="line"/>
      <point x="35.154999999999994" y="-210.0" type="line"/>
      <point x="70.705" y="13.936" type="line"/>
      <point x="78.056" y="-2.3100000000000005"/>
      <point x="93.37" y="-10.0"/>
      <point x="114.276" y="-10.0" type="curve" smooth="yes"/>
      <point x="146.09199999999998" y="-10.0"/>
      <point x="176.97" y="2.3520000000000003"/>
      <point x="211.03" y="30.155" type="curve"/>
      <point x="216.737" y="4.984999999999999"/>
      <point x="236.873" y="-10.0"/>
      <point x="264.73900000000003" y="-10.0" type="curve" smooth="yes"/>
      <point x="279.807" y="-10.0"/>
      <point x="303.153" y="-4.023000000000001"/>
      <point x="317.98799999999994" y="5.332000000000001" type="curve"/>
      <point x="320.752" y="59.87" type="line"/>
      <point x="311.09400000000005" y="56.017"/>
      <point x="301.16700000000003" y="53.947"/>
      <point x="295.68600000000004" y="53.947" type="curve" smooth="yes"/>
      <point x="280.244" y="53.947"/>
      <point x="275.16400000000004" y="63.049"/>
      <point x="275.16400000000004" y="77.478" type="curve" smooth="yes"/>
      <point x="275.16400000000004" y="86.79400000000001"/>
      <point x="277.406" y="104.385"/>
      <point x="346.532" y="536.2" type="curve"/>
      <point x="280.157" y="536.2" type="line"/>
      <point x="208.52499999999998" y="82.324" type="line"/>
      <point x="180.65300000000002" y="63.169"/>
      <point x="150.41400000000002" y="53.514"/>
      <point x="128.31799999999998" y="53.514" type="curve" smooth="yes"/>
      <point x="99.509" y="53.514"/>
      <point x="84.83900000000001" y="69.91499999999999"/>
      <point x="85.397" y="96.17" type="curve" smooth="yes"/>
      <point x="91.81400000000002" y="141.546"/>
      <point x="111.374" y="273.108"/>
      <point x="152.94599999999997" y="536.2" type="curve"/>
      <point x="86.361" y="536.2" type="line"/>
    </contour>
  </outline>
</glyph>
<glyph name="paragraph" format="2">
  <advance width="438.37899999999996"/>
  <unicode hex="00B6"/>
  <outline>
    <contour>
      <point x="262.476" y="-210.0" type="line"/>
      <point x="315.909" y="-210.0" type="line"/>
      <point x="466.777" y="740.0" type="line"/>
      <point x="413.344" y="740.0" type="line"/>
    </contour>
    <contour>
      <point x="177.555" y="250.80100000000002" type="line"/>
      <point x="132.691" y="261.518"/>
      <point x="107.83099999999999" y="309.97700000000003"/>
      <point x="107.83099999999999" y="383.357" type="curve" smooth="yes"/>
      <point x="107.83099999999999" y="527.961"/>
      <point x="167.281" y="671.743"/>
      <point x="277.433" y="676.2339999999999" type="curve"/>
      <point x="137.191" y="-210.0" type="line"/>
      <point x="190.62399999999997" y="-210.0" type="line"/>
      <point x="341.492" y="740.0" type="line"/>
      <point x="306.092" y="740.0" type="line" smooth="yes"/>
      <point x="141.32999999999998" y="740.0"/>
      <point x="48.246" y="568.039"/>
      <point x="48.246" y="379.22299999999996" type="curve" smooth="yes"/>
      <point x="48.246" y="284.512"/>
      <point x="84.956" y="217.851"/>
      <point x="162.17000000000002" y="199.56699999999998" type="curve"/>
    </contour>
  </outline>
</glyph>
<glyph name="periodcentered" format="2">
  <advance width="135.82500000000002"/>
  <unicode hex="00B7"/>
  <outline>
    <contour>
      <point x="31.599500000000003" y="287.1215" type="curve" smooth="yes"/>
      <point x="30.2575" y="261.3765"/>
      <point x="38.579" y="251.32250000000002"/>
      <point x="63.910500000000006" y="251.32250000000002" type="curve" smooth="yes"/>
      <point x="99.62100000000001" y="251.32250000000002"/>
      <point x="109.2235" y="279.9125"/>
      <point x="110.64149999999998" y="312.37600000000003" type="curve" smooth="yes"/>
      <point x="111.98349999999999" y="337.0815"/>
      <point x="104.08149999999999" y="347.71000000000004"/>
      <point x="79.1375" y="347.71000000000004" type="curve" smooth="yes"/>
      <point x="43.9695" y="347.71000000000004"/>
      <point x="33.017500000000005" y="319.43"/>
    </contour>
  </outline>
</glyph>
<glyph name="uni00B9" format="2">
  <advance width="241.042"/>
  <unicode hex="00B9"/>
  <outline>
    <contour>
      <point x="42.851" y="370.0" type="line"/>
      <point x="232.238" y="370.0" type="line"/>
      <point x="238.981" y="410.61499999999995" type="line"/>
      <point x="171.927" y="410.61499999999995" type="line"/>
      <point x="230.79500000000002" y="769.1179999999999" type="line"/>
      <point x="205.387" y="769.1179999999999" type="line"/>
      <point x="94.751" y="707.494" type="line"/>
      <point x="100.53899999999999" y="664.402" type="line"/>
      <point x="174.034" y="709.098" type="line"/>
      <point x="125.384" y="410.61499999999995" type="line"/>
      <point x="49.588" y="410.61499999999995" type="line"/>
    </contour>
  </outline>
</glyph>
<glyph name="ordmasculine" format="2">
  <advance width="238.838"/>
  <unicode hex="00BA"/>
  <outline>
    <contour>
      <point x="34.632" y="279.026" type="line"/>
      <point x="202.88899999999998" y="279.026" type="line"/>
      <point x="208.616" y="318.38300000000004" type="line"/>
      <point x="40.359" y="318.38300000000004" type="line"/>
    </contour>
    <component base="o.superior" xOffset="14.21"/>
  </outline>
</glyph>
<glyph name="AE" format="2">
  <advance width="535.0805"/>
  <unicode hex="00C6"/>
  <anchor x="235.387102" y="0.0" name="bottom"/>
  <anchor x="354.12550000000005" y="700.0" name="top"/>
  <outline>
    <contour>
      <point x="209.5645" y="0.0" type="line"/>
      <point x="476.00899999999996" y="0.0" type="line"/>
      <point x="486.13900000000007" y="64.33749999999999" type="line"/>
      <point x="286.3569999999999" y="64.33749999999999" type="line"/>
      <point x="325.6285" y="315.584" type="line"/>
      <point x="495.5519999999999" y="315.584" type="line"/>
      <point x="505.83700000000005" y="377.5965" type="line"/>
      <point x="335.6809999999999" y="377.5965" type="line"/>
      <point x="376.29" y="634.5" type="line"/>
      <point x="565.303" y="634.5" type="line"/>
      <point x="576.6275000000002" y="700.0" type="line"/>
      <point x="272.8415" y="700.0" type="line"/>
      <point x="-38.74899999999999" y="0.0" type="line"/>
      <point x="33.5515" y="0.0" type="line"/>
      <point x="152.0905" y="262.57400000000007" type="line"/>
      <point x="250.44099999999995" y="262.57400000000007" type="line"/>
    </contour>
    <contour>
      <point x="175.81400000000002" y="325.9815" type="line"/>
      <point x="309.90549999999996" y="641.379" type="line"/>
      <point x="260.416" y="325.9815" type="line"/>
    </contour>
  </outline>
</glyph>
<glyph name="multiply" format="2">
  <advance width="360.194"/>
  <unicode hex="00D7"/>
  <outline>
    <contour>
      <point x="62.996" y="100.9475" type="line"/>
      <point x="177.0675" y="253.711" type="line"/>
      <point x="241.72299999999998" y="101.1755" type="line"/>
      <point x="291.5405" y="144.3105" type="line"/>
      <point x="224.24499999999998" y="303.5395" type="line"/>
      <point x="344.402" y="465.0755" type="line"/>
      <point x="306.73699999999997" y="507.9385" type="line"/>
      <point x="192.0605" y="354.1809999999999" type="line"/>
      <point x="126.595" y="507.9385" type="line"/>
      <point x="76.545" y="465.1135" type="line"/>
      <point x="144.15349999999998" y="304.61699999999996" type="line"/>
      <point x="25.098499999999998" y="143.65550000000002" type="line"/>
    </contour>
  </outline>
</glyph>
<glyph name="Oslash" format="2">
  <advance width="412.67"/>
  <unicode hex="00D8"/>
  <anchor x="266.81" y="700.0" name="top"/>
  <outline>
    <contour>
      <point x="440.5" y="710.0" type="line"/>
      <point x="387.14" y="710.0" type="line"/>
      <point x="344.77500000000003" y="638.14" type="line"/>
      <point x="341.785" y="638.76" type="line"/>
      <point x="66.045" y="117.1" type="line"/>
      <point x="63.51999999999999" y="118.185" type="line"/>
      <point x="-7.61" y="-6.9" type="line"/>
      <point x="45.81" y="-6.9" type="line"/>
      <point x="86.78999999999999" y="63.06" type="line"/>
      <point x="89.77999999999999" y="62.44" type="line"/>
      <point x="367.13" y="586.69" type="line"/>
      <point x="369.655" y="585.605" type="line"/>
    </contour>
    <contour>
      <point x="170.34" y="-9.69" type="curve" smooth="yes"/>
      <point x="329.415" y="-9.69"/>
      <point x="408.255" y="288.40500000000003"/>
      <point x="408.255" y="516.0799999999999" type="curve" smooth="yes"/>
      <point x="408.255" y="650.2850000000001"/>
      <point x="361.59999999999997" y="709.69"/>
      <point x="263.17999999999995" y="709.69" type="curve" smooth="yes"/>
      <point x="106.42999999999999" y="709.69"/>
      <point x="25.265" y="411.75"/>
      <point x="25.265" y="184.23" type="curve" smooth="yes"/>
      <point x="25.265" y="49.56"/>
      <point x="71.92" y="-9.69"/>
    </contour>
    <contour>
      <point x="174.87" y="54.5" type="curve" smooth="yes"/>
      <point x="121.0" y="54.5"/>
      <point x="91.695" y="89.52"/>
      <point x="91.695" y="180.48499999999999" type="curve" smooth="yes"/>
      <point x="91.695" y="363.54499999999996"/>
      <point x="159.34" y="645.5"/>
      <point x="260.2" y="645.5" type="curve" smooth="yes"/>
      <point x="313.14" y="645.5"/>
      <point x="342.28999999999996" y="610.945"/>
      <point x="342.28999999999996" y="520.4449999999999" type="curve" smooth="yes"/>
      <point x="342.28999999999996" y="342.34499999999997"/>
      <point x="274.49" y="54.5"/>
    </contour>
  </outline>
</glyph>
<glyph name="Thorn" format="2">
  <advance width="365.85999999999996"/>
  <unicode hex="00DE"/>
  <outline>
    <contour>
      <point x="0.5950000000000002" y="0.0" type="line"/>
      <point x="68.1875" y="0.0" type="line"/>
      <point x="92.59" y="152.235" type="line"/>
      <point x="117.92249999999999" y="150.1325"/>
      <point x="138.8525" y="150.055"/>
      <point x="164.7425" y="150.055" type="curve" smooth="yes"/>
      <point x="288.7375" y="150.055"/>
      <point x="368.9525" y="271.42"/>
      <point x="368.9525" y="457.135" type="curve" smooth="yes"/>
      <point x="368.9525" y="560.355"/>
      <point x="326.6475" y="612.81"/>
      <point x="221.73499999999999" y="612.81" type="curve" smooth="yes"/>
      <point x="207.1275" y="612.81"/>
      <point x="189.5975" y="612.0425"/>
      <point x="164.685" y="610.145" type="curve"/>
      <point x="178.9625" y="700.0" type="line"/>
      <point x="111.37" y="700.0" type="line"/>
    </contour>
    <contour>
      <point x="160.8825" y="212.67" type="curve" smooth="yes"/>
      <point x="134.545" y="212.67"/>
      <point x="121.3775" y="213.35999999999999"/>
      <point x="103.4175" y="215.0925" type="curve"/>
      <point x="155.01250000000002" y="545.9875000000001" type="line"/>
      <point x="182.32" y="549.1"/>
      <point x="197.885" y="550.1"/>
      <point x="213.775" y="550.1" type="curve" smooth="yes"/>
      <point x="274.99" y="550.1"/>
      <point x="302.0575" y="521.6725"/>
      <point x="302.0575" y="449.81" type="curve" smooth="yes"/>
      <point x="302.0575" y="309.24"/>
      <point x="249.10750000000002" y="212.67"/>
    </contour>
  </outline>
</glyph>
<glyph name="germandbls" format="2">
  <advance width="423.9775"/>
  <unicode hex="00DF"/>
  <outline>
    <contour>
      <point x="15.185" y="-43.525000000000006" type="line" smooth="yes"/>
      <point x="3.9499999999999997" y="-113.16000000000001"/>
      <point x="-15.017500000000002" y="-156.0025"/>
      <point x="-61.25499999999999" y="-156.0025" type="curve" smooth="yes"/>
      <point x="-74.16250000000001" y="-156.0025"/>
      <point x="-85.25" y="-154.4675"/>
      <point x="-101.3975" y="-149.2775" type="curve"/>
      <point x="-118.80499999999999" y="-208.85750000000002" type="line"/>
      <point x="-98.80250000000001" y="-216.605"/>
      <point x="-77.21249999999999" y="-220.0"/>
      <point x="-54.54500000000001" y="-220.0" type="curve" smooth="yes"/>
      <point x="25.0925" y="-220.0"/>
      <point x="63.29" y="-161.575"/>
      <point x="81.00249999999998" y="-48.912499999999994" type="curve" smooth="yes"/>
      <point x="172.1125" y="529.1624999999999" type="line" smooth="yes"/>
      <point x="187.9525" y="628.3575"/>
      <point x="225.10750000000002" y="685.6024999999998"/>
      <point x="293.48249999999996" y="685.6024999999998" type="curve" smooth="yes"/>
      <point x="332.81000000000006" y="685.6024999999998"/>
      <point x="354.46750000000003" y="670.2199999999999"/>
      <point x="354.46750000000003" y="633.0625" type="curve" smooth="yes"/>
      <point x="354.46750000000003" y="595.69"/>
      <point x="339.4475" y="571.4075"/>
      <point x="288.7825" y="533.3125" type="curve" smooth="yes"/>
      <point x="229.405" y="488.98499999999996"/>
      <point x="199.5925" y="448.2475"/>
      <point x="199.5925" y="378.265" type="curve" smooth="yes"/>
      <point x="199.5925" y="320.10499999999996"/>
      <point x="230.905" y="280.48249999999996"/>
      <point x="281.185" y="238.17" type="curve" smooth="yes"/>
      <point x="322.2" y="203.885"/>
      <point x="335.22749999999996" y="182.0675"/>
      <point x="335.22749999999996" y="148.59" type="curve" smooth="yes"/>
      <point x="335.22749999999996" y="94.79499999999999"/>
      <point x="295.02" y="53.5375"/>
      <point x="238.51749999999998" y="53.5375" type="curve" smooth="yes"/>
      <point x="207.02" y="53.5375"/>
      <point x="173.87750000000003" y="60.9775"/>
      <point x="146.57000000000002" y="72.435" type="curve"/>
      <point x="128.1925" y="14.3425" type="line"/>
      <point x="156.6025" y="-0.20000000000000012"/>
      <point x="195.71" y="-10.0"/>
      <point x="237.81" y="-10.0" type="curve" smooth="yes"/>
      <point x="341.69" y="-10.0"/>
      <point x="403.3025" y="55.9375"/>
      <point x="403.3025" y="156.69750000000002" type="curve" smooth="yes"/>
      <point x="403.3025" y="212.815"/>
      <point x="379.31000000000006" y="247.665"/>
      <point x="329.5725" y="290.62500000000006" type="curve" smooth="yes"/>
      <point x="281.31" y="333.3"/>
      <point x="264.265" y="353.7825"/>
      <point x="264.265" y="387.87000000000006" type="curve" smooth="yes"/>
      <point x="264.265" y="426.3225"/>
      <point x="282.57" y="451.55499999999995"/>
      <point x="338.0325" y="492.85" type="curve" smooth="yes"/>
      <point x="397.30750000000006" y="537.345"/>
      <point x="423.47999999999996" y="573.7025"/>
      <point x="423.47999999999996" y="640.395" type="curve" smooth="yes"/>
      <point x="423.47999999999996" y="713.135"/>
      <point x="376.43" y="750.0"/>
      <point x="298.305" y="750.0" type="curve" smooth="yes"/>
      <point x="185.31249999999997" y="750.0"/>
      <point x="128.73250000000002" y="677.6775"/>
      <point x="107.095" y="538.5925000000001" type="curve" smooth="yes"/>
      <point x="100.73" y="496.6325" type="line"/>
      <point x="42.8525" y="489.685" type="line"/>
      <point x="33.627500000000005" y="435.765" type="line"/>
      <point x="90.28" y="435.765" type="line"/>
    </contour>
  </outline>
</glyph>
<glyph name="ae" format="2">
  <advance width="543.715"/>
  <unicode hex="00E6"/>
  <anchor x="240.33" y="0.0" name="bottom"/>
  <anchor x="316.575" y="536.2" name="top"/>
  <outline>
    <contour>
      <point x="118.28999999999999" y="-10.0" type="curve" smooth="yes"/>
      <point x="149.98" y="-10.0"/>
      <point x="176.575" y="0.4149999999999999"/>
      <point x="199.57999999999998" y="22.355" type="curve"/>
      <point x="194.64999999999998" y="-5.545000000000001" type="line"/>
      <point x="256.82500000000005" y="-5.545000000000001" type="line"/>
      <point x="271.945" y="88.545" type="line"/>
      <point x="286.29" y="28.17"/>
      <point x="327.755" y="-9.38"/>
      <point x="386.36999999999995" y="-9.38" type="curve" smooth="yes"/>
      <point x="424.42" y="-9.38"/>
      <point x="464.815" y="-0.38"/>
      <point x="495.19" y="17.994999999999997" type="curve"/>
      <point x="484.47" y="77.24" type="line"/>
      <point x="450.86" y="61.81"/>
      <point x="420.78999999999996" y="54.215"/>
      <point x="390.20500000000004" y="54.215" type="curve" smooth="yes"/>
      <point x="332.825" y="54.215"/>
      <point x="296.15" y="105.605"/>
      <point x="296.15" y="188.78" type="curve" smooth="yes"/>
      <point x="296.15" y="351.955"/>
      <point x="353.15999999999997" y="486.17"/>
      <point x="434.87" y="486.17" type="curve" smooth="yes"/>
      <point x="469.34" y="486.17"/>
      <point x="484.75" y="468.63500000000005"/>
      <point x="484.75" y="433.99" type="curve" smooth="yes"/>
      <point x="484.75" y="378.375"/>
      <point x="441.34999999999997" y="327.515"/>
      <point x="373.74" y="298.94" type="curve" smooth="yes"/>
      <point x="344.88" y="286.23"/>
      <point x="312.95" y="278.875"/>
      <point x="279.755" y="276.83" type="curve"/>
      <point x="271.37500000000006" y="225.195" type="line"/>
      <point x="308.235" y="226.835"/>
      <point x="349.52000000000004" y="233.905"/>
      <point x="386.16499999999996" y="248.32000000000002" type="curve" smooth="yes"/>
      <point x="483.935" y="283.98499999999996"/>
      <point x="548.475" y="357.54"/>
      <point x="548.475" y="446.065" type="curve" smooth="yes"/>
      <point x="548.475" y="507.58"/>
      <point x="516.245" y="546.2"/>
      <point x="456.86499999999995" y="546.2" type="curve" smooth="yes"/>
      <point x="405.46" y="546.2"/>
      <point x="360.625" y="516.25"/>
      <point x="328.26" y="459.71999999999997" type="curve"/>
      <point x="342.26500000000004" y="545.2" type="line"/>
      <point x="281.92499999999995" y="545.2" type="line"/>
      <point x="278.96" y="527.41" type="line"/>
      <point x="262.77000000000004" y="540.89"/>
      <point x="241.46" y="546.2"/>
      <point x="220.515" y="546.2" type="curve" smooth="yes"/>
      <point x="102.245" y="546.2"/>
      <point x="16.565" y="383.88500000000005"/>
      <point x="16.565" y="148.02" type="curve" smooth="yes"/>
      <point x="16.565" y="45.815000000000005"/>
      <point x="53.535" y="-10.0"/>
    </contour>
    <contour>
      <point x="144.07999999999998" y="47.68" type="curve" smooth="yes"/>
      <point x="108.3" y="47.68"/>
      <point x="85.94" y="84.375"/>
      <point x="85.94" y="150.855" type="curve" smooth="yes"/>
      <point x="85.94" y="325.74"/>
      <point x="147.29000000000002" y="485.8"/>
      <point x="227.35" y="485.8" type="curve" smooth="yes"/>
      <point x="243.19" y="485.8"/>
      <point x="258.47999999999996" y="482.445"/>
      <point x="270.38000000000005" y="471.76" type="curve"/>
      <point x="207.23" y="69.36" type="line"/>
      <point x="189.82" y="56.425"/>
      <point x="166.16500000000002" y="47.68"/>
    </contour>
  </outline>
</glyph>
<glyph name="eth" format="2">
  <advance width="350.185"/>
  <unicode hex="00F0"/>
  <outline>
    <contour>
      <point x="294.265" y="450.955" type="curve"/>
      <point x="306.455" y="505.27000000000004" type="line"/>
      <point x="284.475" y="525.04"/>
      <point x="250.7" y="534.62"/>
      <point x="217.395" y="534.62" type="curve" smooth="yes"/>
      <point x="78.72999999999999" y="534.62"/>
      <point x="14.885000000000002" y="320.02000000000004"/>
      <point x="14.885000000000002" y="144.12499999999997" type="curve" smooth="yes"/>
      <point x="14.885000000000002" y="36.805"/>
      <point x="59.63" y="-9.845"/>
      <point x="137.005" y="-9.845" type="curve" smooth="yes"/>
      <point x="242.55999999999997" y="-9.845"/>
      <point x="293.105" y="69.715"/>
      <point x="331.69000000000005" y="312.99" type="curve" smooth="yes"/>
      <point x="344.46000000000004" y="394.645"/>
      <point x="352.28" y="459.46500000000003"/>
      <point x="352.28" y="512.075" type="curve" smooth="yes"/>
      <point x="352.28" y="652.5699999999999"/>
      <point x="294.21000000000004" y="724.105"/>
      <point x="174.6" y="724.105" type="curve" smooth="yes"/>
      <point x="146.23" y="724.105"/>
      <point x="116.7" y="718.1949999999999"/>
      <point x="88.995" y="711.42" type="curve"/>
      <point x="92.77" y="659.14" type="line"/>
      <point x="115.48" y="663.865"/>
      <point x="136.185" y="667.95"/>
      <point x="163.035" y="667.95" type="curve" smooth="yes"/>
      <point x="247.47" y="667.95"/>
      <point x="285.885" y="626.5799999999999"/>
      <point x="285.885" y="522.76" type="curve" smooth="yes"/>
      <point x="285.885" y="473.82"/>
      <point x="280.36500000000007" y="408.78999999999996"/>
      <point x="266.785" y="326.03499999999997" type="curve" smooth="yes"/>
      <point x="230.845" y="105.055"/>
      <point x="197.57" y="44.14"/>
      <point x="142.34500000000003" y="44.14" type="curve" smooth="yes"/>
      <point x="101.735" y="44.14"/>
      <point x="79.325" y="71.96000000000001"/>
      <point x="79.325" y="132.92000000000002" type="curve" smooth="yes"/>
      <point x="79.325" y="267.35999999999996"/>
      <point x="128.275" y="479.64500000000004"/>
      <point x="225.67" y="479.64500000000004" type="curve" smooth="yes"/>
      <point x="249.575" y="479.64500000000004"/>
      <point x="274.84000000000003" y="472.69500000000005"/>
    </contour>
    <contour>
      <point x="153.19" y="562.275" type="line"/>
      <point x="282.345" y="645.0849999999999" type="line"/>
      <point x="281.545" y="647.875" type="line"/>
      <point x="406.27" y="727.8149999999999" type="line"/>
      <point x="342.015" y="727.8149999999999" type="line"/>
      <point x="255.72000000000003" y="672.9150000000001" type="line"/>
      <point x="257.355" y="670.59" type="line"/>
      <point x="88.96000000000001" y="562.275" type="line"/>
    </contour>
  </outline>
</glyph>
<glyph name="divide" format="2">
  <advance width="378.039"/>
  <unicode hex="00F7"/>
  <outline>
    <contour>
      <point x="125.86700000000002" y="105.98700000000001" type="curve" smooth="yes"/>
      <point x="124.86700000000002" y="87.25399999999999"/>
      <point x="133.266" y="79.09200000000001"/>
      <point x="156.62800000000001" y="79.09200000000001" type="curve" smooth="yes"/>
      <point x="186.964" y="79.09200000000001"/>
      <point x="198.472" y="91.56200000000001"/>
      <point x="200.85200000000003" y="130.837" type="curve" smooth="yes"/>
      <point x="201.85200000000003" y="150.377"/>
      <point x="192.149" y="157.732"/>
      <point x="170.214" y="157.732" type="curve" smooth="yes"/>
      <point x="139.477" y="157.732"/>
      <point x="128.24699999999999" y="140.767"/>
    </contour>
    <contour>
      <point x="184.79" y="471.96299999999997" type="curve" smooth="yes"/>
      <point x="183.79" y="453.385"/>
      <point x="192.03400000000002" y="445.5330000000001"/>
      <point x="215.08599999999998" y="445.5330000000001" type="curve" smooth="yes"/>
      <point x="245.422" y="445.5330000000001"/>
      <point x="257.24" y="458.158"/>
      <point x="259.62" y="496.813" type="curve" smooth="yes"/>
      <point x="260.61999999999995" y="516.508"/>
      <point x="251.07199999999997" y="523.863"/>
      <point x="228.982" y="523.863" type="curve" smooth="yes"/>
      <point x="197.16" y="523.863"/>
      <point x="187.17" y="505.658"/>
    </contour>
    <contour>
      <point x="41.997" y="269.235" type="line"/>
      <point x="334.904" y="269.235" type="line"/>
      <point x="345.227" y="334.185" type="line"/>
      <point x="52.165" y="334.185" type="line"/>
    </contour>
  </outline>
</glyph>
<glyph name="oslash" format="2">
  <advance width="344.085"/>
  <unicode hex="00F8"/>
  <anchor x="212.20499999999998" y="536.2" name="top"/>
  <outline>
    <contour>
      <point x="315.7" y="546.07" type="line"/>
      <point x="275.41" y="480.05" type="line"/>
      <point x="272.42" y="480.825" type="line"/>
      <point x="54.245000000000005" y="105.35" type="line"/>
      <point x="52.03" y="106.745" type="line"/>
      <point x="-19.16" y="-10.0" type="line"/>
      <point x="30.135" y="-10.0" type="line"/>
      <point x="72.20499999999998" y="57.9" type="line"/>
      <point x="75.35" y="57.125" type="line"/>
      <point x="292.72499999999997" y="431.28499999999997" type="line"/>
      <point x="294.78499999999997" y="429.89000000000004" type="line"/>
      <point x="364.995" y="546.07" type="line"/>
    </contour>
    <contour>
      <point x="140.47" y="-10.0" type="curve" smooth="yes"/>
      <point x="276.78" y="-10.0"/>
      <point x="327.02" y="246.06000000000003"/>
      <point x="327.02" y="403.935" type="curve" smooth="yes"/>
      <point x="327.02" y="508.49499999999995"/>
      <point x="287.16499999999996" y="546.07"/>
      <point x="204.845" y="546.07" type="curve" smooth="yes"/>
      <point x="67.89" y="546.07"/>
      <point x="17.674999999999997" y="287.27000000000004"/>
      <point x="17.674999999999997" y="132.1" type="curve" smooth="yes"/>
      <point x="17.674999999999997" y="27.66"/>
      <point x="57.09" y="-10.0"/>
    </contour>
    <contour>
      <point x="141.125" y="49.72" type="curve" smooth="yes"/>
      <point x="100.625" y="49.565"/>
      <point x="79.945" y="69.95500000000001"/>
      <point x="79.78999999999999" y="131.755" type="curve" smooth="yes"/>
      <point x="79.47999999999999" y="222.405"/>
      <point x="118.775" y="486.03999999999996"/>
      <point x="204.13" y="486.34999999999997" type="curve" smooth="yes"/>
      <point x="243.94" y="486.505"/>
      <point x="264.90500000000003" y="465.175"/>
      <point x="265.06" y="404.185" type="curve" smooth="yes"/>
      <point x="265.37" y="309.96000000000004"/>
      <point x="225.99" y="50.03"/>
    </contour>
  </outline>
</glyph>
<glyph name="thorn" format="2">
  <advance width="351.22249999999997"/>
  <unicode hex="00FE"/>
  <outline>
    <contour>
      <point x="-31.127" y="-210.0" type="line"/>
      <point x="35.069500000000005" y="-210.0" type="line"/>
      <point x="68.2765" y="-1.534" type="line"/>
      <point x="84.72649999999999" y="-6.242"/>
      <point x="103.29550000000002" y="-9.4575"/>
      <point x="126.9835" y="-9.4575" type="curve" smooth="yes"/>
      <point x="258.08500000000004" y="-9.4575"/>
      <point x="334.019" y="182.21"/>
      <point x="334.019" y="383.2895" type="curve" smooth="yes"/>
      <point x="334.019" y="496.444"/>
      <point x="305.20799999999997" y="546.2"/>
      <point x="239.05700000000002" y="546.2" type="curve" smooth="yes"/>
      <point x="201.89950000000002" y="546.2"/>
      <point x="175.28799999999995" y="530.9195"/>
      <point x="149.82750000000001" y="513.9375000000001" type="curve"/>
      <point x="185.8455" y="740.0" type="line"/>
      <point x="118.873" y="740.0" type="line"/>
    </contour>
    <contour>
      <point x="120.0755" y="50.539" type="curve" smooth="yes"/>
      <point x="104.38900000000001" y="50.539"/>
      <point x="89.85" y="53.109"/>
      <point x="77.94149999999999" y="58.1365" type="curve"/>
      <point x="141.17849999999999" y="457.485" type="line"/>
      <point x="160.39249999999998" y="470.53349999999995"/>
      <point x="187.1435" y="480.546"/>
      <point x="207.4945" y="480.546" type="curve" smooth="yes"/>
      <point x="246.085" y="480.546"/>
      <point x="265.4965" y="447.55"/>
      <point x="265.4965" y="373.7105" type="curve" smooth="yes"/>
      <point x="265.4965" y="214.53"/>
      <point x="207.42000000000002" y="50.539"/>
    </contour>
  </outline>
</glyph>
<glyph name="Dcroat" format="2">
  <advance width="407.206"/>
  <unicode hex="0110"/>
  <outline>
    <contour>
      <point x="16.999" y="326.37949999999995" type="line"/>
      <point x="215.355" y="326.37949999999995" type="line"/>
      <point x="226.105" y="389.4525" type="line"/>
      <point x="27.825" y="389.4525" type="line"/>
    </contour>
    <component base="D" xOffset="8.0515"/>
  </outline>
</glyph>
<glyph name="dcroat" format="2">
  <advance width="357.05349999999993"/>
  <unicode hex="0111"/>
  <outline>
    <contour>
      <point x="186.171" y="617.2435" type="line"/>
      <point x="412.76499999999993" y="617.2435" type="line"/>
      <point x="419.79499999999996" y="658.6300000000001" type="line"/>
      <point x="193.43349999999998" y="658.6300000000001" type="line"/>
    </contour>
    <component base="d"/>
  </outline>
</glyph>
<glyph name="Hbar" format="2">
  <advance width="412.638"/>
  <unicode hex="0126"/>
  <outline>
    <contour>
      <point x="41.263000000000005" y="501.397" type="line"/>
      <point x="443.344" y="501.397" type="line"/>
      <point x="452.326" y="558.406" type="line"/>
      <point x="50.245" y="558.406" type="line"/>
    </contour>
    <component base="H" xOffset="2.116"/>
  </outline>
</glyph>
<glyph name="hbar" format="2">
  <advance width="357.145"/>
  <unicode hex="0127"/>
  <outline>
    <contour>
      <point x="54.912" y="617.2435" type="line"/>
      <point x="255.73550000000003" y="617.2435" type="line"/>
      <point x="262.6105" y="658.6300000000001" type="line"/>
      <point x="61.787000000000006" y="658.6300000000001" type="line"/>
    </contour>
    <component base="h" xOffset="2.0149999999999997"/>
  </outline>
</glyph>
<glyph name="Idotaccent" format="2">
  <advance width="158.647"/>
  <unicode hex="0130"/>
  <outline>
    <contour>
      <point x="174.91100000000003" y="873.7600000000001" type="curve" smooth="yes"/>
      <point x="139.06300000000002" y="873.7600000000001"/>
      <point x="128.147" y="850.88"/>
      <point x="126.21499999999999" y="812.265" type="curve" smooth="yes"/>
      <point x="125.594" y="790.229"/>
      <point x="137.762" y="781.821"/>
      <point x="158.821" y="781.821" type="curve" smooth="yes"/>
      <point x="194.425" y="781.821"/>
      <point x="205.623" y="804.8249999999999"/>
      <point x="207.624" y="843.695" type="curve" smooth="yes"/>
      <point x="208.245" y="865.6310000000001"/>
      <point x="196.00499999999997" y="873.7600000000001"/>
    </contour>
    <component base="I"/>
  </outline>
</glyph>
<glyph name="dotlessi" format="2">
  <advance width="157.137"/>
  <unicode hex="0131"/>
  <anchor x="34.376764" y="0.0" name="bottom"/>
  <anchor x="68.295" y="0.0" name="ogonek"/>
  <anchor x="119.37923599999999" y="536.2" name="top"/>
  <outline>
    <contour>
      <point x="68.295" y="0.0" type="line"/>
      <point x="153.194" y="536.2" type="line"/>
      <point x="86.113" y="536.2" type="line"/>
      <point x="1.7730000000000008" y="0.031" type="line"/>
    </contour>
  </outline>
</glyph>
<glyph name="kgreenlandic" format="2">
  <advance width="334.07500000000005"/>
  <unicode hex="0138"/>
  <anchor x="138.18499999999997" y="0.0" name="bottom"/>
  <anchor x="210.975" y="536.2" name="top"/>
  <outline>
    <contour>
      <point x="1.5449999999999995" y="0.0" type="line"/>
      <point x="68.775" y="0.0" type="line"/>
      <point x="153.45499999999998" y="536.2" type="line"/>
      <point x="86.07000000000001" y="536.2" type="line"/>
    </contour>
    <contour>
      <point x="274.605" y="-10.0" type="curve" smooth="yes"/>
      <point x="284.04999999999995" y="-10.0"/>
      <point x="293.495" y="-8.75"/>
      <point x="303.595" y="-4.665" type="curve"/>
      <point x="309.86" y="62.544999999999995" type="line"/>
      <point x="303.24" y="61.165"/>
      <point x="297.83500000000004" y="60.785"/>
      <point x="292.96500000000003" y="61.25" type="curve" smooth="yes"/>
      <point x="266.12" y="63.574999999999996"/>
      <point x="241.81" y="91.255"/>
      <point x="191.655" y="198.86499999999998" type="curve" smooth="yes"/>
      <point x="115.76" y="359.34" type="line"/>
      <point x="97.38" y="265.99" type="line"/>
      <point x="165.86499999999998" y="117.05" type="line" smooth="yes"/>
      <point x="208.765" y="23.099999999999998"/>
      <point x="234.79" y="-10.0"/>
    </contour>
    <contour>
      <point x="164.25" y="242.35" type="line"/>
      <point x="246.715" y="311.03000000000003"/>
      <point x="320.19" y="422.11"/>
      <point x="358.89500000000004" y="536.15" type="curve"/>
      <point x="295.18" y="545.82" type="line"/>
      <point x="255.23" y="429.35499999999996"/>
      <point x="202.02" y="353.40500000000003"/>
      <point x="129.48" y="290.98" type="curve"/>
    </contour>
  </outline>
</glyph>
<glyph name="Ldot" format="2">
  <advance width="296.684"/>
  <unicode hex="013F"/>
  <outline>
    <contour>
      <point x="210.25344199999998" y="363.28639799999996" type="curve" smooth="yes"/>
      <point x="208.94244200000003" y="342.410258"/>
      <point x="215.263698" y="334.74428099999994"/>
      <point x="235.710745" y="334.74428099999994" type="curve" smooth="yes"/>
      <point x="263.34276900000003" y="334.74428099999994"/>
      <point x="270.634932" y="354.371561"/>
      <point x="272.083932" y="380.772236" type="curve" smooth="yes"/>
      <point x="273.394932" y="400.717469"/>
      <point x="267.69467599999996" y="409.00444600000003"/>
      <point x="247.46444300000002" y="409.00444600000003" type="curve" smooth="yes"/>
      <point x="220.049512" y="409.00444600000003"/>
      <point x="211.70244200000002" y="389.563073"/>
    </contour>
    <component base="L"/>
  </outline>
</glyph>
<glyph name="ldot" format="2">
  <advance width="230.24800000000002"/>
  <unicode hex="0140"/>
  <outline>
    <contour>
      <point x="181.42299000000003" y="356.182355" type="curve" smooth="yes"/>
      <point x="180.11199" y="336.04702199999997"/>
      <point x="185.77226399999998" y="328.793872"/>
      <point x="204.802611" y="328.793872" type="curve" smooth="yes"/>
      <point x="230.744453" y="328.793872"/>
      <point x="237.022885" y="347.773841"/>
      <point x="238.471885" y="373.110844" type="curve" smooth="yes"/>
      <point x="239.782885" y="392.300297"/>
      <point x="234.743611" y="400.174447"/>
      <point x="215.912935" y="400.174447" type="curve" smooth="yes"/>
      <point x="190.170454" y="400.174447"/>
      <point x="182.87199" y="381.43544099999997"/>
    </contour>
    <component base="l"/>
  </outline>
</glyph>
<glyph name="Lslash" format="2">
  <advance width="307.199"/>
  <unicode hex="0141"/>
  <outline>
    <contour>
      <point x="10.42" y="0.0" type="line"/>
      <point x="254.394" y="0.0" type="line"/>
      <point x="264.67900000000003" y="64.167" type="line"/>
      <point x="87.97200000000001" y="64.167" type="line"/>
      <point x="123.78399999999999" y="289.129" type="line"/>
      <point x="255.78799999999998" y="385.34299999999996" type="line"/>
      <point x="267.78599999999994" y="457.505" type="line"/>
      <point x="135.22400000000002" y="361.012" type="line"/>
      <point x="189.152" y="700.0" type="line"/>
      <point x="121.82300000000001" y="700.0" type="line"/>
      <point x="61.553999999999995" y="320.57699999999994" type="line"/>
      <point x="13.012" y="285.112" type="line"/>
      <point x="1.2920000000000003" y="212.484" type="line"/>
      <point x="49.492999999999995" y="247.918" type="line"/>
    </contour>
  </outline>
</glyph>
<glyph name="lslash" format="2">
  <advance width="181.97"/>
  <unicode hex="0142"/>
  <outline>
    <contour>
      <point x="-1.757" y="198.869" type="line"/>
      <point x="193.805" y="367.621" type="line"/>
      <point x="204.191" y="434.557" type="line"/>
      <point x="8.319" y="265.805" type="line"/>
    </contour>
    <component base="l" xOffset="5.58"/>
  </outline>
</glyph>
<glyph name="Eng" format="2">
  <advance width="406.9975"/>
  <unicode hex="014A"/>
  <outline>
    <contour>
      <point x="0.5175000000000002" y="0.0" type="line"/>
      <point x="63.7875" y="0.0" type="line"/>
      <point x="148.945" y="540.4749999999999" type="line"/>
      <point x="252.705" y="-0.7899999999999997" type="line"/>
      <point x="243.1675" y="-69.005"/>
      <point x="209.99" y="-91.28000000000002"/>
      <point x="163.74" y="-91.28000000000002" type="curve" smooth="yes"/>
      <point x="148.8825" y="-91.59"/>
      <point x="133.335" y="-89.4675"/>
      <point x="117.3925" y="-85.13" type="curve"/>
      <point x="104.72" y="-155.81499999999997" type="line"/>
      <point x="123.87750000000001" y="-160.77249999999998"/>
      <point x="143.3775" y="-162.7475"/>
      <point x="161.19750000000002" y="-162.7475" type="curve" smooth="yes"/>
      <point x="257.18749999999994" y="-161.3525"/>
      <point x="302.355" y="-104.38000000000001"/>
      <point x="318.5075" y="-2.235" type="curve" smooth="yes"/>
      <point x="430.09250000000003" y="700.0" type="line"/>
      <point x="366.91749999999996" y="700.0" type="line"/>
      <point x="280.85749999999996" y="154.1075" type="line"/>
      <point x="180.2675" y="700.69" type="line"/>
      <point x="111.155" y="700.69" type="line"/>
    </contour>
  </outline>
</glyph>
<glyph name="eng" format="2">
  <advance width="352.16200000000003"/>
  <unicode hex="014B"/>
  <outline>
    <contour>
      <point x="255.33699999999996" y="-41.778000000000006" type="curve" smooth="yes"/>
      <point x="308.556" y="300.45000000000005"/>
      <point x="335.72700000000003" y="457.555"/>
      <point x="335.72700000000003" y="470.476" type="curve" smooth="yes"/>
      <point x="335.72700000000003" y="516.32"/>
      <point x="308.061" y="546.2"/>
      <point x="255.86599999999996" y="546.2" type="curve" smooth="yes"/>
      <point x="218.905" y="546.2"/>
      <point x="180.119" y="532.388"/>
      <point x="142.856" y="508.16400000000004" type="curve"/>
      <point x="147.459" y="536.2" type="line"/>
      <point x="86.08200000000001" y="536.2" type="line"/>
      <point x="1.2210000000000014" y="0.0" type="line"/>
      <point x="67.526" y="0.0" type="line"/>
      <point x="140.383" y="455.10499999999996" type="line"/>
      <point x="165.07" y="470.70300000000003"/>
      <point x="194.733" y="482.097"/>
      <point x="218.38899999999998" y="482.097" type="curve" smooth="yes"/>
      <point x="250.91400000000002" y="482.097"/>
      <point x="265.284" y="467.306"/>
      <point x="265.036" y="440.056" type="curve" smooth="yes"/>
      <point x="264.664" y="431.60200000000003"/>
      <point x="258.904" y="395.248"/>
      <point x="190.186" y="-39.785000000000004" type="curve" smooth="yes"/>
      <point x="179.93800000000002" y="-104.312"/>
      <point x="161.578" y="-147.738"/>
      <point x="117.228" y="-147.738" type="curve" smooth="yes"/>
      <point x="109.54900000000002" y="-147.738"/>
      <point x="102.41300000000003" y="-146.97899999999998"/>
      <point x="93.417" y="-144.42" type="curve"/>
      <point x="77.474" y="-215.546" type="line"/>
      <point x="90.048" y="-218.656"/>
      <point x="106.173" y="-220.414"/>
      <point x="123.43700000000001" y="-220.414" type="curve" smooth="yes"/>
      <point x="190.74" y="-220.414"/>
      <point x="237.051" y="-169.485"/>
    </contour>
  </outline>
</glyph>
<glyph name="OE" format="2">
  <advance width="569.6274999999998"/>
  <unicode hex="0152"/>
  <outline>
    <contour>
      <point x="510.556" y="0.0" type="line"/>
      <point x="520.8410000000001" y="64.33749999999999" type="line"/>
      <point x="320.7095" y="64.33749999999999" type="line"/>
      <point x="362.276" y="328.7199999999999" type="line"/>
      <point x="533.8135" y="328.7199999999999" type="line"/>
      <point x="544.2535" y="390.7325" type="line"/>
      <point x="372.561" y="390.7325" type="line"/>
      <point x="410.875" y="634.5" type="line"/>
      <point x="599.85" y="634.5" type="line"/>
      <point x="611.1745" y="700.0" type="line"/>
      <point x="417.59" y="700.0" type="line"/>
      <point x="384.5195" y="704.0044999999999"/>
      <point x="342.25199999999995" y="710.0"/>
      <point x="304.47150000000005" y="710.0" type="curve" smooth="yes"/>
      <point x="120.21300000000001" y="710.0"/>
      <point x="27.9915" y="470.92400000000004"/>
      <point x="27.9915" y="185.9415" type="curve" smooth="yes"/>
      <point x="27.9915" y="47.183"/>
      <point x="78.70100000000001" y="-10.0"/>
      <point x="199.50350000000003" y="-10.0" type="curve" smooth="yes"/>
      <point x="225.98299999999998" y="-10.0"/>
      <point x="261.5385" y="-6.5805"/>
      <point x="304.4385" y="0.0" type="curve"/>
    </contour>
    <contour>
      <point x="251.99999999999997" y="58.403000000000006" type="line"/>
      <point x="232.53900000000002" y="54.3345"/>
      <point x="215.86700000000002" y="53.06550000000001"/>
      <point x="198.9975" y="53.06550000000001" type="curve" smooth="yes"/>
      <point x="121.64999999999999" y="53.06550000000001"/>
      <point x="95.3895" y="100.46"/>
      <point x="95.3895" y="193.952" type="curve" smooth="yes"/>
      <point x="95.3895" y="437.39000000000004"/>
      <point x="176.8165" y="645.5714999999998"/>
      <point x="292.2935" y="645.5714999999998" type="curve" smooth="yes"/>
      <point x="309.50500000000005" y="645.5714999999998"/>
      <point x="333.9115" y="641.8494999999999"/>
      <point x="344.24449999999996" y="640.2004999999999" type="curve"/>
    </contour>
  </outline>
</glyph>
<glyph name="oe" format="2">
  <advance width="557.97"/>
  <unicode hex="0153"/>
  <outline>
    <contour>
      <point x="138.92999999999998" y="-10.0" type="curve" smooth="yes"/>
      <point x="196.04500000000002" y="-10.0"/>
      <point x="238.9" y="42.115"/>
      <point x="262.67" y="106.87500000000001" type="curve"/>
      <point x="279.38" y="31.63"/>
      <point x="321.535" y="-10.0"/>
      <point x="389.025" y="-10.0" type="curve" smooth="yes"/>
      <point x="430.33" y="-10.0"/>
      <point x="475.685" y="-0.38"/>
      <point x="509.1599999999999" y="17.994999999999997" type="curve"/>
      <point x="495.65" y="78.945" type="line"/>
      <point x="460.49" y="63.205"/>
      <point x="427.01" y="55.300000000000004"/>
      <point x="398.75" y="55.300000000000004" type="curve" smooth="yes"/>
      <point x="342.705" y="55.300000000000004"/>
      <point x="310.73999999999995" y="98.715"/>
      <point x="310.73999999999995" y="188.245" type="curve" smooth="yes"/>
      <point x="310.73999999999995" y="363.295"/>
      <point x="371.6" y="486.17"/>
      <point x="448.84" y="486.17" type="curve" smooth="yes"/>
      <point x="482.96500000000003" y="486.17"/>
      <point x="499.18499999999995" y="468.73"/>
      <point x="499.18499999999995" y="433.61" type="curve" smooth="yes"/>
      <point x="499.18499999999995" y="377.625"/>
      <point x="455.69" y="329.555"/>
      <point x="387.71" y="300.73" type="curve" smooth="yes"/>
      <point x="360.98" y="289.40000000000003"/>
      <point x="330.5" y="282.26"/>
      <point x="300.305" y="280.215" type="curve"/>
      <point x="290.175" y="225.38500000000002" type="line"/>
      <point x="326.855" y="227.37"/>
      <point x="365.72499999999997" y="235.0"/>
      <point x="399.98" y="247.785" type="curve" smooth="yes"/>
      <point x="497.75" y="283.52000000000004"/>
      <point x="562.445" y="357.635"/>
      <point x="562.445" y="446.065" type="curve" smooth="yes"/>
      <point x="562.445" y="507.58"/>
      <point x="525.875" y="546.2"/>
      <point x="458.125" y="546.2" type="curve" smooth="yes"/>
      <point x="396.025" y="546.2"/>
      <point x="346.25" y="507.22"/>
      <point x="313.06" y="447.36" type="curve"/>
      <point x="304.23499999999996" y="514.05"/>
      <point x="271.495" y="546.07"/>
      <point x="202.48999999999998" y="546.07" type="curve" smooth="yes"/>
      <point x="67.34" y="546.07"/>
      <point x="15.96" y="287.115"/>
      <point x="15.96" y="132.875" type="curve" smooth="yes"/>
      <point x="15.96" y="28.59"/>
      <point x="54.6" y="-10.0"/>
    </contour>
    <contour>
      <point x="140.67" y="51.580000000000005" type="curve" smooth="yes"/>
      <point x="102.32000000000001" y="51.580000000000005"/>
      <point x="81.48499999999999" y="68.87"/>
      <point x="81.33" y="131.135" type="curve" smooth="yes"/>
      <point x="81.02" y="223.02499999999998"/>
      <point x="122.54" y="484.33500000000004"/>
      <point x="201.155" y="484.49" type="curve" smooth="yes"/>
      <point x="238.815" y="484.49"/>
      <point x="260.09000000000003" y="466.72499999999997"/>
      <point x="260.245" y="404.805" type="curve" smooth="yes"/>
      <point x="260.555" y="311.82"/>
      <point x="218.795" y="51.73500000000001"/>
    </contour>
  </outline>
</glyph>
<glyph name="uni0162" format="2">
  <advance width="319.728"/>
  <unicode hex="0162"/>
  <anchor x="116.000431" y="0.0" name="_bottom"/>
  <anchor x="68.58600000000001" y="-220.0" name="bottom"/>
  <outline>
    <contour>
      <point x="19.743000000000002" y="-207.589" type="line"/>
      <point x="35.182" y="-216.69"/>
      <point x="51.37" y="-220.0"/>
      <point x="69.20700000000001" y="-220.0" type="curve" smooth="yes"/>
      <point x="127.39800000000001" y="-220.0"/>
      <point x="159.75" y="-162.387"/>
      <point x="159.75" y="-95.85199999999999" type="curve" smooth="yes"/>
      <point x="159.75" y="-60.921"/>
      <point x="152.993" y="-25.927"/>
      <point x="141.947" y="2.887" type="curve"/>
      <point x="96.106" y="2.263" type="line"/>
      <point x="106.65299999999999" y="-29.116999999999997"/>
      <point x="112.72" y="-57.443"/>
      <point x="112.72" y="-87.464" type="curve" smooth="yes"/>
      <point x="112.72" y="-139.651"/>
      <point x="92.252" y="-168.583"/>
      <point x="63.11" y="-168.583" type="curve" smooth="yes"/>
      <point x="51.599" y="-168.583"/>
      <point x="41.97" y="-165.444"/>
      <point x="31.842" y="-159.746" type="curve"/>
    </contour>
    <component base="T"/>
  </outline>
</glyph>
